<svg xmlns="http://www.w3.org/2000/svg" width="250" height="250" fill="none" viewBox="0 0 250 250">
<!-- SVG created with Arrow, by QuiverAI (https://quiver.ai) -->
  <path d="m14.72 225.3v-44.19c0-4.05-0.09-6.03-0.27-7.18h9.22c4.24 0 4.94 1.63 4.94 5.96v36.1h15.65c3.67 0 4.46-0.51 4.46-0.51l0.17 7.24c0 2.23-0.96 2.58-5.73 2.58h-28.44z" fill="url(#paint0_linear_102_17)"/>
  <path d="m53.77 225.3v-29.27c0-2.73-0.26-4.7-0.51-5.58h8.87c3.84 0 3.84 1.38 3.84 4.55v30.3h-12.2zm6.39-52.34c5.03 0 6.41 3 6.41 5.91 0 2.99-2.16 5.72-6.5 5.72-4.76 0-6.73-2.82-6.73-5.64 0-3.17 2.23-5.99 6.82-5.99z" fill="url(#paint1_linear_102_17)"/>
  <path d="m72.93 172.3c1.29 0 3.52-0.26 6.34-0.26 5.29 0 5.46 1.57 5.46 6.94v14.61c2.4-2.58 5.22-4.14 10.43-4.14 11.08 0 15.66 8.52 15.66 17.12 0 11.35-7.66 20.04-21.04 20.04-5.56 0-10.93-1.2-16.85-3.61v-44.87c0-2.91-0.09-4.55 0-5.83zm11.89 46.9c1.29 0.6 2.84 1.03 4.89 1.03 7.25 0 9.74-5.55 9.74-11.85 0-6.21-3-11.58-8.28-11.58-2.23 0-4.12 0.6-6.35 1.56v20.84z" fill="url(#paint2_linear_102_17)"/>
  <path d="m148.5 215c0 4.84 0.79 7.75 4.29 8.8v0.69c-2.73 1.15-5.3 1.58-7.95 1.58-4.58 0-6.05-1.88-6.48-5.38-3 3.59-6.5 5.65-12.14 5.65-7.75 0-10.75-4.67-10.75-9.6 0-7.75 7.43-12.77 22.16-12.77h0.35c0-5.2-2.23-7.69-7.78-7.69-4.05 0-7.81 1.46-10.72 3.18l-1.8-6.3c3.58-2.41 9.22-3.97 15.14-3.97 11.08 0 15.67 5.29 15.67 13.89v11.92h0.01zm-10.61-6.19c-7.83 0-11.98 2.23-11.98 6.08 0 2.65 1.88 4.45 5.13 4.45 2.91 0 5.23-1.38 6.86-2.93v-7.6h-0.01z" fill="url(#paint3_linear_102_17)"/>
  <path d="m157.2 172.3c1.29 0 3.52-0.26 6.34-0.26 5.29 0 5.46 1.57 5.46 6.94v14.61c2.4-2.58 5.22-4.14 10.43-4.14 11.08 0 15.66 8.52 15.66 17.12 0 11.35-7.66 20.04-21.04 20.04-5.56 0-10.93-1.2-16.85-3.61v-44.87c0-2.91-0.09-4.55 0-5.83zm11.89 46.9c1.29 0.6 2.84 1.03 4.89 1.03 7.25 0 9.74-5.55 9.74-11.85 0-6.21-3-11.58-8.28-11.58-2.23 0-4.12 0.6-6.35 1.56v20.84z" fill="url(#paint4_linear_102_17)"/>
  <path d="m238.4 193.7c0 8.43-10.61 29.62-15.72 37.79-6.82 10.9-14.07 13.81-20.08 13.81-4.58 0-5.02-2.06-5.02-4.71v-3.08c1.15 0.34 2.11 0.34 2.9 0.34 5.92 0 10.25-3.93 12.31-9.3-4.85-12.46-10.05-24.29-16.69-38.14h9.22c3.41 0 4.79 1.04 5.83 4.04 3.25 9.39 6.92 18.44 9.57 23.64 4.04-9.13 7.04-17.99 7.04-23.1 0-1.89-0.43-3.35-0.69-3.95 1.64-0.52 3.87-0.6 5.02-0.6 4.76-0.03 6.31 0.67 6.31 3.26z" fill="url(#paint5_linear_102_17)"/>
  <path d="m8.38 60.82 8.51 0.05 0.72 0.64-0.13 75.21c32.44-3.91 72.4 1.23 107.2 25.1 22.32-19.66 60.17-28.8 106.9-25.1l0.51-75.13c2.9-0.88 6.74-1.14 8.54-0.35l-0.05-0.03 0.09 84.61c-29.89-5.2-69.37-3.31-98.63 11.65-4.04 6.64-11.38 8.28-17.31 8.19-6.91-0.1-13.64-3.5-16.55-7.84-23.06-11.16-55.24-15.66-99.71-12.08l-0.08-84.92z" fill="url(#paint6_linear_102_17)"/>
  <path d="m22.88 52.82c10.04 0.34 20.25 2.32 30.38 7.96-0.43 24.09 7.57 46.15 31.66 60.26 16.87 9.69 28.13 16.67 34.69 30.7-25.95-14.46-53.46-24.75-96.05-23.2l-0.68-75.72z" fill="url(#paint7_linear_102_17)"/>
  <path d="m197.3 59.23c9.14-4.58 17.57-5.96 27.44-6.4l-0.35 75.72c-29.98-2.23-59.15 1.14-95.25 22.68 6.91-13.51 18.94-21.09 33.57-28.33 19.83-11.08 34.86-29.12 34.16-53.99l-0.09-9.59 0.52-0.09z" fill="url(#paint8_linear_102_17)"/>
  <path d="m136.6 5.12c-31.46 0-76.33 16.29-76.33 60.99 0 19.95 8.53 37.07 26.1 49.97 2.91-9.6 7.94-19.37 12.7-25.92-8.18-8.95-11.94-19.15-11.94-32.39 0-29.89 18.89-48.61 49.47-52.65z" fill="url(#paint9_linear_102_17)"/>
  <path d="m150.3 105.1c19.07-3.4 38.57-19.43 41.64-43.52 1.89 21.36-8.81 45.45-35.2 60.41-0.96-6.29-2.93-11.49-6.44-16.89z" fill="url(#paint10_linear_102_17)"/>
  <path d="m123.3 27.52c-18.05 0-31.2 12.29-31.2 28.24-0.52 12.46 5.75 21.32 16.54 29.57-9.6 8.43-16.62 21.58-19.35 32.74 13.68 8.78 24.47 13.01 35.92 28.65 7.43-12.21 16.94-18.85 27.93-23.87-1.15-10.7-8.29-21.69-17.23-28.93l0.43-0.87c8.61 1.89 15 1.37 17.91-7.72l1.8-1.55v-3.67c2.65-1.89 3-5.93 1.03-6.45-3.5-0.7-4.02-3.52-1.03-9.44 2.31-5.29 2.22-14.06-3.06-19.17 2.82 0.52 4.7 2.41 5.97 4.13 1.04-2.15-2.91-8.16-11-14.26-7.75-5.55-16.97-7.4-24.66-7.4z" fill="url(#paint11_linear_102_17)"/>
  <path d="m23.56 97.23c24.87 9.78 45.8 22.59 66.38 36.88l14.81 8.95c-21.44-10.04-44.68-16.51-81.19-14.7v-31.13z" fill="#006838" opacity=".2"/>
  <path d="m223.2 97.93-70.29 40.03c16.03-7.98 32.99-10.89 56.24-11.24l9.3-1.38 5.29 3.28-0.54-30.69z" fill="#A67C52" opacity=".15"/>
  <path d="m223.8 53.26-1.89 45.02 0.44 12.1-1.38 3.67 2.83 8.16v-68.95z" fill="#A67C52" opacity=".3"/>
  <path d="m62.25 65.06c7.99 15.86 19.62 26.06 33.47 31.78l2.4-6.68c-9.14-10.05-11.7-20.87-10.99-35.1 1.38-26.03 16.01-41.98 42.66-49.94-32.88 1.89-63.96 18.93-67.54 59.94z" fill="#F1F2F2" opacity=".3"/>
  <path d="m154.2 115.5c18.13-7.24 34.53-22.44 36.5-48.47-5.38 20.2-17.85 32.93-38.64 39.13l2.14 9.34z" fill="#8C6239" opacity=".2"/>
  <path d="m151.9 120.2c-11.72 5.73-18.74 12.88-26.82 23.58l-0.96-0.78c-6.91-9.96-15.96-15.78-26.85-22.07 8.44 4.15 17.85 10.16 27.9 21.32 6.91-9.3 15.43-17.17 26.73-22.05z" fill="#8C6239" opacity=".2"/>
  <defs>
    <linearGradient id="paint0_linear_102_17" x1="25.1" x2="41.58" y1="176.7" y2="224" gradientUnits="userSpaceOnUse">
      <stop stop-color="#62A830" offset="0"/>
      <stop stop-color="#00722E" offset="1"/>
    </linearGradient>
    <linearGradient id="paint1_linear_102_17" x1="57.94" x2="66.95" y1="176.5" y2="223.5" gradientUnits="userSpaceOnUse">
      <stop stop-color="#62A830" offset="0"/>
      <stop stop-color="#00722E" offset="1"/>
    </linearGradient>
    <linearGradient id="paint2_linear_102_17" x1="78.92" x2="101.4" y1="175.2" y2="224.1" gradientUnits="userSpaceOnUse">
      <stop stop-color="#62A830" offset="0"/>
      <stop stop-color="#00722E" offset="1"/>
    </linearGradient>
    <linearGradient id="paint3_linear_102_17" x1="120.7" x2="138" y1="191.1" y2="226.8" gradientUnits="userSpaceOnUse">
      <stop stop-color="#62A830" offset="0"/>
      <stop stop-color="#00722E" offset="1"/>
    </linearGradient>
    <linearGradient id="paint4_linear_102_17" x1="161.1" x2="183.6" y1="175.2" y2="224.1" gradientUnits="userSpaceOnUse">
      <stop stop-color="#D6A506" offset="0"/>
      <stop stop-color="#9E7603" offset="1"/>
    </linearGradient>
    <linearGradient id="paint5_linear_102_17" x1="202" x2="223.8" y1="192.8" y2="231.2" gradientUnits="userSpaceOnUse">
      <stop stop-color="#D6A506" offset="0"/>
      <stop stop-color="#9E7603" offset="1"/>
    </linearGradient>
    <linearGradient id="paint6_linear_102_17" x1="124.5" x2="124.5" y1="60.43" y2="161.7" gradientUnits="userSpaceOnUse">
      <stop stop-color="#D6A506" offset="0"/>
      <stop stop-color="#747F1B" offset=".5052"/>
      <stop stop-color="#006628" offset="1"/>
    </linearGradient>
    <linearGradient id="paint7_linear_102_17" x1="40.79" x2="70.68" y1="54.97" y2="131.3" gradientUnits="userSpaceOnUse">
      <stop stop-color="#92C03B" offset="0"/>
      <stop stop-color="#318B34" offset="1"/>
    </linearGradient>
    <linearGradient id="paint8_linear_102_17" x1="177.4" x2="197.8" y1="56.07" y2="127.2" gradientUnits="userSpaceOnUse">
      <stop stop-color="#D69408" offset="0"/>
      <stop stop-color="#F9D859" offset=".5052"/>
      <stop stop-color="#D69408" offset="1"/>
    </linearGradient>
    <linearGradient id="paint9_linear_102_17" x1="96.6" x2="96.6" y1="5.117" y2="116.1" gradientUnits="userSpaceOnUse">
      <stop stop-color="#D69408" offset="0"/>
      <stop stop-color="#F9D859" offset=".5052"/>
      <stop stop-color="#D69408" offset="1"/>
    </linearGradient>
    <linearGradient id="paint10_linear_102_17" x1="172.1" x2="172.1" y1="61.62" y2="122" gradientUnits="userSpaceOnUse">
      <stop stop-color="#D69408" offset="0"/>
      <stop stop-color="#BA6304" offset="1"/>
    </linearGradient>
    <linearGradient id="paint11_linear_102_17" x1="125.2" x2="125.2" y1="27.52" y2="146.7" gradientUnits="userSpaceOnUse">
      <stop stop-color="#D69408" offset="0"/>
      <stop stop-color="#BA6304" offset="1"/>
    </linearGradient>
  </defs>
</svg>