<?xml version="1.0" encoding="UTF-8"?>
<svg version="1.1" xmlns="http://www.w3.org/2000/svg" width="600" height="600">
<path d="M0 0 C0.68964844 0.46019531 1.37929688 0.92039062 2.08984375 1.39453125 C10.1120386 6.90681167 16.92986169 15.15187324 21 24 C21.25 26.9375 21.25 26.9375 21 29 C17.4213696 27.34832443 14.25179812 25.21713508 11 23 C11.27714844 23.53109375 11.55429687 24.0621875 11.83984375 24.609375 C12.20207031 25.31578125 12.56429687 26.0221875 12.9375 26.75 C13.29714844 27.44609375 13.65679687 28.1421875 14.02734375 28.859375 C18.41984556 38.5264071 17.38769006 53.25202712 14.125 63.125 C12.96448397 66.09076318 11.77792032 68.33311952 10 71 C9.4681281 74.42608394 9.26477158 77.81546532 11.125 80.8125 C13.65965069 82.41777877 16.28299434 83.73206402 19 85 C19.35263158 90.28947368 19.35263158 90.28947368 19 93 C17.66666667 94.33333333 16.33333333 95.66666667 15 97 C14.64556388 99.03918374 14.64556388 99.03918374 14.5625 101.3125 C14.26190106 105.69265593 13.04469443 107.8825344 10.32421875 111.25 C8.91531098 113.11191941 7.98145717 114.94735966 7 117.0625 C4.26473168 122.68560142 1.27709124 126.96395092 -4.75512695 129.41333008 C-9.54708589 130.66564953 -14.52259461 130.30125745 -19.4375 130.1875 C-20.55060547 130.17396484 -21.66371094 130.16042969 -22.81054688 130.14648438 C-25.54087212 130.11132997 -28.27017744 130.06212106 -31 130 C-30.2265625 130.75023437 -29.453125 131.50046875 -28.65625 132.2734375 C-11.2222609 149.33708759 5.27757543 172.04884667 8 197 C7.42145264 197.29132813 6.84290527 197.58265625 6.24682617 197.8828125 C-9.54440972 205.87268174 -9.54440972 205.87268174 -24 216 C-24.86753906 216.66773438 -25.73507812 217.33546875 -26.62890625 218.0234375 C-31.29953933 221.65692553 -35.59653893 225.41165731 -39.625 229.75 C-41 231 -41 231 -43 231 C-43.37511719 231.83724609 -43.37511719 231.83724609 -43.7578125 232.69140625 C-45.20447418 235.38001334 -46.94420947 237.57319235 -48.875 239.9375 C-49.55304688 240.77152344 -50.23109375 241.60554688 -50.9296875 242.46484375 C-51.61289062 243.30144531 -52.29609375 244.13804687 -53 245 C-54.33502269 246.66531377 -55.66885169 248.33158766 -57 250 C-61.13906545 248.46075571 -62.90953512 245.77250219 -65.4375 242.25 C-66.23209809 241.16074654 -67.02766122 240.07219637 -67.82421875 238.984375 C-68.54222656 237.99953125 -69.26023437 237.0146875 -70 236 C-72.98017973 232.10814575 -76.11672931 229.00953478 -80 226 C-80.721875 225.25492188 -81.44375 224.50984375 -82.1875 223.7421875 C-85.43239035 220.5784194 -88.86913964 217.88907968 -92.5 215.1875 C-93.21140137 214.65761475 -93.92280273 214.12772949 -94.65576172 213.58178711 C-100.24412836 209.46717225 -105.97166031 205.70353918 -111.96191406 202.19433594 C-114.48782229 200.71413193 -117.00538606 199.22009183 -119.5234375 197.7265625 C-124.2171904 194.94515051 -128.91623015 192.17287931 -133.61914062 189.40698242 C-136.08617549 187.9490741 -138.54432658 186.47695114 -141 185 C-140.11054535 169.58278606 -130.07628179 155.29739314 -123 142 C-122.34 142 -121.68 142 -121 142 C-120.76796875 141.14277344 -120.5359375 140.28554687 -120.296875 139.40234375 C-118.84072576 135.58214498 -116.78497685 132.70981948 -114.25 129.5625 C-113.80116455 128.99337891 -113.3523291 128.42425781 -112.88989258 127.83789062 C-108.85497122 122.7478835 -104.82412269 117.74481301 -100.125 113.25 C-97.65668823 111.15230252 -97.65668823 111.15230252 -98 108 C-99.75925939 106.32448161 -99.75925939 106.32448161 -102.0625 104.75 C-106.38226451 101.53068183 -110.56682366 98.18383869 -114 94 C-114 93.34 -114 92.68 -114 92 C-115.485 91.505 -115.485 91.505 -117 91 C-121.7517285 85.69490565 -125.08668473 79.24320963 -128.3125 72.9375 C-128.64983154 72.28966553 -128.98716309 71.64183105 -129.3347168 70.97436523 C-135.94209408 57.6577532 -136.80818092 38.29373199 -132.4375 24.1875 C-131.328125 21.55859375 -131.328125 21.55859375 -130 19 C-129.47921875 17.98035156 -128.9584375 16.96070313 -128.421875 15.91015625 C-119.38540953 -0.55493511 -104.94722379 -11.80394985 -86.9140625 -17.32421875 C-56.76642577 -25.51572801 -24.88756362 -18.24541319 0 0 Z " fill="#CC8F1B" transform="translate(360,100)"/>
<path d="M0 0 C0.72316406 0.00386719 1.44632813 0.00773438 2.19140625 0.01171875 C2.89136719 0.00785156 3.59132813 0.00398437 4.3125 0 C16.45221015 0.02252265 16.45221015 0.02252265 18.56640625 2.13671875 C18.67566717 4.31333241 18.71333279 6.49354182 18.72462463 8.67286682 C18.7320316 9.70932898 18.7320316 9.70932898 18.7395882 10.76672977 C18.75503631 13.09912263 18.76334347 15.43148783 18.77172852 17.76391602 C18.78130131 19.42906948 18.79131102 21.09422049 18.80172729 22.7593689 C18.82884738 27.29427333 18.84981835 31.82918825 18.86972928 36.3641293 C18.89154517 41.09807338 18.9189553 45.83198488 18.94578552 50.56590271 C18.99577206 59.53671614 19.04068869 68.50754758 19.08380789 77.47839636 C19.13312943 87.68864579 19.18806635 97.89886257 19.24348748 108.10908043 C19.35739899 129.11826279 19.46421796 150.12747632 19.56640625 171.13671875 C20.13566645 171.07770795 20.70492664 171.01869715 21.29143715 170.95789814 C31.97865169 169.86205838 42.58574265 168.82754597 53.33984375 168.8359375 C54.42499771 168.83029282 55.51015167 168.82464813 56.62818909 168.8188324 C60.06608298 168.80703535 63.50351498 168.81295675 66.94140625 168.82421875 C68.12783722 168.8263739 69.31426819 168.82852905 70.53665161 168.83074951 C130.32488501 169.00468257 197.02509998 180.03374252 246.56640625 216.13671875 C247.41452881 216.75450195 247.41452881 216.75450195 248.27978516 217.38476562 C251.74599994 219.92125292 255.17081237 222.50606635 258.56640625 225.13671875 C259.05109375 224.77320313 259.53578125 224.4096875 260.03515625 224.03515625 C261.45349013 222.97140584 262.87284304 221.90901336 264.29296875 220.84765625 C265.71209951 219.77965062 267.1247655 218.70293367 268.52734375 217.61328125 C300.51590141 192.93639391 341.57433311 180.04632216 380.81640625 173.32421875 C381.94989502 173.12916748 383.08338379 172.93411621 384.2512207 172.7331543 C404.39636828 169.50679968 424.51775772 168.80972527 444.89257812 168.87597656 C448.82567617 168.88674413 452.7583215 168.87598754 456.69140625 168.86328125 C459.25911556 168.86460252 461.8268246 168.86716424 464.39453125 168.87109375 C465.53674133 168.86704529 466.67895142 168.86299683 467.85577393 168.85882568 C477.97042402 168.91547772 487.34125143 170.06038666 497.56640625 171.13671875 C497.56640625 115.36671875 497.56640625 59.59671875 497.56640625 2.13671875 C500.89007389 1.02882954 503.8248443 0.73768471 507.31640625 0.44921875 C508.5075 0.34222656 509.69859375 0.23523438 510.92578125 0.125 C514.56640625 0.13671875 514.56640625 0.13671875 521.56640625 2.13671875 C521.56640625 65.16671875 521.56640625 128.19671875 521.56640625 193.13671875 C517.57721594 194.46644885 514.35233839 193.53915759 510.31640625 192.82421875 C449.60401901 183.0425913 384.32589001 188.64711943 326.06640625 207.69921875 C324.98697754 208.05081055 323.90754883 208.40240234 322.79541016 208.76464844 C316.20631162 210.99966738 310.09948988 213.72820429 303.94726562 216.98022461 C301.56640625 218.13671875 301.56640625 218.13671875 299.56640625 218.13671875 C299.38078125 218.83796875 299.19515625 219.53921875 299.00390625 220.26171875 C294.57198079 229.12556966 283.90406189 233.09870478 275.12890625 236.44921875 C256.38785402 240.06591304 240.06835086 237.29372029 223.87109375 227.078125 C221.56640625 225.13671875 221.56640625 225.13671875 219.609375 222.12109375 C207.13041543 203.89179143 163.46540995 199.2664582 142.56640625 195.13671875 C96.59708486 186.53697494 48.29235358 187.07537076 2.06591797 193.2590332 C0.60436279 193.45178833 0.60436279 193.45178833 -0.88671875 193.6484375 C-2.17304199 193.82572388 -2.17304199 193.82572388 -3.48535156 194.0065918 C-4.44973145 194.07100464 -4.44973145 194.07100464 -5.43359375 194.13671875 C-7.143151 192.4271615 -6.55846424 190.2673851 -6.56733716 187.9870615 C-6.56510643 187.24359439 -6.56287571 186.50012728 -6.56057739 185.73413086 C-6.56291738 184.55784449 -6.56291738 184.55784449 -6.56530464 183.35779476 C-6.56931778 180.70986532 -6.56612379 178.06199244 -6.56298828 175.4140625 C-6.56434218 173.52393561 -6.56612205 171.63380898 -6.56829834 169.74368286 C-6.57287399 164.59507226 -6.57108257 159.4464816 -6.56791925 154.29787064 C-6.56539633 148.92245681 -6.567733 143.54704475 -6.56930542 138.17163086 C-6.57112732 129.14273775 -6.56872029 120.11385281 -6.56396484 111.08496094 C-6.55852219 100.63022806 -6.56028483 90.17551468 -6.56579125 79.72078228 C-6.57032181 70.76200792 -6.57097321 61.80323944 -6.56835258 52.8444643 C-6.56678949 47.48613986 -6.5665969 42.12782459 -6.56988907 36.76950073 C-6.57276696 31.73319455 -6.5707936 26.69691363 -6.56499481 21.6606102 C-6.56366677 19.80658892 -6.56406207 17.95256553 -6.56625748 16.09854507 C-6.56896727 13.57876972 -6.56558997 11.05907667 -6.56057739 8.53930664 C-6.56392348 7.42410597 -6.56392348 7.42410597 -6.56733716 6.286376 C-6.54342607 0.14127057 -6.14021193 0.0115201 0 0 Z " fill="#57832C" transform="translate(42.43359375,154.86328125)"/>
<path d="M0 0 C20.05582349 0.55551845 52.90854344 3.90854344 68 19 C68.19289277 20.72433301 68.324162 22.45562347 68.4296875 24.1875 C68.5009082 25.27015137 68.57212891 26.35280273 68.64550781 27.46826172 C68.72124023 28.63373535 68.79697266 29.79920898 68.875 31 C71.08646909 61.51744518 78.73917634 91.35278567 97.5 116.125 C98.27214844 117.1459375 99.04429687 118.166875 99.83984375 119.21875 C101.53611612 121.40273901 103.25986883 123.52963386 105.0625 125.625 C107 128 107 128 107 130 C107.8353125 130.3403125 107.8353125 130.3403125 108.6875 130.6875 C111.64611162 132.366712 113.61836297 134.57276462 116 137 C127.93121018 148.70800727 141.41033164 157.79433542 156.02734375 165.796875 C172.16842209 174.66551188 186.61015313 185.35662543 200 198 C201.07894531 199.01707031 201.07894531 199.01707031 202.1796875 200.0546875 C209.12544428 206.79076106 214.87322435 214.19864662 219 223 C219 223.66 219 224.32 219 225 C215.61366203 223.74976196 212.80979015 222.32469846 209.8671875 220.2421875 C152.97607714 181.49231514 73.00836067 166.97443065 5.5078125 172.87890625 C4.68023437 172.91886719 3.85265625 172.95882812 3 173 C1.01562947 171.01562947 1.82540205 167.07838276 1.81054688 164.36157227 C1.79807718 163.153434 1.79807718 163.153434 1.78535557 161.9208889 C1.75857004 159.21941684 1.73874686 156.51793643 1.71875 153.81640625 C1.70095807 151.91215058 1.68267388 150.00789945 1.66392517 148.10365295 C1.6246983 144.03984452 1.58830119 139.97602481 1.5541687 135.91217041 C1.47403636 126.40084967 1.37984113 116.88966587 1.28530693 107.378479 C1.26433055 105.26509771 1.24352461 103.15171471 1.22288704 101.03833008 C1.02319519 80.65409716 0.70794433 60.27403168 0.3046875 39.89282227 C0.04622615 26.59309086 -0.05183971 13.30223538 0 0 Z " fill="#6AA537" transform="translate(71,137)"/>
<path d="M0 0 C1.27037109 0.01353516 1.27037109 0.01353516 2.56640625 0.02734375 C3.18386719 0.03894531 3.80132813 0.05054688 4.4375 0.0625 C5.59709932 3.54129795 5.54414107 6.20561885 5.51979065 9.87712097 C5.51656152 10.57388815 5.51333239 11.27065532 5.51000541 11.98853666 C5.4979196 14.32859477 5.47854899 16.66853618 5.45922852 19.00854492 C5.44908686 20.68384039 5.43939307 22.35913862 5.43011475 24.03443909 C5.40362239 28.5878732 5.37084517 33.14124319 5.33696485 37.69462752 C5.30263308 42.4512062 5.27404624 47.20781925 5.24485779 51.96443176 C5.18869346 60.97418393 5.12734015 69.98389305 5.06413645 78.99359828 C4.99244013 89.24979569 4.92650737 99.50602759 4.86106598 109.76226652 C4.72630415 130.86238915 4.58428083 151.96245778 4.4375 173.0625 C3.14030533 172.9922612 1.84311066 172.9220224 0.50660706 172.84965515 C-1.2162146 172.75739059 -2.93903884 172.6651741 -4.66186523 172.57299805 C-5.51436607 172.52671013 -6.36686691 172.48042221 -7.24520111 172.43273163 C-66.96872839 169.25041261 -129.59104941 180.57616186 -182.5625 209.0625 C-183.69558594 209.64644531 -184.82867187 210.23039063 -185.99609375 210.83203125 C-192.72974844 214.34558723 -198.97535983 218.21425779 -205.19921875 222.55859375 C-207.5625 224.0625 -207.5625 224.0625 -209.5625 224.0625 C-202.55697385 199.66889868 -173.09928408 182.69166269 -152.5625 171.0625 C-148.76004229 168.96141619 -144.92074301 166.93297672 -141.07421875 164.9140625 C-127.05715694 157.52353158 -113.76903872 149.43187705 -102.234375 138.4609375 C-100.5625 137.0625 -100.5625 137.0625 -98.5625 137.0625 C-98.33820313 136.51464844 -98.11390625 135.96679688 -97.8828125 135.40234375 C-96.17158965 132.36973284 -93.84887702 130.09751741 -91.4375 127.625 C-85.80305422 121.64555051 -81.5307524 115.27289903 -77.5625 108.0625 C-76.95664062 106.96164063 -76.35078125 105.86078125 -75.7265625 104.7265625 C-69.0990616 92.07932279 -64.82178719 79.11181007 -61.75 65.1875 C-61.54294434 64.24914307 -61.33588867 63.31078613 -61.12255859 62.34399414 C-58.49364887 49.76309971 -58.4806914 37.63843079 -59.04101562 24.83007812 C-59.22114988 15.76007476 -59.22114988 15.76007476 -56.05078125 12.40234375 C-54.89964844 11.96019531 -53.74851562 11.51804688 -52.5625 11.0625 C-51.94898682 10.80670166 -51.33547363 10.55090332 -50.70336914 10.28735352 C-48.63645118 9.45755015 -46.55603609 8.74951066 -44.4375 8.0625 C-43.66414307 7.80831299 -42.89078613 7.55412598 -42.09399414 7.29223633 C-28.7249483 3.06135641 -14.09004938 -0.1984514 0 0 Z " fill="#E9BD43" transform="translate(522.5625,136.9375)"/>
<path d="M0 0 C0.69552979 0.03077637 1.39105957 0.06155273 2.10766602 0.09326172 C5.71382673 0.3069273 7.42320783 0.57380522 10.5 2.625 C9.61965088 2.80039307 8.73930176 2.97578613 7.83227539 3.15649414 C-16.02030954 7.73376946 -16.02030954 7.73376946 -38.5 16.625 C-39.53447266 17.15528809 -39.53447266 17.15528809 -40.58984375 17.69628906 C-48.78410864 21.9601222 -56.50775083 26.54306251 -63.5 32.625 C-64.30695313 33.31207031 -65.11390625 33.99914063 -65.9453125 34.70703125 C-86.35218997 52.52404507 -99.92763586 76.37360935 -102.5 103.625 C-103.42062775 121.09809079 -103.23377223 138.15898687 -97.875 154.9375 C-97.61775146 155.74437256 -97.36050293 156.55124512 -97.09545898 157.38256836 C-93.43340117 168.36441185 -87.91838656 178.16780205 -81.04296875 187.4765625 C-79.38473881 189.78549027 -77.93339892 192.17143428 -76.5 194.625 C-77.24443359 195.82382812 -77.24443359 195.82382812 -78.00390625 197.046875 C-79.82113046 199.98477828 -81.62719443 202.92901413 -83.42724609 205.87744141 C-84.3538751 207.38695675 -85.29476802 208.88769885 -86.23828125 210.38671875 C-94.38885912 223.71164915 -101.24659606 238.57937711 -105.5 253.625 C-110.04125069 252.74489836 -112.80275457 250.11515429 -116.1875 247.125 C-116.81180908 246.5789209 -117.43611816 246.0328418 -118.0793457 245.47021484 C-136.13403551 229.55483897 -148.42254645 211.88531602 -157.5 189.625 C-157.97695312 188.48160156 -158.45390625 187.33820313 -158.9453125 186.16015625 C-164.96588642 170.71215671 -165.7820302 155.3598684 -165.875 139 C-165.88294586 138.26786285 -165.89089172 137.53572571 -165.89907837 136.78140259 C-166.0177064 122.53547261 -164.60554245 108.4170409 -159.3125 95.0625 C-159.01061768 94.27786377 -158.70873535 93.49322754 -158.39770508 92.68481445 C-144.23315118 56.70517729 -116.72961358 28.48940381 -81.328125 12.71875 C-64.62293813 5.6680694 -46.3565239 1.06167913 -28.25 0.0625 C-27.12476929 -0.0001001 -27.12476929 -0.0001001 -25.97680664 -0.06396484 C-17.28481443 -0.5220778 -8.69018942 -0.44803789 0 0 Z " fill="#E0A92D" transform="translate(319.5,26.375)"/>
<path d="M0 0 C22 0 22 0 27 3 C29.13628941 8.17947899 29.27090282 13.05676158 29.1953125 18.55859375 C29.1924826 19.34774673 29.18965271 20.13689972 29.18673706 20.94996643 C29.17563057 23.44597172 29.15054455 25.94160498 29.125 28.4375 C29.11495785 30.13996874 29.10583417 31.84244316 29.09765625 33.54492188 C29.0757226 37.69675576 29.04125977 41.84831502 29 46 C29.58007812 45.66226563 30.16015625 45.32453125 30.7578125 44.9765625 C41.52528706 38.8287965 52.08920033 36.87061106 64.375 40.125 C73.32875788 43.33231626 80.15020357 48.79943513 85 57 C91.02661516 70.24389896 91.29989995 84.49242386 86.9609375 98.30859375 C82.8805409 108.85181205 76.86054223 115.43445586 67 121 C52.17149022 127.18165836 36.10437794 127.73160598 20.5 124.3125 C19.46214355 124.08977417 19.46214355 124.08977417 18.40332031 123.86254883 C12.03850268 122.31963132 7.21279493 119.8239977 1 117 C0.67 78.39 0.34 39.78 0 0 Z M29 59 C28.19405364 69.62122165 27.84786206 80.24563436 27.76782227 90.89569092 C27.75594879 92.25597595 27.73886569 93.61622556 27.71655273 94.97637939 C27.68661741 96.9098598 27.67883522 98.84364414 27.671875 100.77734375 C27.6625293 101.90390381 27.65318359 103.03046387 27.64355469 104.19116211 C27.7675791 107.00129086 27.7675791 107.00129086 29.36938477 108.8503418 C32.97802908 111.39460083 37.73240924 111.09353624 42 111 C47.66990393 109.91633236 52.01491266 107.16622768 56 103 C61.76182413 92.87538891 62.5791677 81.19563196 59.6953125 69.96484375 C58.00842861 65.19797523 54.87509267 61.19125279 51 58 C43.0525223 54.54457492 36.86516978 56.38863928 29 59 Z " fill="#BD9919" transform="translate(374,407)"/>
<path d="M0 0 C2.97 0 5.94 0 9 0 C8.505 85.14 8.505 85.14 8 172 C1.73 171.67 -4.54 171.34 -11 171 C-51.58109764 169.93663181 -101.91052165 172.45526082 -139 191 C-140.99960012 191.039992 -143.00047242 191.04346799 -145 191 C-144.83984375 189.203125 -144.83984375 189.203125 -144 187 C-141.62890625 185.359375 -141.62890625 185.359375 -138.5625 183.75 C-134.56289674 181.53007969 -130.94402481 179.31155964 -127.4375 176.375 C-117.23948159 167.90965462 -105.85513616 160.65080672 -94.6171875 153.6484375 C-92.75063754 152.47278962 -90.90350342 151.26607829 -89.0703125 150.0390625 C-79.69526941 143.81151589 -69.89609615 138.50727917 -59.97265625 133.20703125 C-55.57127256 130.85566456 -51.20990832 128.44571999 -46.86889648 125.98510742 C-37.14119701 120.47728071 -27.15435584 115.66520896 -17 111 C-15.63777834 110.36901284 -14.27578595 109.73753037 -12.9140625 109.10546875 C-9.94554014 107.73067586 -6.97451597 106.36176225 -4 105 C-2.43628552 86.43421058 -2.43628552 86.43421058 -1.34204102 67.83642578 C-1.19146772 64.70312184 -0.94869365 61.65214488 -0.49072266 58.54711914 C0.23465881 52.84606584 0.12363671 47.14415402 0.09765625 41.40625 C0.0962413 40.21898315 0.09482635 39.03171631 0.09336853 37.80847168 C0.08779811 34.03895484 0.07525105 30.26949871 0.0625 26.5 C0.05748118 23.93489669 0.05291894 21.36979245 0.04882812 18.8046875 C0.03783836 12.53643783 0.02112981 6.26822325 0 0 Z " fill="#D69618" transform="translate(519,138)"/>
<path d="M0 0 C3.3956697 -0.08745946 6.79104773 -0.14054444 10.1875 -0.1875 C11.14720703 -0.21263672 12.10691406 -0.23777344 13.09570312 -0.26367188 C22.13478081 -0.35750313 22.13478081 -0.35750313 26 3 C28.2531382 7.65591556 28.33640126 12.37490479 28.4140625 17.4609375 C28.43342865 18.25150543 28.4527948 19.04207336 28.4727478 19.8565979 C28.53216053 22.36262483 28.57877427 24.86869865 28.625 27.375 C28.66321513 29.08205043 28.70226889 30.78908231 28.7421875 32.49609375 C28.83783011 36.66391044 28.92200115 40.8318173 29 45 C30.03060547 44.47599609 30.03060547 44.47599609 31.08203125 43.94140625 C32.43361328 43.25884766 32.43361328 43.25884766 33.8125 42.5625 C34.70582031 42.11003906 35.59914062 41.65757812 36.51953125 41.19140625 C44.55582325 37.33145497 55.58093836 37.90028823 64.1953125 39.6484375 C73.05739076 42.89879222 79.99887008 49.49759893 84 58 C88.79453404 69.30968714 88.90528187 84.95756004 85.03515625 96.5859375 C79.42362833 109.67244412 71.12404434 117.58967968 58 123 C55.33380422 123.99172516 52.81429076 124.59649915 50 125 C49.09378906 125.13277344 48.18757813 125.26554688 47.25390625 125.40234375 C34.01040045 126.87384439 19.20038537 125.65654231 7 120 C5.97276825 119.54433655 4.9455365 119.0886731 3.88717651 118.61920166 C0.65741064 115.68920826 0.54939095 115.23176593 0.24050903 111.11517334 C0.2053311 109.04289624 0.20338731 106.9699015 0.22705078 104.89746094 C0.21642105 103.76546265 0.20579132 102.63346436 0.19483948 101.46716309 C0.16671628 97.72245229 0.18086812 93.97914374 0.1953125 90.234375 C0.18406665 87.6393307 0.17018791 85.04429657 0.15377808 82.44927979 C0.12135419 76.31522209 0.11550087 70.1816653 0.12250316 64.04754281 C0.12899463 57.06318918 0.10156989 50.07909745 0.07130075 43.09482145 C0.00980408 28.72986537 -0.00911561 14.36507608 0 0 Z M28 59 C28 75.17 28 91.34 28 108 C35.49788156 110.14225187 41.67486654 110.98269273 48.8125 107.375 C55.12447771 102.67195778 57.59299812 97.74068568 59 90 C59.96515952 80.92216816 60.2137117 70.85087982 55 63 C50.93422565 58.50916743 47.55181363 56.17598715 41.375 55.75 C36.11431302 55.85924474 36.11431302 55.85924474 28 59 Z " fill="#519735" transform="translate(183,407)"/>
<path d="M0 0 C3.47954714 3.64476305 5.16950046 7.47911747 6.734375 12.1875 C7.09341919 13.22506943 7.09341919 13.22506943 7.4597168 14.28359985 C7.96913305 15.75864355 8.47411188 17.23522612 8.97497559 18.7131958 C10.27618008 22.5525586 11.60891185 26.38098382 12.9375 30.2109375 C13.19875671 30.96700287 13.46001343 31.72306824 13.72918701 32.50204468 C16.93422929 41.75124346 20.43725813 50.88357228 24 60 C32.48671452 41.18653108 39.65903002 20.79169253 37 0 C40.80985105 -1.26995035 44.40609619 -1.18414789 48.375 -1.1875 C49.13039063 -1.19974609 49.88578125 -1.21199219 50.6640625 -1.22460938 C54.84976647 -1.23558587 58.25957395 -1.10836749 62 1 C65.52830551 6.29245827 64.75936029 12.12165652 63.56347656 18.22949219 C56.22937519 49.74421603 40.72059857 83.59607516 18 107 C17.41734375 107.64453125 16.8346875 108.2890625 16.234375 108.953125 C8.73168861 117.0167599 -2.20797113 123.39314279 -13.3203125 124.16015625 C-18.55205086 124.33975324 -22.6984516 124.33370001 -27 121 C-29.67024848 115.31120977 -28.89673111 110.02264001 -28 104 C-26.741875 104.0825 -25.48375 104.165 -24.1875 104.25 C-15.42369931 104.23617697 -8.3274481 100.84072132 -2 95 C-1.34 95 -0.68 95 0 95 C0.268125 94.4225 0.53625 93.845 0.8125 93.25 C2 91 2 91 3.6875 89.125 C5.24431707 87.05986988 5.24431707 87.05986988 4.8515625 84.49609375 C3.68438001 79.70422069 1.71360646 75.4228565 -0.3125 70.9375 C-4.09291179 62.41481695 -7.755625 53.85400243 -11.29989624 45.23028564 C-15.1651995 35.82665818 -19.04100855 26.42711796 -23 17.0625 C-23.3494165 16.22315918 -23.69883301 15.38381836 -24.05883789 14.51904297 C-25.55547684 11.00152278 -27.05641362 7.76042373 -29.25 4.62109375 C-31 2 -31 2 -31 -1 C-21.09684333 -2.61684191 -9.48102032 -3.75663069 0 0 Z " fill="#D4A82A" transform="translate(494,449)"/>
<path d="M0 0 C6.68853149 7.03908345 8.36580868 14.99807541 8.3671875 24.48828125 C8.38699928 25.76536705 8.38699928 25.76536705 8.4072113 27.06825256 C8.44770553 29.76168135 8.46965088 32.45477569 8.48828125 35.1484375 C7.52109317 52.31198844 7.52109317 52.31198844 12.92578125 67.7734375 C14.86123802 69.24486407 14.86123802 69.24486407 16.92578125 70.2109375 C16.92578125 71.2009375 16.92578125 72.1909375 16.92578125 73.2109375 C6.99450916 76.97507447 -0.9126789 78.99952898 -11.12109375 75.26953125 C-14.21765933 73.5911927 -15.55761563 71.31008301 -17.07421875 68.2109375 C-17.07421875 67.5509375 -17.07421875 66.8909375 -17.07421875 66.2109375 C-18.00363281 66.83742188 -18.93304688 67.46390625 -19.890625 68.109375 C-21.13900764 68.93537253 -22.38772346 69.76086665 -23.63671875 70.5859375 C-24.24580078 70.9984375 -24.85488281 71.4109375 -25.48242188 71.8359375 C-34.48894436 77.7449787 -44.20170801 78.48256185 -54.734375 76.78125 C-60.50601517 75.17746663 -64.6492955 72.12616518 -68.07421875 67.2109375 C-71.4313864 60.41556712 -71.79024048 53.53620525 -70.07421875 46.2109375 C-67.45254663 38.87259634 -62.69954596 34.15531835 -56.07421875 30.2109375 C-52.48420746 28.53385193 -48.88280567 27.29366435 -45.07421875 26.2109375 C-44.295625 25.98535156 -43.51703125 25.75976562 -42.71484375 25.52734375 C-34.94635373 23.63735876 -27.01061624 24.03369785 -19.07421875 24.2109375 C-19.33042559 22.6043699 -19.60477746 21.0006892 -19.88671875 19.3984375 C-20.03753906 18.50511719 -20.18835938 17.61179687 -20.34375 16.69140625 C-21.16068758 13.91731338 -21.77802872 12.92921004 -24.07421875 11.2109375 C-32.96599653 6.73500882 -43.09948474 9.07262451 -52.1015625 12.04296875 C-55.19812782 13.25962188 -58.12379518 14.67636548 -61.07421875 16.2109375 C-65.66647388 5.83736119 -65.66647388 5.83736119 -65.07421875 0.2109375 C-46.52604774 -9.9684275 -17.52661524 -15.11711823 0 0 Z M-42.26171875 41.3359375 C-44.9372668 45.57991027 -45.05112391 49.33441911 -44.07421875 54.2109375 C-41.5094515 58.13823735 -39.84255572 59.00604764 -35.32421875 60.2109375 C-29.61606701 60.58931877 -24.47924105 58.89236178 -19.828125 55.640625 C-17.22564604 52.03540916 -17.59928606 48.85136624 -17.76171875 44.5234375 C-17.77138672 43.73904297 -17.78105469 42.95464844 -17.79101562 42.14648438 C-17.52930658 38.37059337 -17.52930658 38.37059337 -19.07421875 35.2109375 C-27.76558856 34.51002058 -34.98414959 36.48422473 -42.26171875 41.3359375 Z " fill="#659932" transform="translate(349.07421875,453.7890625)"/>
<path d="M0 0 C3.89569135 -0.08732726 7.79112982 -0.14050185 11.6875 -0.1875 C12.79029297 -0.21263672 13.89308594 -0.23777344 15.02929688 -0.26367188 C16.09599609 -0.27333984 17.16269531 -0.28300781 18.26171875 -0.29296875 C19.24100342 -0.3086792 20.22028809 -0.32438965 21.22924805 -0.34057617 C25.06833023 0.13131736 27.88523918 1.58322335 30.29257202 4.64276123 C31.38802018 8.2929319 31.3089827 11.93830137 31.31884766 15.71582031 C31.32889328 16.59422577 31.3389389 17.47263123 31.34928894 18.37765503 C31.3801517 21.2778051 31.39716473 24.17786272 31.4140625 27.078125 C31.43277165 29.09023841 31.45234488 31.10234397 31.4727478 33.11444092 C31.52410165 38.40799322 31.56371004 43.70157096 31.60089111 48.99523926 C31.64091031 54.39793204 31.69201217 59.80051868 31.7421875 65.203125 C31.83898534 75.8020088 31.92337785 86.40095249 32 97 C36.98046512 97.02487171 41.96089342 97.04294081 46.94140625 97.05493164 C48.63281891 97.05993487 50.32422731 97.06673952 52.015625 97.07543945 C54.45834411 97.08768185 56.90100562 97.09326855 59.34375 97.09765625 C60.08991577 97.10281754 60.83608154 97.10797882 61.6048584 97.11329651 C66.48755973 97.11380862 71.16515799 96.69035046 76 96 C78.5349233 101.70357743 78.76776125 107.86616547 78 114 C76.79296875 116.80859375 76.79296875 116.80859375 75 119 C71.08066862 120.12678453 67.2641617 120.12669027 63.20605469 120.12939453 C62.21250473 120.13202301 62.21250473 120.13202301 61.19888306 120.13470459 C59.02318658 120.13908402 56.84757221 120.1362003 54.671875 120.1328125 C53.15683985 120.13348634 51.6418048 120.13445704 50.12677002 120.13571167 C46.95950282 120.13718306 43.7922639 120.13505083 40.625 120.13037109 C36.55709986 120.1246546 32.48926542 120.12796842 28.42136765 120.13394356 C25.29709371 120.13754763 22.1728355 120.13641164 19.0485611 120.13381577 C17.54778282 120.13314708 16.04700313 120.13397291 14.5462265 120.13629532 C12.45623452 120.13882142 10.36635104 120.13498281 8.27636719 120.12939453 C6.4903006 120.12820114 6.4903006 120.12820114 4.66815186 120.12698364 C2 120 2 120 1 119 C0.89201408 117.45688956 0.85316742 115.9088876 0.84178162 114.36204529 C0.8319928 113.35938629 0.82220398 112.35672729 0.81211853 111.32368469 C0.80636307 110.21454208 0.8006076 109.10539948 0.79467773 107.96264648 C0.78477814 106.80182556 0.77487854 105.64100464 0.76467896 104.44500732 C0.73295305 100.58705727 0.70826284 96.72909487 0.68359375 92.87109375 C0.66303378 90.20450911 0.64208634 87.53793036 0.62062073 84.87135315 C0.57064367 78.5567447 0.52572351 72.2421107 0.48259836 65.92745215 C0.43326873 58.74011088 0.37833481 51.55281592 0.32291877 44.3655194 C0.20902181 29.57705684 0.10219965 14.78854814 0 0 Z " fill="#258633" transform="translate(53,410)"/>
<path d="M0 0 C0.33 0 0.66 0 1 0 C3.56391167 30.62835028 -1.85714994 58.70546072 -18 85 C-18.51175781 85.87398438 -19.02351563 86.74796875 -19.55078125 87.6484375 C-20.63561374 89.47249212 -21.8066254 91.24503736 -23 93 C-23.66 93 -24.32 93 -25 93 C-25.268125 93.7425 -25.53625 94.485 -25.8125 95.25 C-26.95276751 97.89061949 -28.09380306 99.85552844 -30 102 C-30.66 102 -31.32 102 -32 102 C-32.37705078 102.86238281 -32.37705078 102.86238281 -32.76171875 103.7421875 C-39.93447483 116.82058817 -57.5716788 126.41311508 -70 134 C-70.90540527 134.56702637 -70.90540527 134.56702637 -71.82910156 135.14550781 C-75.2539859 137.22158193 -76.89377002 138 -81 138 C-81.20302734 137.03126953 -81.20302734 137.03126953 -81.41015625 136.04296875 C-82.9762705 129.18770219 -85.08147603 122.66037532 -87.5 116.0625 C-87.94484741 114.83793091 -87.94484741 114.83793091 -88.39868164 113.58862305 C-89.94939212 109.43151785 -91.70110385 105.80579455 -94 102 C-94 101.01 -94 100.02 -94 99 C-92.84886719 98.67128906 -91.69773437 98.34257812 -90.51171875 98.00390625 C-56.1700317 87.88283617 -31.03665426 69.96673152 -13.5078125 38.3046875 C-7.70176906 27.26418003 -3.06053406 15.30316789 -1.32421875 2.90625 C-1 1 -1 1 0 0 Z " fill="#E8BB43" transform="translate(454,156)"/>
<path d="M0 0 C1.50433594 -0.0309375 1.50433594 -0.0309375 3.0390625 -0.0625 C12.36577234 -0.11197857 12.36577234 -0.11197857 16.25 3.25 C17.73651793 6.22303586 17.37736625 8.90535722 17.37939453 12.22241211 C17.38114685 12.93964951 17.38289917 13.6568869 17.38470459 14.39585876 C17.38911525 16.77304485 17.38618757 19.15015687 17.3828125 21.52734375 C17.38348584 23.17639683 17.38445612 24.82544982 17.38571167 26.47450256 C17.38718764 29.93377628 17.38503759 33.3930242 17.38037109 36.85229492 C17.37467833 41.28889237 17.37795058 45.72542928 17.38394356 50.1620245 C17.38755569 53.56861325 17.3864075 56.97518763 17.38381577 60.38177681 C17.38314807 62.0176653 17.38396943 63.65355509 17.38629532 65.28944206 C17.38883202 67.57572768 17.38496664 69.86191506 17.37939453 72.14819336 C17.37859894 73.45010117 17.37780334 74.75200897 17.37698364 76.09336853 C17.25 79.25 17.25 79.25 16.25 82.25 C7.67 82.25 -0.91 82.25 -9.75 82.25 C-10.43914382 64.52915895 -10.93520567 46.81192333 -11.30056763 29.08166504 C-11.35031851 26.68766661 -11.40182089 24.29370395 -11.45504761 21.89978027 C-11.52990476 18.50097798 -11.59796198 15.10210748 -11.6640625 11.703125 C-11.68792526 10.66273071 -11.71178802 9.62233643 -11.7363739 8.55041504 C-11.75327774 7.60210815 -11.77018158 6.65380127 -11.78759766 5.67675781 C-11.80456696 4.84267395 -11.82153625 4.00859009 -11.83901978 3.14923096 C-11.60269894 -1.89265829 -3.74900614 0.01898231 0 0 Z " fill="#368F35" transform="translate(151.75,446.75)"/>
<path d="M0 0 C0.99 0 1.98 0 3 0 C6.13895639 5.30380613 4.82692434 10.66411203 3.3984375 16.42675781 C2.66739987 18.85585125 1.8589641 21.2381946 1 23.625 C0.69529785 24.48383789 0.3905957 25.34267578 0.07666016 26.22753906 C-3.0553561 34.70609684 -7.28273342 42.31784729 -12 50 C-12.53238281 50.91265625 -13.06476563 51.8253125 -13.61328125 52.765625 C-14.67281519 54.55339319 -15.82266542 56.28751334 -17 58 C-17.66 58 -18.32 58 -19 58 C-19.268125 58.7425 -19.53625 59.485 -19.8125 60.25 C-20.95276751 62.89061949 -22.09380306 64.85552844 -24 67 C-24.66 67 -25.32 67 -26 67 C-26.37705078 67.86238281 -26.37705078 67.86238281 -26.76171875 68.7421875 C-33.93447483 81.82058817 -51.5716788 91.41311508 -64 99 C-64.90540527 99.56702637 -64.90540527 99.56702637 -65.82910156 100.14550781 C-69.2539859 102.22158193 -70.89377002 103 -75 103 C-75.53030068 100.56421213 -76.04952312 98.12694025 -76.5625 95.6875 C-76.78969727 94.65206055 -76.78969727 94.65206055 -77.02148438 93.59570312 C-77.71761569 90.24455934 -78.10155309 88.30465928 -77 85 C-76.12085938 84.87496094 -75.24171875 84.74992187 -74.3359375 84.62109375 C-52.6690346 80.58709192 -31.28479761 62.31557066 -18.77734375 44.90625 C-9.82744702 30.97269209 -4.68076669 15.7740123 0 0 Z " fill="#D79420" transform="translate(448,191)"/>
<path d="M0 0 C2.94740986 1.88574837 5.10235952 4.29268663 6.92578125 7.2421875 C7.72862565 12.50045666 7.80049942 17.52773988 5.36328125 22.3046875 C0.3018629 26.32786619 -4.50054952 27.76986335 -10.8671875 27.53125 C-16.30669219 26.8188193 -20.5805821 24.54204799 -24.07421875 20.2421875 C-25.60922602 15.63716569 -26.03088569 11.50881332 -24.1328125 7.01171875 C-19.17106836 -1.52745847 -9.28377239 -3.39181138 0 0 Z " fill="#5E9E43" transform="translate(163.07421875,408.7578125)"/>
<path d="M0 0 C0.90105469 0.00902344 1.80210937 0.01804688 2.73046875 0.02734375 C3.41753906 0.03894531 4.10460937 0.05054688 4.8125 0.0625 C4.8125 0.3925 4.8125 0.7225 4.8125 1.0625 C1.8425 1.7225 -1.1275 2.3825 -4.1875 3.0625 C-5.13409881 7.049516 -5.30862429 10.75208379 -5.30102539 14.84515381 C-5.30117425 15.5143394 -5.30132311 16.18352499 -5.30147648 16.87298894 C-5.30078386 19.1077412 -5.29295025 21.34241052 -5.28515625 23.57714844 C-5.28323652 25.18215387 -5.28177298 26.7871599 -5.2807312 28.39216614 C-5.27757316 31.84396223 -5.27130924 35.29573378 -5.26266479 38.74752045 C-5.24914552 44.20059527 -5.24324931 49.65366193 -5.23852539 55.10675049 C-5.22742808 66.67534456 -5.20787685 78.24391911 -5.1875 89.8125 C-5.16549761 102.31479463 -5.14492736 114.81708142 -5.13408184 127.31939149 C-5.129085 132.74581254 -5.11920468 138.17219664 -5.10565186 143.59860277 C-5.09822156 146.96487585 -5.09488259 150.33114376 -5.0926857 153.69742393 C-5.09080508 155.26441694 -5.08718725 156.83140892 -5.08175278 158.39839363 C-5.07459557 160.52821362 -5.07349637 162.6579509 -5.07397461 164.78778076 C-5.071754 165.98238293 -5.06953339 167.17698509 -5.06724548 168.40778732 C-5.1875 171.0625 -5.1875 171.0625 -6.1875 172.0625 C-7.5703109 172.09122308 -8.95475438 172.04952958 -10.3359375 171.9765625 C-11.59664062 171.91082031 -11.59664062 171.91082031 -12.8828125 171.84375 C-13.76710938 171.7921875 -14.65140625 171.740625 -15.5625 171.6875 C-16.87734375 171.62175781 -16.87734375 171.62175781 -18.21875 171.5546875 C-24.79730426 171.19256525 -24.79730426 171.19256525 -28.1875 170.0625 C-30.24643621 169.83924186 -32.30983653 169.65544241 -34.375 169.5 C-35.46167969 169.41621094 -36.54835938 169.33242188 -37.66796875 169.24609375 C-38.49941406 169.18550781 -39.33085937 169.12492188 -40.1875 169.0625 C-40.1875 168.7325 -40.1875 168.4025 -40.1875 168.0625 C-29.28713576 167.71024406 -19.18407278 168.90496602 -8.1875 170.0625 C-8.1875 114.2925 -8.1875 58.5225 -8.1875 1.0625 C-5.17259443 0.05753148 -3.14568308 -0.04085303 0 0 Z " fill="#D4B86A" transform="translate(548.1875,155.9375)"/>
<path d="M0 0 C0.33 0 0.66 0 1 0 C2.11089818 13.27072956 1.68390291 25.79319125 0 39 C-3 38 -3 38 -5 36 C-5.16015625 33.94140625 -5.16015625 33.94140625 -5.0625 31.5625 C-4.94884972 28.56312088 -5.03090182 26.90729453 -6 24 C-5.319375 22.7625 -5.319375 22.7625 -4.625 21.5 C-2.73372509 17.42648482 -2.54051645 14.13350082 -2.25 9.703125 C-1.93108463 6.25485254 -1.09224383 3.27673149 0 0 Z " fill="#DD931B" transform="translate(454,156)"/>
<path d="M0 0 C0.69552979 0.03077637 1.39105957 0.06155273 2.10766602 0.09326172 C5.71382673 0.3069273 7.42320783 0.57380522 10.5 2.625 C6.7532344 3.49379579 3.0021914 4.34247243 -0.75 5.1875 C-1.81347656 5.43435547 -2.87695312 5.68121094 -3.97265625 5.93554688 C-5.50986328 6.27875977 -5.50986328 6.27875977 -7.078125 6.62890625 C-8.49206543 6.95097046 -8.49206543 6.95097046 -9.93457031 7.27954102 C-12.49331539 7.62409986 -14.07743919 7.444982 -16.5 6.625 C-15.51 6.625 -14.52 6.625 -13.5 6.625 C-13.5 5.965 -13.5 5.305 -13.5 4.625 C-10.035 4.13 -10.035 4.13 -6.5 3.625 C-6.5 2.965 -6.5 2.305 -6.5 1.625 C-9.12559844 1.9330144 -11.75039806 2.24620182 -14.375 2.5625 C-15.49455078 2.69301758 -15.49455078 2.69301758 -16.63671875 2.82617188 C-20.6953231 3.25826063 -20.6953231 3.25826063 -24.5 4.625 C-26.17654729 4.34557545 -27.84608154 4.01671753 -29.5 3.625 C-29.5 3.295 -29.5 2.965 -29.5 2.625 C-31.4587043 2.76576315 -33.41696093 2.9127676 -35.375 3.0625 C-36.46554687 3.14371094 -37.55609375 3.22492187 -38.6796875 3.30859375 C-41.44728971 3.45501703 -41.44728971 3.45501703 -43.5 4.625 C-45.17654729 4.34557545 -46.84608154 4.01671753 -48.5 3.625 C-48.5 3.295 -48.5 2.965 -48.5 2.625 C-32.4999517 -0.55034677 -16.24637551 -0.83761025 0 0 Z " fill="#EBBD4D" transform="translate(319.5,26.375)"/>
<path d="M0 0 C0.91007813 0.00902344 1.82015625 0.01804688 2.7578125 0.02734375 C3.45648437 0.03894531 4.15515625 0.05054688 4.875 0.0625 C4.875 0.3925 4.875 0.7225 4.875 1.0625 C1.905 1.7225 -1.065 2.3825 -4.125 3.0625 C-4.88288031 6.42845043 -5.24443738 9.51855101 -5.22265625 12.96606445 C-5.21935303 13.91508133 -5.2160498 14.86409821 -5.21264648 15.84187317 C-5.20434814 16.85956284 -5.1960498 17.8772525 -5.1875 18.92578125 C-5.18371338 19.99056198 -5.17992676 21.05534271 -5.17602539 22.15238953 C-5.15977825 26.69091624 -5.13192484 31.22935142 -5.10449219 35.76782227 C-5.03373419 48.57781281 -5.04912903 61.29013451 -6.125 74.0625 C-6.455 74.0625 -6.785 74.0625 -7.125 74.0625 C-7.125 49.9725 -7.125 25.8825 -7.125 1.0625 C-4.60024538 -0.19987731 -2.81299534 -0.03606404 0 0 Z " fill="#E7B639" transform="translate(548.125,155.9375)"/>
<path d="M0 0 C24 0 24 0 28 2 C27.34 2.66 26.68 3.32 26 4 C25.01 3.67 24.02 3.34 23 3 C21.53085066 2.90811315 20.05795597 2.86933285 18.5859375 2.8671875 C17.74289063 2.86589844 16.89984375 2.86460937 16.03125 2.86328125 C14.71640625 2.86908203 14.71640625 2.86908203 13.375 2.875 C12.04855469 2.86919922 12.04855469 2.86919922 10.6953125 2.86328125 C9.85484375 2.86457031 9.014375 2.86585938 8.1484375 2.8671875 C6.99093994 2.86887939 6.99093994 2.86887939 5.81005859 2.87060547 C3.97875951 2.8029448 3.97875951 2.8029448 3 4 C2.92413507 5.83839701 2.91698602 7.67968391 2.9375 9.51953125 C2.94587891 10.6787207 2.95425781 11.83791016 2.96289062 13.03222656 C2.97513672 14.2797168 2.98738281 15.52720703 3 16.8125 C3.06626067 28.57979231 2.75749738 40.25879067 2 52 C1.67 52 1.34 52 1 52 C0.67 34.84 0.34 17.68 0 0 Z " fill="#5BA850" transform="translate(53,410)"/>
<path d="M0 0 C1.48831242 0.00667405 2.97660807 0.01863442 4.46484375 0.03515625 C5.22345703 0.03966797 5.98207031 0.04417969 6.76367188 0.04882812 C8.64326246 0.06064945 10.52281274 0.07858547 12.40234375 0.09765625 C12.40234375 0.42765625 12.40234375 0.75765625 12.40234375 1.09765625 C7.45234375 1.09765625 2.50234375 1.09765625 -2.59765625 1.09765625 C-2.43612061 2.22252441 -2.27458496 3.34739258 -2.1081543 4.50634766 C-1.52425267 9.1993226 -1.436042 13.83401091 -1.4296875 18.55859375 C-1.4263591 19.43037262 -1.4230307 20.30215149 -1.41960144 21.2003479 C-1.4145721 23.02727739 -1.41219187 24.85421594 -1.41235352 26.68115234 C-1.41014614 29.48550132 -1.39189219 32.28946936 -1.37304688 35.09375 C-1.37011634 36.87369658 -1.36812927 38.65364501 -1.3671875 40.43359375 C-1.36000198 41.27312592 -1.35281647 42.11265808 -1.34541321 42.97763062 C-1.36880456 48.86880456 -1.36880456 48.86880456 -3.59765625 51.09765625 C-4.28633821 38.47243092 -4.70235497 25.86781381 -4.72265625 13.22265625 C-4.72716797 12.03438232 -4.73167969 10.8461084 -4.73632812 9.62182617 C-4.73439453 8.52330322 -4.73246094 7.42478027 -4.73046875 6.29296875 C-4.72934082 5.31344238 -4.72821289 4.33391602 -4.72705078 3.32470703 C-4.50997845 -0.41139441 -3.90474385 0.10599196 0 0 Z " fill="#74B161" transform="translate(40.59765625,154.90234375)"/>
<path d="M0 0 C0.33 0 0.66 0 1 0 C1 21.12 1 42.24 1 64 C-5.15616802 54.76574797 -1.99573375 36.29925195 -1.703125 25.53125 C-1.62381396 22.5808794 -1.55732683 19.63040183 -1.4921875 16.6796875 C-1.44605542 14.79946079 -1.39920813 12.91925146 -1.3515625 11.0390625 C-1.32178818 9.7189769 -1.32178818 9.7189769 -1.29141235 8.3722229 C-1.11552668 2.23105335 -1.11552668 2.23105335 0 0 Z " fill="#268C38" transform="translate(38,204)"/>
<path d="M0 0 C0 0.99 0 1.98 0 3 C-0.99 3.33 -1.98 3.66 -3 4 C-3.33 4.66 -3.66 5.32 -4 6 C-6.36494424 7.05862217 -8.70564033 8.02100593 -11.125 8.9375 C-12.44044271 9.44573923 -13.75554863 9.95485102 -15.0703125 10.46484375 C-15.72088623 10.71435791 -16.37145996 10.96387207 -17.04174805 11.22094727 C-19.0003075 12.00012233 -20.91698749 12.84794697 -22.83984375 13.7109375 C-26 15 -26 15 -28.4375 14.6875 C-28.953125 14.460625 -29.46875 14.23375 -30 14 C-29.34 14 -28.68 14 -28 14 C-27.6596875 13.071875 -27.6596875 13.071875 -27.3125 12.125 C-25.57641974 9.31420339 -24.07819238 9.14953242 -21 8 C-18.82832624 7.01092086 -16.66191154 6.01023904 -14.5 5 C-3.8 0 -3.8 0 0 0 Z " fill="#DCAB3C" transform="translate(373,327)"/>
<path d="M0 0 C0.33 0 0.66 0 1 0 C1.01981934 0.75506836 1.03963867 1.51013672 1.06005859 2.28808594 C1.15649239 5.77568593 1.26568279 9.26278097 1.375 12.75 C1.4059375 13.93722656 1.436875 15.12445313 1.46875 16.34765625 C1.83743561 27.5925674 3.38078632 38.05233041 6.875 48.75 C7.11863281 49.53503906 7.36226562 50.32007813 7.61328125 51.12890625 C8.87652435 55.07572278 10.30599551 58.76105004 12.1953125 62.453125 C14 66 14 66 14 68 C13.34 68 12.68 68 12 68 C4 51.36758893 4 51.36758893 4 43 C3.34 43 2.68 43 2 43 C-1.35652424 28.56368699 -0.95098457 14.67442337 0 0 Z " fill="#F5DB8B" transform="translate(215,133)"/>
<path d="M0 0 C0.91644287 0.00523682 1.83288574 0.01047363 2.77709961 0.01586914 C3.76645508 0.0190918 4.75581055 0.02231445 5.77514648 0.02563477 C6.81606445 0.03401367 7.85698242 0.04239258 8.92944336 0.05102539 C10.49662109 0.05779297 10.49662109 0.05779297 12.09545898 0.06469727 C14.68600996 0.07652627 17.27644895 0.0930085 19.86694336 0.11352539 C19.53694336 0.77352539 19.20694336 1.43352539 18.86694336 2.11352539 C12.59694336 2.11352539 6.32694336 2.11352539 -0.13305664 2.11352539 C-0.46305664 18.94352539 -0.79305664 35.77352539 -1.13305664 53.11352539 C-1.46305664 53.11352539 -1.79305664 53.11352539 -2.13305664 53.11352539 C-2.30086946 45.72638094 -2.46083535 38.33909707 -2.61523438 30.95166016 C-2.66874531 28.43632113 -2.72408133 25.92102027 -2.78125 23.40576172 C-2.86290799 19.79931878 -2.93809304 16.19279143 -3.01196289 12.58618164 C-3.03899796 11.4539064 -3.06603302 10.32163116 -3.09388733 9.15504456 C-3.11398361 8.11404099 -3.1340799 7.07303741 -3.15478516 6.00048828 C-3.17477066 5.07893448 -3.19475616 4.15738068 -3.21534729 3.207901 C-3.10269856 0.3408832 -2.86242921 0.15234401 0 0 Z " fill="#A1CB98" transform="translate(143.133056640625,446.886474609375)"/>
<path d="M0 0 C2.45966312 3.68949468 2.26183709 6.42519722 2.1875 10.6875 C2.18105469 11.45755371 2.17460938 12.22760742 2.16796875 13.02099609 C2.03372712 23.68691273 1.51001464 34.34666238 1 45 C0.34 45 -0.32 45 -1 45 C-1.02527124 38.75204325 -1.04283344 32.50409959 -1.05493164 26.25610352 C-1.05997298 24.12881986 -1.06680591 22.00153969 -1.07543945 19.87426758 C-1.08751379 16.82372174 -1.09323014 13.77322155 -1.09765625 10.72265625 C-1.10281754 9.76537125 -1.10797882 8.80808624 -1.11329651 7.8217926 C-1.11337204 6.94095505 -1.11344757 6.06011749 -1.11352539 5.15258789 C-1.115746 4.37315323 -1.11796661 3.59371857 -1.12025452 2.79066467 C-1 1 -1 1 0 0 Z " fill="#72B083" transform="translate(37,271)"/>
<path d="M0 0 C0.66 0 1.32 0 2 0 C2.0501123 0.69859131 2.10022461 1.39718262 2.15185547 2.11694336 C3.14194991 15.78630842 4.22063536 29.40868289 6 43 C-1.80101601 31.29847599 -0.14110025 13.51426856 0 0 Z " fill="#9BC063" transform="translate(137,156)"/>
<path d="M0 0 C2.03714088 3.05571131 2.27934659 3.91052203 2.44921875 7.39453125 C2.49312744 8.26182861 2.53703613 9.12912598 2.58227539 10.02270508 C2.61699951 10.9433374 2.65172363 11.86396973 2.6875 12.8125 C2.7280249 13.74924561 2.7685498 14.68599121 2.81030273 15.65112305 C3.08422057 23.17193992 2.81795215 30.51259187 2 38 C-0.49336211 34.25995683 -0.25481228 31.37438391 -0.1953125 27.05078125 C-0.1924826 26.27816452 -0.18965271 25.50554779 -0.18673706 24.70951843 C-0.17554878 22.24368757 -0.15044703 19.77822094 -0.125 17.3125 C-0.11496843 15.63997921 -0.10584289 13.96745272 -0.09765625 12.29492188 C-0.07561392 8.19647441 -0.04109363 4.09829894 0 0 Z " fill="#CA9F1D" transform="translate(375,410)"/>
<path d="M0 0 C0.99 0.33 1.98 0.66 3 1 C2.67 2.32 2.34 3.64 2 5 C3.175625 4.690625 4.35125 4.38125 5.5625 4.0625 C12.85806955 2.14261328 19.94394488 1.86736593 27.4375 1.9375 C28.35982422 1.94201172 29.28214844 1.94652344 30.23242188 1.95117188 C32.48835048 1.96286062 34.74413967 1.97924545 37 2 C37 2.33 37 2.66 37 3 C36.19369141 3.08564209 35.38738281 3.17128418 34.55664062 3.25952148 C30.87101278 3.65142376 27.18550588 4.0444525 23.5 4.4375 C22.2315625 4.57220703 20.963125 4.70691406 19.65625 4.84570312 C18.41875 4.97783203 17.18125 5.10996094 15.90625 5.24609375 C14.71 5.3735498 13.51375 5.50100586 12.28125 5.63232422 C9.56536793 5.9366485 6.86274412 6.28378441 4.15625 6.66015625 C3.1146875 6.77230469 2.073125 6.88445312 1 7 C0 6 0 6 -0.0625 2.9375 C-0.041875 1.968125 -0.02125 0.99875 0 0 Z " fill="#3B8755" transform="translate(36,342)"/>
<path d="M0 0 C0.33 0 0.66 0 1 0 C1.77165796 11.13561789 2.17998423 21.87184104 1 33 C0.67 33 0.34 33 0 33 C-0.33 27.39 -0.66 21.78 -1 16 C-1.66 16 -2.32 16 -3 16 C-2.52013969 10.43109483 -1.70084819 5.32932432 0 0 Z " fill="#EBB654" transform="translate(454,156)"/>
<path d="M0 0 C-0.33 0.66 -0.66 1.32 -1 2 C-11.9907118 2.07288673 -22.95312853 1.85057756 -33.9375 1.5 C-35.507155 1.45161299 -37.07681646 1.4034349 -38.64648438 1.35546875 C-42.43106796 1.23937551 -46.21555418 1.12049722 -50 1 C-50 0.67 -50 0.34 -50 0 C-33.27002645 -0.73927037 -16.72264439 -1.27879045 0 0 Z " fill="#988631" transform="translate(526,342)"/>
<path d="M0 0 C0.33 0 0.66 0 1 0 C1.3718693 5.09770828 0.23363859 8.31465455 -2 12.875 C-2.556875 14.02742187 -3.11375 15.17984375 -3.6875 16.3671875 C-4.120625 17.23601562 -4.55375 18.10484375 -5 19 C-5.66 19 -6.32 19 -7 19 C-7.12375 19.7425 -7.2475 20.485 -7.375 21.25 C-7.95486701 23.80141485 -8.73708739 25.7267573 -10 28 C-10.66 28 -11.32 28 -12 28 C-10.71014121 23.84788314 -9.13446437 20.10234102 -7.125 16.25 C-4.41779633 10.94175751 -2.0967539 5.5748986 0 0 Z " fill="#F5DD86" transform="translate(456,221)"/>
<path d="M0 0 C0 0.99 0 1.98 0 3 C-0.99 3.33 -1.98 3.66 -3 4 C-3.33 4.66 -3.66 5.32 -4 6 C-8.4025955 7.9453329 -11.33774127 8.1100616 -16 7 C-14.49135291 3.98270581 -12.19537486 3.63407458 -9.125 2.375 C-8.05507813 1.92898438 -6.98515625 1.48296875 -5.8828125 1.0234375 C-3 0 -3 0 0 0 Z " fill="#DBA738" transform="translate(373,327)"/>
<path d="M0 0 C0.99 0.33 1.98 0.66 3 1 C2.55269531 1.4846875 2.10539063 1.969375 1.64453125 2.46875 C-2.08458649 6.60337948 -5.25686616 10.71380928 -8.0546875 15.53125 C-8.52261719 16.25828125 -8.52261719 16.25828125 -9 17 C-9.33 17 -9.66 17 -10 17 C-10.60420514 13.63371422 -10.36167218 11.58042552 -8.546875 8.66796875 C-5.89128061 5.21458025 -3.64661251 2.43107501 0 0 Z " fill="#E1B346" transform="translate(241,69)"/>
<path d="M0 0 C-4.20982312 2.25735559 -8.42694728 3.16760476 -13.0625 4.1875 C-13.87783203 4.37763672 -14.69316406 4.56777344 -15.53320312 4.76367188 C-16.70979492 5.02567383 -16.70979492 5.02567383 -17.91015625 5.29296875 C-18.97955444 5.53309692 -18.97955444 5.53309692 -20.07055664 5.77807617 C-22 6 -22 6 -25 5 C-24.34 4.01 -23.68 3.02 -23 2 C-19.875 1.8125 -19.875 1.8125 -17 2 C-17 1.67 -17 1.34 -17 1 C-11.29309366 0.00749455 -5.78591511 -0.10477512 0 0 Z " fill="#DC9912" transform="translate(294,28)"/>
<path d="M0 0 C0.66 0 1.32 0 2 0 C2.82421875 1.64453125 2.82421875 1.64453125 3 4 C1.32875964 6.12894943 -0.24017275 7.84740979 -2.1875 9.6875 C-2.68314453 10.18572266 -3.17878906 10.68394531 -3.68945312 11.19726562 C-6.2888765 13.72801203 -8.30564339 15.62086555 -12 16 C-8.60139593 11.29334213 -5.11187266 7.11187266 -1 3 C-0.67 2.01 -0.34 1.02 0 0 Z " fill="#DEAE52" transform="translate(263,208)"/>
<path d="M0 0 C1.32 1.32 2.64 2.64 4 4 C1.85204996 8.4585209 -0.56530239 12.68327724 -3.1875 16.875 C-3.55552734 17.46796875 -3.92355469 18.0609375 -4.30273438 18.671875 C-5.19950507 20.11602522 -6.09942264 21.55822056 -7 23 C-8.65 21.35 -10.3 19.7 -12 18 C-10.35 18.33 -8.7 18.66 -7 19 C-6.79375 18.34 -6.5875 17.68 -6.375 17 C-5.08588792 14.18739182 -3.7634708 12.4208661 -1.8125 10.0625 C0.78086311 6.76684935 0.78086311 6.76684935 0.875 2.5 C0.58625 1.675 0.2975 0.85 0 0 Z " fill="#F4DE88" transform="translate(239,216)"/>
<path d="M0 0 C1.13598633 0.00483398 1.13598633 0.00483398 2.29492188 0.00976562 C3.47344727 0.02233398 3.47344727 0.02233398 4.67578125 0.03515625 C5.47306641 0.03966797 6.27035156 0.04417969 7.09179688 0.04882812 C9.05732382 0.06059775 11.0228121 0.07853277 12.98828125 0.09765625 C13.31828125 0.75765625 13.64828125 1.41765625 13.98828125 2.09765625 C13.10785156 2.08605469 12.22742188 2.07445312 11.3203125 2.0625 C10.15886719 2.05347656 8.99742187 2.04445313 7.80078125 2.03515625 C6.65222656 2.02355469 5.50367188 2.01195312 4.3203125 2 C1.39527539 2.08572793 -1.17488166 2.41916602 -4.01171875 3.09765625 C-4.01171875 5.73765625 -4.01171875 8.37765625 -4.01171875 11.09765625 C-4.67171875 10.76765625 -5.33171875 10.43765625 -6.01171875 10.09765625 C-6.42578125 8.03125 -6.42578125 8.03125 -6.63671875 5.53515625 C-6.71148438 4.70886719 -6.78625 3.88257813 -6.86328125 3.03125 C-6.91226563 2.39316406 -6.96125 1.75507813 -7.01171875 1.09765625 C-4.30455633 0.19526878 -2.77395107 -0.02085677 0 0 Z " fill="#F2CF65" transform="translate(538.01171875,447.90234375)"/>
<path d="M0 0 C0.99 0.33 1.98 0.66 3 1 C2.54625 1.4125 2.0925 1.825 1.625 2.25 C-0.09501375 3.89489923 -0.09501375 3.89489923 -0.8125 6 C-2.58515386 8.9855223 -4.82892896 9.77040102 -8 11 C-8.99 10.67 -9.98 10.34 -11 10 C-9.54474941 8.51780033 -8.085701 7.03932861 -6.625 5.5625 C-5.81289063 4.73878906 -5.00078125 3.91507812 -4.1640625 3.06640625 C-2 1 -2 1 0 0 Z " fill="#E0AF3D" transform="translate(339,329)"/>
<path d="M0 0 C-4.41225737 1.47075246 -7.48281619 2.36884358 -12 1 C-12 0.67 -12 0.34 -12 0 C-13.9587043 0.14076315 -15.91696093 0.2877676 -17.875 0.4375 C-18.96554687 0.51871094 -20.05609375 0.59992187 -21.1796875 0.68359375 C-23.94728971 0.83001703 -23.94728971 0.83001703 -26 2 C-27.67654729 1.72057545 -29.34608154 1.39171753 -31 1 C-31 0.67 -31 0.34 -31 0 C-7.71024405 -4.85745375 -7.71024405 -4.85745375 0 0 Z " fill="#E6B447" transform="translate(302,29)"/>
<path d="M0 0 C0.66 0.66 1.32 1.32 2 2 C-3.28 2 -8.56 2 -14 2 C-14.66 3.32 -15.32 4.64 -16 6 C-18.625 7.25 -18.625 7.25 -21 8 C-20.13140377 4.78619394 -19.33164598 3.25993874 -16.6875 1.1875 C-11.21835971 -0.57374857 -5.70174435 -0.60640099 0 0 Z " fill="#AED298" transform="translate(161,408)"/>
<path d="M0 0 C0.66 0.33 1.32 0.66 2 1 C1.67 4.3 1.34 7.6 1 11 C0.34 11 -0.32 11 -1 11 C-0.938125 12.2375 -0.87625 13.475 -0.8125 14.75 C-0.79637174 17.78211302 -0.89348977 18.82248296 -2.5 21.5 C-2.995 21.995 -3.49 22.49 -4 23 C-3.20736384 15.23216563 -1.58110513 7.6370361 0 0 Z " fill="#F7E394" transform="translate(463,191)"/>
<path d="M0 0 C0.91007813 0.00902344 1.82015625 0.01804688 2.7578125 0.02734375 C3.45648437 0.03894531 4.15515625 0.05054688 4.875 0.0625 C4.875 0.3925 4.875 0.7225 4.875 1.0625 C1.905 1.7225 -1.065 2.3825 -4.125 3.0625 C-5.00367729 6.79687848 -5.21412219 10.23024573 -5.125 14.0625 C-5.785 14.0625 -6.445 14.0625 -7.125 14.0625 C-7.125 9.7725 -7.125 5.4825 -7.125 1.0625 C-4.60024538 -0.19987731 -2.81299534 -0.03606404 0 0 Z " fill="#EEC24E" transform="translate(548.125,155.9375)"/>
<path d="M0 0 C2.06723714 3.10085571 2.24497423 3.72931681 2.1953125 7.23046875 C2.18886719 8.03291016 2.18242188 8.83535156 2.17578125 9.66210938 C2.15902344 10.49548828 2.14226563 11.32886719 2.125 12.1875 C2.11597656 13.03248047 2.10695312 13.87746094 2.09765625 14.74804688 C2.07410703 16.83215243 2.03823647 18.91611217 2 21 C1.34 21.33 0.68 21.66 0 22 C-0.911572 17.34808893 -1.13429756 12.9246071 -1.125 8.1875 C-1.12886719 7.50751953 -1.13273437 6.82753906 -1.13671875 6.12695312 C-1.12674825 1.12674825 -1.12674825 1.12674825 0 0 Z " fill="#5CA771" transform="translate(37,271)"/>
<path d="M0 0 C0.99 0.33 1.98 0.66 3 1 C2.87431641 1.87011719 2.87431641 1.87011719 2.74609375 2.7578125 C2.14616362 7.35980822 1.67354492 11.46794513 3 16 C3.99 16.66 4.98 17.32 6 18 C4.35 17.67 2.7 17.34 1 17 C-1.20927172 11.02197063 -0.93213141 6.26039609 0 0 Z " fill="#AA8A2E" transform="translate(466,553)"/>
<path d="M0 0 C2.37507855 -0.02719556 4.74983964 -0.04693247 7.125 -0.0625 C8.12273437 -0.07506836 8.12273437 -0.07506836 9.140625 -0.08789062 C13.20681354 -0.10782292 17.0120092 0.21109839 21 1 C21 1.33 21 1.66 21 2 C14.4 2.33 7.8 2.66 1 3 C0.67 2.01 0.34 1.02 0 0 Z " fill="#EBC45C" transform="translate(471,447)"/>
<path d="M0 0 C0.66 0.99 1.32 1.98 2 3 C0.515 5.475 0.515 5.475 -1 8 C-0.67 8.33 -0.34 8.66 0 9 C0.04080783 10.99958364 0.04254356 13.00045254 0 15 C-1.32 15.33 -2.64 15.66 -4 16 C-3.71653722 14.08210287 -3.4228972 12.16570817 -3.125 10.25 C-2.88136719 8.64898437 -2.88136719 8.64898437 -2.6328125 7.015625 C-2.06776118 4.32291129 -1.36577086 2.36427561 0 0 Z " fill="#EDC25C" transform="translate(450,172)"/>
<path d="M0 0 C2.1015625 0.42578125 2.1015625 0.42578125 4 1 C3.07213211 2.00894372 2.13231567 3.00690907 1.1875 4 C0.40439453 4.8353125 0.40439453 4.8353125 -0.39453125 5.6875 C-2 7 -2 7 -5 7 C-3.7251791 4.15616877 -2.54862922 1.86245982 0 0 Z " fill="#E4B74E" transform="translate(327,340)"/>
<path d="M0 0 C0.66 0 1.32 0 2 0 C-1.07517084 10.55808656 -1.07517084 10.55808656 -3 15 C-3.33 15 -3.66 15 -4 15 C-4.59720137 9.17728663 -2.528243 5.0790596 0 0 Z " fill="#ECC968" transform="translate(224,95)"/>
<path d="M0 0 C0.66 0 1.32 0 2 0 C2.19622241 4.21878192 1.80230168 7.17010894 0 11 C-0.99 11 -1.98 11 -3 11 C-2.5020163 7.26512223 -2.12508244 5.18762365 0 2 C0 1.34 0 0.68 0 0 Z " fill="#E4A92B" transform="translate(451,172)"/>
<path d="M0 0 C0.33 0 0.66 0 1 0 C1.24959784 2.0809844 1.47394907 4.16500812 1.6875 6.25 C1.81511719 7.41015625 1.94273437 8.5703125 2.07421875 9.765625 C1.99254989 13.32466794 1.42472438 14.48177725 -1 17 C-1.10477512 11.21408489 -0.99250545 5.70690634 0 0 Z " fill="#D18510" transform="translate(155,149)"/>
<path d="M0 0 C0.66 0.99 1.32 1.98 2 3 C1.25 4.9375 1.25 4.9375 0 7 C-2.125 7.75 -2.125 7.75 -4 8 C-2.25 2.25 -2.25 2.25 0 0 Z " fill="#E1C165" transform="translate(317,353)"/>
<path d="M0 0 C3.0916909 2.52956528 3.90931332 5.22454612 5 9 C0.125 7.25 0.125 7.25 -1 5 C-0.72057545 3.32345271 -0.39171753 1.65391846 0 0 Z " fill="#81B36C" transform="translate(285,353)"/>
<path d="M0 0 C2.31 0 4.62 0 7 0 C6.67 0.66 6.34 1.32 6 2 C5.01 2.33 4.02 2.66 3 3 C2.26676204 5.01508358 2.26676204 5.01508358 2 7 C1.34 7 0.68 7 0 7 C0 4.69 0 2.38 0 0 Z " fill="#7BAF50" transform="translate(183,407)"/>
<path d="M0 0 C0.66 0 1.32 0 2 0 C0.5361389 4.39158329 -1.97831338 4.87947433 -6 7 C-6.33 5.02 -6.66 3.04 -7 1 C-6.01 1.495 -6.01 1.495 -5 2 C-2.22641138 1.55641508 -2.22641138 1.55641508 0 0 Z " fill="#DAAE4A" transform="translate(325,351)"/>
<path d="M0 0 C0.66 0.33 1.32 0.66 2 1 C-0.51830747 4.12270126 -1.7261549 4.94523098 -5.75 5.75 C-7.35875 5.87375 -7.35875 5.87375 -9 6 C-6.12050853 3.76039553 -3.23257974 1.70135776 0 0 Z " fill="#4E8C57" transform="translate(332,359)"/>
<path d="M0 0 C0 0.66 0 1.32 0 2 C-6.75 5.875 -6.75 5.875 -9 7 C-9.33 6.01 -9.66 5.02 -10 4 C-8.71086513 3.32845067 -7.41859796 2.66291141 -6.125 2 C-5.40570313 1.62875 -4.68640625 1.2575 -3.9453125 0.875 C-2 0 -2 0 0 0 Z " fill="#F6DC80" transform="translate(475,147)"/>
<path d="M0 0 C0.99 0.33 1.98 0.66 3 1 C1.02 3.31 -0.96 5.62 -3 8 C-3.66 6.68 -4.32 5.36 -5 4 C-2.6875 1.9375 -2.6875 1.9375 0 0 Z " fill="#E7C15A" transform="translate(241,69)"/>
<path d="M0 0 C0.99 0.33 1.98 0.66 3 1 C2.67 2.32 2.34 3.64 2 5 C4.31 5 6.62 5 9 5 C9 5.33 9 5.66 9 6 C2.84765625 6.87890625 2.84765625 6.87890625 1 7 C0 6 0 6 -0.0625 2.9375 C-0.041875 1.968125 -0.02125 0.99875 0 0 Z " fill="#6FAF85" transform="translate(36,342)"/>
<path d="M0 0 C1.32 0 2.64 0 4 0 C2.9024777 2.99324263 2.32317108 3.84610901 -0.625 5.25 C-1.40875 5.4975 -2.1925 5.745 -3 6 C-1.125 1.125 -1.125 1.125 0 0 Z " fill="#9AC78B" transform="translate(143,410)"/>
<path d="M0 0 C4.95 0 9.9 0 15 0 C15 0.99 15 1.98 15 3 C7.575 2.01 7.575 2.01 0 1 C0 0.67 0 0.34 0 0 Z " fill="#539E3A" transform="translate(65,411)"/>
<path d="M0 0 C-3.1254959 2.64465038 -6.08788267 3.84414715 -10 5 C-8.20177069 -0.39468792 -5.09771267 -0.22656501 0 0 Z " fill="#669361" transform="translate(354,367)"/>
<path d="M0 0 C8.57142857 1.85714286 8.57142857 1.85714286 12 5 C11.01 5.33 10.02 5.66 9 6 C7.30712215 5.04504326 5.64142963 4.0409066 4 3 C1.80869466 2.30420546 1.80869466 2.30420546 0 2 C0 1.34 0 0.68 0 0 Z " fill="#E5B943" transform="translate(435,447)"/>
<path d="M0 0 C2 2 2 2 2.125 4.625 C2.08375 5.40875 2.0425 6.1925 2 7 C0.68 6.34 -0.64 5.68 -2 5 C-1.125 1.125 -1.125 1.125 0 0 Z " fill="#DBAB53" transform="translate(379,122)"/>
<path d="M0 0 C-6.4 3.07692308 -6.4 3.07692308 -9.4375 2.6875 C-9.953125 2.460625 -10.46875 2.23375 -11 2 C-10.01 2 -9.02 2 -8 2 C-8 1.34 -8 0.68 -8 0 C-4.94736336 -0.98120464 -3.05263664 -0.98120464 0 0 Z " fill="#E8C367" transform="translate(314,31)"/>
<path d="M0 0 C0.33 0 0.66 0 1 0 C1.0270043 1.45823212 1.04639787 2.91660675 1.0625 4.375 C1.07410156 5.18710937 1.08570313 5.99921875 1.09765625 6.8359375 C1 9 1 9 0 11 C-0.66 11 -1.32 11 -2 11 C-1.34 7.37 -0.68 3.74 0 0 Z " fill="#ECC85B" transform="translate(530,474)"/>
<path d="M0 0 C2.31 0 4.62 0 7 0 C6.67 0.66 6.34 1.32 6 2 C3.4375 2.625 3.4375 2.625 1 3 C0.67 3.99 0.34 4.98 0 6 C0 4.02 0 2.04 0 0 Z " fill="#E0B84A" transform="translate(374,407)"/>
<path d="M0 0 C0 0.99 0 1.98 0 3 C-1.98 3.66 -3.96 4.32 -6 5 C-6.66 4.34 -7.32 3.68 -8 3 C-2.25 0 -2.25 0 0 0 Z " fill="#D79B19" transform="translate(365,330)"/>
<path d="M0 0 C-1.37154504 2.95409701 -2.98863724 5.44008376 -5 8 C-5.1875 5.125 -5.1875 5.125 -5 2 C-2 0 -2 0 0 0 Z " fill="#7AAE4D" transform="translate(289,452)"/>
<path d="M0 0 C0.99 0.33 1.98 0.66 3 1 C-0.465 3.97 -0.465 3.97 -4 7 C-3.04065919 3.16263678 -2.76390737 2.40339772 0 0 Z " fill="#EECF73" transform="translate(249,61)"/>
<path d="M0 0 C3 1.8125 3 1.8125 6 4 C6 4.99 6 5.98 6 7 C5.34 7 4.68 7 4 7 C0 2.52941176 0 2.52941176 0 0 Z " fill="#E6BC47" transform="translate(447,452)"/>
<path d="M0 0 C0 0.33 0 0.66 0 1 C-5.16044765 2.512545 -8.65998179 3.33500455 -14 2 C-14 1.67 -14 1.34 -14 1 C-9.23692563 0.04738513 -4.8333472 -0.08333357 0 0 Z " fill="#B2AD79" transform="translate(438,327)"/>
<path d="M0 0 C6.625 -0.25 6.625 -0.25 10 2 C7.36 2.33 4.72 2.66 2 3 C1.34 2.01 0.68 1.02 0 0 Z " fill="#F4D189" transform="translate(320,27)"/>
</svg>
