<svg version="1.1" id="Layer_1" xmlns="http://www.w3.org/2000/svg" xmlns:xlink="http://www.w3.org/1999/xlink" x="0px" y="0px"
	 width="100%" viewBox="0 0 1024 1024" enable-background="new 0 0 1024 1024" xml:space="preserve">
<path fill="#59AFAE" opacity="1.000000" stroke="none" 
	d="
M0.999995,877.000000 
	C1.000000,634.638611 1.000000,392.277252 1.000499,149.044937 
	C1.425302,145.904510 1.957045,143.649200 2.258299,141.363510 
	C11.396606,72.029198 59.343788,19.379423 126.898018,4.639392 
	C133.546829,3.188648 140.296921,2.202038 147.000000,1.000000 
	C391.361359,1.000000 635.722717,1.000000 880.912476,1.121103 
	C883.535156,1.585507 885.319275,1.999970 887.125427,2.261820 
	C953.080750,11.823689 1004.471497,57.973125 1020.285217,122.086166 
	C1022.306274,130.279938 1023.449890,138.690094 1025.000000,147.000000 
	C1025.000000,390.361359 1025.000000,633.722717 1024.999512,877.952454 
	C1024.399902,882.036560 1023.643127,885.232056 1023.227844,888.471375 
	C1020.836182,907.128174 1015.424805,924.882446 1006.010376,941.133423 
	C1000.733582,950.242126 994.070984,958.547852 987.816772,966.943359 
	C978.805969,962.021240 972.507996,955.116272 969.077332,945.175415 
	C964.637390,957.029724 956.978638,964.735413 945.101440,969.161865 
	C955.675232,972.306091 962.004272,979.526367 967.015015,988.323853 
	C952.853333,1001.030823 936.784180,1010.034790 919.139954,1015.775330 
	C907.040344,1019.711975 894.399109,1021.983948 882.000000,1025.000000 
	C635.638611,1025.000000 389.277252,1025.000000 142.207611,1024.695068 
	C137.608429,1023.636292 133.702194,1022.953735 129.828964,1022.118164 
	C72.991913,1009.856567 33.198692,976.879517 11.962748,922.827454 
	C6.275058,908.350586 4.546241,892.318237 0.999995,877.000000 
M569.000000,481.998535 
	C569.000000,481.998535 569.019836,482.013367 568.357788,482.092224 
	C567.596130,482.789154 566.834473,483.486084 565.835144,484.589600 
	C565.609497,484.829712 565.332764,484.966309 564.248474,485.054962 
	C560.867981,486.041992 558.867249,485.546112 558.983032,481.252930 
	C559.192810,473.473267 559.007385,465.683258 559.006104,457.897552 
	C559.000488,423.900909 559.001404,389.904297 559.000732,355.907654 
	C559.000549,346.408600 559.077820,336.908600 558.963562,327.410950 
	C558.923523,324.084473 559.809570,322.223206 563.500122,321.625732 
	C565.493042,321.303101 567.226746,319.379425 569.097839,318.074005 
	C569.097839,318.074005 569.201660,318.095428 569.902893,317.993042 
	C575.679810,315.076874 577.846313,306.721375 573.663452,300.764008 
	C573.456055,300.669128 573.248657,300.574219 572.831055,299.828339 
	C571.415039,299.164520 570.037354,298.027191 568.577209,297.909119 
	C551.412109,296.521576 534.233093,295.306366 517.062744,293.981415 
	C515.344482,293.848816 513.658630,293.294586 511.957733,292.936005 
	C512.032715,292.282776 512.107727,291.629517 512.182739,290.976257 
	C516.712891,290.976257 521.259216,291.199097 525.765442,290.870911 
	C527.673462,290.731964 529.527527,289.500061 531.350220,288.645538 
	C533.059998,287.843964 534.670349,286.177734 536.368835,286.116180 
	C544.164062,285.833740 551.974976,285.938141 559.779785,285.988403 
	C564.808350,286.020813 567.666016,283.893188 567.683838,278.742279 
	C567.683838,278.742279 567.544922,278.810089 568.052795,278.468842 
	C568.348938,277.953125 568.645142,277.437408 568.989563,276.986725 
	C568.989563,276.986725 568.920532,276.944427 569.584961,276.774353 
	C571.764038,272.860443 573.943115,268.946564 576.179138,264.467621 
	C576.444092,263.976044 576.708984,263.484467 577.678589,262.789520 
	C578.736816,261.437103 580.565002,260.167084 580.719971,258.718048 
	C581.386536,252.487457 582.411926,246.103943 581.687744,239.967163 
	C580.887634,233.187241 581.119019,225.447830 573.820190,220.802002 
	C573.820190,220.802002 573.810425,220.525558 573.702209,219.870758 
	C573.136780,219.247849 572.571350,218.624939 571.799866,217.854294 
	C571.799866,217.854294 571.765625,217.603073 571.797852,216.804245 
	C570.437622,215.276443 569.077332,213.748642 567.788086,212.210495 
	C567.788086,212.210495 567.780334,212.281799 567.653442,211.665131 
	C567.057068,211.139343 566.460632,210.613571 565.945496,210.053284 
	C565.945496,210.053284 565.895325,210.125916 565.872498,209.390259 
	C565.057190,205.632584 562.819092,203.435455 558.983948,203.010910 
	C558.983948,203.010910 558.951782,203.078110 558.797546,202.403793 
	C556.923706,200.913589 555.049927,199.423401 552.616211,197.658554 
	C551.737305,196.789886 550.858459,195.921219 549.838623,194.329620 
	C548.458130,187.648727 542.494141,186.713364 537.638184,184.327957 
	C537.638184,184.327957 537.498718,184.489594 537.504944,183.784286 
	C533.253052,179.280228 529.051575,174.727051 524.729858,170.291031 
	C522.261780,167.757736 519.597839,165.415253 516.997559,162.998947 
	C516.997559,162.998947 517.015381,162.976486 517.013184,162.178833 
	C516.107422,159.996964 515.201660,157.815094 514.295898,155.633255 
	C512.898926,156.291138 511.078278,156.597321 510.184967,157.673340 
	C507.583740,160.806686 505.733398,164.622955 502.901001,167.492752 
	C496.448395,174.030716 490.463196,181.836990 482.621338,185.950500 
	C475.920410,189.465515 474.137451,195.378830 469.742340,200.631851 
	C468.819550,201.416748 467.896729,202.201645 466.259766,203.054123 
	C464.351715,204.294220 462.078033,205.205063 460.606903,206.838638 
	C456.795532,211.070847 452.824890,214.977509 450.277252,220.501068 
	C446.874054,227.879410 444.250580,235.084549 443.935791,243.271835 
	C443.467773,255.444885 447.652161,266.095215 453.953522,276.056824 
	C458.233734,282.823273 463.711151,287.771088 472.797882,286.093781 
	C475.306885,285.630676 479.360352,285.387634 480.444153,286.790405 
	C484.661133,292.248596 490.251282,290.623749 495.537842,291.021973 
	C497.425232,291.164124 499.286407,291.653748 501.159546,291.984772 
	C501.132324,292.705688 501.105133,293.426575 501.077942,294.147491 
	C496.928864,294.768677 492.798767,295.686523 488.627014,295.953644 
	C477.558136,296.662323 466.464661,296.995911 455.400726,297.763184 
	C454.185211,297.847473 453.097717,299.778473 451.956543,300.951904 
	C451.956543,300.951904 451.857544,300.956940 451.242981,301.373932 
	C451.242981,307.635712 451.242981,313.897491 451.242981,319.781311 
	C455.920929,320.629944 459.833954,321.034515 463.524506,322.165253 
	C464.927460,322.595154 466.681671,324.629608 466.788330,326.044830 
	C467.171570,331.130371 466.995575,336.265320 466.892517,341.378815 
	C466.641602,353.827179 466.126801,366.272919 466.055756,378.721619 
	C465.920197,402.479431 465.951385,426.238861 466.054047,449.996979 
	C466.097656,460.093964 466.489990,470.189575 466.735504,480.285492 
	C466.827515,484.066376 465.278961,484.943481 461.843506,483.301483 
	C459.505890,482.184265 456.994385,481.430847 454.521057,480.526001 
	C454.521057,480.526001 454.484619,480.506866 454.529327,479.774994 
	C453.789307,478.755920 453.142029,477.650818 452.291656,476.734100 
	C449.803802,474.052094 447.234985,471.445190 444.697876,468.808838 
	C443.526978,467.787720 441.158295,468.459259 439.453705,467.679382 
	C427.894836,462.390808 416.480347,456.786987 405.008179,451.308075 
	C402.917480,450.309570 400.283569,449.912567 398.747742,448.385620 
	C393.490906,443.159332 387.118011,442.732300 380.158234,443.256989 
	C380.158234,443.256989 379.994720,443.094086 379.680023,442.474243 
	C375.176666,440.219055 370.851257,436.584076 366.135529,435.976013 
	C353.656738,434.367035 341.914795,429.360931 329.216187,428.835999 
	C321.837952,428.531006 314.503357,427.023499 307.168152,425.929718 
	C305.402832,425.666504 303.578033,425.147003 302.018768,424.304474 
	C299.421234,422.900909 298.127197,423.277222 296.571533,426.039948 
	C291.861542,434.404480 286.620148,442.468567 281.830200,450.790405 
	C280.854889,452.484863 280.945801,454.793030 280.582611,457.014191 
	C280.582611,457.014191 280.404327,457.103577 279.667389,457.154907 
	C278.211395,458.604309 276.755402,460.053741 275.299377,461.503143 
	C275.533630,461.992279 275.767853,462.481384 276.002106,462.970520 
	C278.393311,463.306671 280.782288,463.913116 283.176147,463.933228 
	C294.993896,464.032593 306.813202,464.013153 318.631317,463.936554 
	C320.417480,463.924988 322.200287,463.392334 324.817963,463.024078 
	C326.201599,463.134674 327.585236,463.245300 329.412109,463.913147 
	C330.640991,464.288452 331.846405,464.805511 333.102997,465.013123 
	C337.311157,465.708435 341.831421,465.561615 345.681702,467.107941 
	C350.358002,468.986084 354.531128,469.232178 359.655701,467.126831 
	C360.094299,467.226898 360.532898,467.326935 361.340149,468.003448 
	C362.815430,468.648407 364.243256,469.449524 365.773254,469.914154 
	C381.113892,474.572510 396.460815,479.211121 411.839539,483.741425 
	C413.444061,484.214050 415.264618,483.953491 417.699585,484.141327 
	C455.467560,499.699432 487.220276,523.403381 512.930481,555.365662 
	C514.086426,554.109619 514.800903,553.415466 515.422424,552.646118 
	C541.456665,520.419373 574.220947,497.407562 612.590576,482.307617 
	C652.514832,466.595795 694.159546,460.911041 736.871765,461.970734 
	C740.468811,462.059967 744.069885,461.982544 748.161743,461.982544 
	C747.271912,460.069946 746.596252,458.617676 745.975403,456.418243 
	C745.397217,454.640503 748.619568,450.148743 742.374451,451.697174 
	C741.871216,450.817322 741.367981,449.937500 741.171814,448.527191 
	C741.113770,447.724854 741.317749,446.772125 740.957031,446.143433 
	C737.416077,439.973083 733.803833,433.843170 730.163879,427.730316 
	C728.232483,424.486877 726.073853,421.942993 722.139038,425.484283 
	C721.616882,425.954224 720.549255,425.940613 719.733582,425.942993 
	C710.807495,425.969360 701.879272,425.515747 693.359497,429.302643 
	C690.926147,430.384216 687.827026,429.852905 685.143616,430.511230 
	C679.676208,431.852600 674.295166,433.541779 668.858459,435.013550 
	C653.703186,439.116333 638.506714,443.115417 624.248657,449.869385 
	C621.639771,451.105194 619.390442,453.099976 616.580139,455.020477 
	C616.290405,455.179138 615.980530,455.251434 614.849243,455.197632 
	C613.234192,456.131104 611.619141,457.064545 609.770569,458.184143 
	C609.770569,458.184143 609.471924,458.185852 608.616150,458.125916 
	C607.169617,458.321808 605.546021,458.160858 604.307312,458.775574 
	C599.038818,461.389954 593.824524,464.130920 588.738281,467.080627 
	C587.709595,467.677216 587.322632,469.380280 586.576477,470.713989 
	C586.576477,470.713989 586.432556,470.658142 585.621765,470.450012 
	C580.828430,470.378937 576.941162,471.596802 576.059204,477.063080 
	C576.059204,477.063080 576.135620,477.111908 575.391724,477.121033 
	C574.042236,478.214508 572.692810,479.308014 571.239563,480.318878 
	C571.239563,480.318878 571.368958,480.348022 570.742981,480.409576 
	C570.165771,480.946289 569.588501,481.483002 569.000000,481.998535 
M643.301514,854.413391 
	C642.914673,854.487000 642.527893,854.560547 641.621765,854.663635 
	C641.457642,855.112366 641.293518,855.561035 641.028687,856.941101 
	C641.144531,864.918091 641.260315,872.895081 641.653931,881.454285 
	C642.976562,881.254761 644.299194,881.055298 645.799011,880.033569 
	C645.765747,878.352356 645.732483,876.671204 645.904480,874.103210 
	C645.854919,871.078125 645.805420,868.052979 645.866394,864.271729 
	C645.833862,863.510071 645.801392,862.748413 645.968689,861.156799 
	C645.439819,858.882324 647.833313,855.697815 643.301514,854.413391 
M452.024353,878.126587 
	C451.932587,875.759827 451.840820,873.393066 451.857086,870.091492 
	C451.818695,861.735046 451.780334,853.378540 451.775970,844.522400 
	C451.515015,844.350525 451.254028,844.178589 450.260742,843.829468 
	C449.517151,843.902039 448.773529,843.974670 447.439758,844.370300 
	C447.400726,845.234192 447.361664,846.098022 447.244507,847.900574 
	C447.279938,858.893066 447.315338,869.885559 447.550720,881.534119 
	C448.950378,881.322693 450.350006,881.111267 451.894928,880.274536 
	C451.872559,879.848511 451.850189,879.422546 452.024353,878.126587 
M769.547058,446.958557 
	C784.022583,472.439880 798.510315,497.914307 812.968628,523.405396 
	C820.279541,536.294983 827.657410,549.149048 834.772827,562.146301 
	C838.842224,569.579712 835.090088,575.749268 826.569092,576.163452 
	C824.407898,576.268555 822.239197,576.236816 820.073914,576.236206 
	C733.285828,576.212402 646.497681,576.233582 559.709961,576.051941 
	C553.735229,576.039429 550.095642,577.769104 546.809204,583.040466 
	C532.397156,606.157043 495.741486,607.126953 480.431763,584.550659 
	C475.947174,577.937500 471.216705,576.003052 463.693817,576.022705 
	C377.572632,576.248047 291.450623,576.181641 205.328842,576.187561 
	C202.997330,576.187744 200.652664,576.273804 198.336807,576.066467 
	C191.510239,575.455566 187.942581,569.363770 190.669266,563.037537 
	C191.326141,561.513550 192.177963,560.069031 192.996414,558.619812 
	C202.249130,542.235229 211.459854,525.826538 220.786819,509.484253 
	C232.746323,488.529327 244.801620,467.629089 257.070618,445.938568 
	C258.575806,442.966766 259.966125,439.929382 261.616669,437.040649 
	C263.472473,433.792694 262.370453,432.234253 258.953522,432.244446 
	C252.631577,432.263275 246.308807,432.481232 239.989197,432.698181 
	C229.275696,433.065979 222.211411,438.697449 217.005997,447.806335 
	C198.574539,480.059113 179.892395,512.168640 161.304977,544.332275 
	C155.388199,554.570679 148.922150,564.537048 143.687256,575.112915 
	C136.596405,589.438293 144.222946,606.658081 159.133102,611.023438 
	C162.715744,612.072449 166.703186,611.999512 170.504761,612.001953 
	C262.004608,612.060425 353.504517,612.085754 445.004303,611.997498 
	C450.167542,611.992493 454.054047,613.383606 457.852783,617.109192 
	C487.471252,646.157288 539.777283,645.636108 569.261169,616.095520 
	C572.075195,613.276123 574.925842,611.948547 578.910583,611.998779 
	C591.574890,612.158691 604.242920,612.011963 616.909485,612.011963 
	C697.242737,612.012329 777.575928,612.034546 857.909180,612.011719 
	C871.493530,612.007874 880.528381,605.284607 883.966980,593.036804 
	C886.358337,584.519592 884.034912,576.972717 879.707703,569.676941 
	C870.958374,554.925537 862.264221,540.140747 853.644775,525.313110 
	C838.742554,499.677521 823.895996,474.009552 809.068665,448.330566 
	C805.392639,441.964142 801.038818,435.406647 793.665710,434.275238 
	C783.624817,432.734406 773.270935,433.230377 763.049866,432.894318 
	C762.891052,432.889099 762.714783,433.414795 762.256897,434.171692 
	C764.462097,438.106384 766.803406,442.283813 769.547058,446.958557 
M228.312164,531.707581 
	C227.185211,533.841187 226.058258,535.974731 224.774094,538.405945 
	C329.617004,506.078369 427.104156,513.317383 513.110413,586.637756 
	C599.190369,513.155762 696.480957,506.037445 800.803284,538.420776 
	C800.461975,537.564575 800.248413,536.806824 799.879028,536.134705 
	C792.018494,521.830627 784.009094,507.605927 776.357178,493.191376 
	C774.418884,489.540161 771.950134,487.872620 767.994141,487.294250 
	C721.925232,480.558807 676.299805,481.800964 631.401917,495.047638 
	C586.115051,508.409058 546.864685,531.476196 515.961243,567.745361 
	C515.155640,568.690735 514.130066,569.448730 513.026123,570.459900 
	C511.615753,568.980164 510.423523,567.839783 509.356018,566.592651 
	C495.815063,550.772949 480.092041,537.415771 462.608673,526.233765 
	C398.865906,485.465210 329.087799,476.719421 255.702164,487.902130 
	C253.821930,488.188660 251.626984,490.099243 250.621918,491.850952 
	C243.165268,504.847168 235.973022,517.995056 228.312164,531.707581 
M351.500000,812.000183 
	C327.175690,812.003113 302.851349,812.004089 278.527039,812.009766 
	C258.368042,812.014465 238.208847,812.070557 218.050186,811.989807 
	C214.449448,811.975403 212.972366,813.276062 212.978302,816.966309 
	C212.984177,820.614990 214.361481,822.240234 218.011307,821.943604 
	C219.169617,821.849426 220.342514,821.937500 221.508728,821.937500 
	C410.270782,821.939331 599.032837,821.941162 787.794861,821.940308 
	C794.458862,821.940247 801.123352,821.865845 807.786743,821.920837 
	C811.057068,821.947876 812.128052,820.301636 812.123840,817.248230 
	C812.119690,814.201050 811.560303,811.907654 807.827209,812.033813 
	C806.329956,812.084412 804.828979,812.013672 803.329651,812.013611 
	C653.053101,812.008240 502.776550,812.004456 351.500000,812.000183 
M470.546753,780.107056 
	C483.288696,769.356445 481.294525,755.276550 465.165192,743.592957 
	C465.893555,742.912476 466.535278,742.207703 467.278656,741.634949 
	C473.761749,736.640137 475.852722,729.962646 474.460846,722.149414 
	C473.131165,714.685547 468.318085,710.008850 461.284302,707.952637 
	C456.541656,706.566101 451.552521,705.484436 446.639374,705.325317 
	C434.337921,704.927002 422.013641,705.281494 409.705811,705.007324 
	C405.723175,704.918640 405.075775,706.512207 405.092041,710.000366 
	C405.202118,733.628113 405.123077,757.256775 405.130249,780.885132 
	C405.130707,782.473022 405.335999,784.060974 405.444977,785.633972 
	C421.655273,785.633972 437.299774,786.083069 452.894623,785.399414 
	C458.639496,785.147522 464.267181,782.222778 470.546753,780.107056 
M645.645508,710.794067 
	C641.161133,709.156860 636.743835,706.360901 632.180054,706.096802 
	C617.746765,705.261658 603.255249,705.486267 588.794006,705.046875 
	C584.778748,704.924805 583.717041,706.344299 583.748352,710.200684 
	C583.939758,733.835327 584.014526,757.472534 583.863159,781.107117 
	C583.836670,785.248169 585.335205,786.111023 589.061462,786.060730 
	C601.542908,785.892395 614.049316,786.441345 626.503418,785.836182 
	C633.019592,785.519531 639.914368,784.429626 645.820923,781.831238 
	C660.140442,775.531494 661.402283,756.053467 648.570923,747.060486 
	C646.979004,745.944824 645.288391,744.970032 643.583191,743.891785 
	C655.780029,732.415649 656.627258,721.031006 645.645508,710.794067 
M499.309418,751.721619 
	C494.332367,762.875244 489.355347,774.028870 484.021240,785.982727 
	C490.211609,785.982727 495.352295,786.164001 500.462280,785.848511 
	C501.659973,785.774536 503.212341,784.240295 503.810425,782.997314 
	C505.681183,779.109558 506.940979,774.918030 508.936035,771.105042 
	C509.658112,769.724915 511.746185,768.325623 513.285461,768.237610 
	C519.090271,767.905640 525.021729,768.784668 530.729919,767.973145 
	C542.853271,766.249817 551.314514,769.282043 553.693054,782.577820 
	C553.909363,783.786743 555.341370,785.662476 556.287476,785.711548 
	C561.973083,786.006531 567.681641,785.857971 573.963013,785.857971 
	C573.068420,783.677917 572.607422,782.460510 572.076355,781.274475 
	C562.562134,760.026306 553.050293,738.777100 543.514404,717.538635 
	C537.770874,704.746521 537.747131,704.639709 523.617676,705.338013 
	C521.854431,705.425110 519.352844,707.112183 518.610107,708.714600 
	C512.108887,722.740356 505.929932,736.915466 499.309418,751.721619 
M690.479492,756.613037 
	C690.618958,764.923523 690.660706,773.237915 690.989563,781.540955 
	C691.047485,783.004639 692.220764,785.608704 693.023804,785.666321 
	C698.252991,786.041382 703.522034,785.858948 709.134399,785.858948 
	C709.134399,777.406311 708.891113,769.749878 709.251892,762.122131 
	C709.400208,758.986145 710.223816,755.539246 711.811462,752.871277 
	C720.407043,738.426941 729.345886,724.186951 738.138916,709.859680 
	C738.862671,708.680481 739.381714,707.375671 740.050049,706.019226 
	C726.766357,702.941345 723.355835,704.267151 716.692688,714.751770 
	C715.621826,716.436890 714.539734,718.115417 713.498474,719.818787 
	C709.355835,726.595276 705.227356,733.380310 700.671265,740.855103 
	C699.103149,738.557556 697.942200,736.998535 696.929321,735.348633 
	C691.530457,726.554138 686.216614,717.706848 680.746155,708.957397 
	C679.845154,707.516357 678.382446,705.504578 677.060425,705.409485 
	C671.521301,705.010864 665.936890,705.241272 659.239197,705.241272 
	C669.927002,722.762695 680.027588,739.321289 690.479492,756.613037 
M324.500000,785.959412 
	C331.662384,785.946228 338.824829,785.941040 345.987183,785.917725 
	C355.958313,785.885254 355.764557,785.876038 355.944763,775.747314 
	C356.014862,771.805115 354.510681,770.959839 350.987610,771.003845 
	C340.829224,771.130859 330.664398,770.830444 320.508453,771.027222 
	C316.456512,771.105713 314.994720,769.912476 315.044189,765.690796 
	C315.231384,749.703003 315.077271,733.711304 315.055023,717.721069 
	C315.037506,705.140686 315.037598,705.304199 302.505402,705.101013 
	C298.264496,705.032349 296.709747,706.042419 296.753967,710.610657 
	C296.981293,734.094421 296.859619,757.581482 296.888580,781.067383 
	C296.890350,782.508362 297.138885,783.949036 297.325378,785.958618 
	C306.255310,785.958618 314.877655,785.958618 324.500000,785.959412 
M375.541809,785.898865 
	C378.639923,785.898865 381.738007,785.898865 385.396210,785.898865 
	C385.396210,783.226501 385.401733,781.261292 385.395386,779.296082 
	C385.329315,758.821472 385.261841,738.346802 385.193787,717.872192 
	C385.151031,705.015564 385.149200,705.165588 372.382507,705.071777 
	C368.333252,705.042053 366.913269,706.122742 366.957275,710.363159 
	C367.202362,733.998474 367.163818,757.636719 367.252869,781.273865 
	C367.258270,782.707886 367.527435,784.140930 367.707153,785.900085 
	C370.295837,785.900085 372.444397,785.900085 375.541809,785.898865 
M534.318115,856.026794 
	C528.022766,852.567932 522.506348,854.502258 517.372009,858.734802 
	C512.295898,854.186523 506.884460,852.851196 500.685394,855.860901 
	C499.995331,856.195984 498.677826,855.673035 497.845367,855.203735 
	C494.594788,853.371399 493.230988,854.436584 493.231110,857.955444 
	C493.231354,864.774658 493.100677,871.597473 493.315979,878.409546 
	C493.353485,879.596436 494.821960,880.738098 495.629547,881.900635 
	C496.543091,880.661316 498.118958,879.485352 498.244720,878.170654 
	C498.607391,874.379517 498.206360,870.521545 498.437195,866.709961 
	C498.738708,861.731445 501.827423,858.859863 506.377045,858.917419 
	C510.706268,858.972168 513.405762,861.696045 513.703003,866.682739 
	C513.930359,870.497070 513.618103,874.352417 513.997986,878.144226 
	C514.131714,879.479187 515.607788,880.679749 516.470947,881.941650 
	C517.286194,880.610107 518.675903,879.332214 518.806091,877.936768 
	C519.160156,874.141724 518.824585,870.287598 519.053467,866.474304 
	C519.335327,861.778259 522.321594,858.979797 526.680054,858.947266 
	C531.198547,858.913635 533.880676,861.520264 534.111023,866.482422 
	C534.296021,870.467102 534.227112,874.464172 534.241394,878.455872 
	C534.254761,882.180603 536.100952,882.479187 539.207092,881.166565 
	C539.207092,875.710022 539.694702,870.340698 539.019836,865.121704 
	C538.629761,862.105103 536.364929,859.330933 534.318115,856.026794 
M658.177124,881.837036 
	C659.472229,881.091736 660.767334,880.346375 662.137817,879.557678 
	C669.366211,883.537415 675.487366,883.149902 680.244385,878.326721 
	C684.310364,874.204102 685.456055,866.953491 682.320862,861.662170 
	C680.948181,859.345581 678.704407,856.381775 676.455994,855.986084 
	C671.555847,855.123657 666.399109,855.719604 660.756531,855.719604 
	C660.756531,853.663086 661.057556,850.809814 660.638000,848.066711 
	C660.405212,846.544128 658.969238,845.205627 658.075623,843.784119 
	C657.316895,845.156616 655.919678,846.520630 655.901306,847.902954 
	C655.766418,858.046570 655.863037,868.194580 656.023804,878.338989 
	C656.041809,879.476562 656.916626,880.600586 658.177124,881.837036 
M346.787109,866.912903 
	C342.810333,868.489868 341.098785,871.486023 341.874786,875.607239 
	C342.664886,879.803650 345.775269,881.896545 349.744537,881.953369 
	C354.696777,882.024292 359.658691,881.419678 364.967010,881.084595 
	C364.967010,875.161804 365.247375,868.874268 364.869171,862.626587 
	C364.613922,858.409851 361.874817,855.312683 357.604401,854.947083 
	C353.735168,854.615906 349.734711,855.154114 345.874176,855.799805 
	C344.750641,855.987732 343.908997,857.860962 342.938141,858.961670 
	C344.440674,859.254456 345.947815,859.809692 347.444702,859.783203 
	C350.227966,859.733948 353.170563,858.687866 355.726654,859.330444 
	C357.419434,859.755920 358.554596,862.399658 359.939362,864.050293 
	C358.448517,864.683105 357.009583,865.603149 355.455139,865.884033 
	C352.861725,866.352783 350.194458,866.412537 346.787109,866.912903 
M774.294434,888.793579 
	C779.508789,877.625305 784.723206,866.457092 790.338440,854.430359 
	C787.719604,854.430359 786.120117,854.089050 785.913635,854.481201 
	C782.420044,861.115845 779.099609,867.841736 775.399963,875.228027 
	C772.439331,868.771545 769.676147,862.941711 767.095154,857.032227 
	C765.851929,854.185547 764.092896,853.315918 760.903564,854.760864 
	C764.274780,862.251221 767.604675,869.639099 770.924500,877.031433 
	C772.150757,879.762024 773.672852,882.418152 771.156738,885.346313 
	C768.951904,887.912231 766.555908,888.112610 763.545410,886.947693 
	C762.799011,886.658936 761.499329,887.799927 760.453918,888.283691 
	C761.060547,889.240906 761.445251,890.662170 762.311462,891.076477 
	C766.455017,893.058044 770.381409,892.587708 774.294434,888.793579 
M460.904938,870.688843 
	C459.297577,874.104736 459.436279,878.052429 462.612000,879.574402 
	C466.035645,881.215210 470.381073,880.979187 474.338715,881.437805 
	C476.051758,881.636292 477.858978,881.254700 479.520355,881.613647 
	C482.230621,882.199219 483.725128,881.693359 483.643585,878.597168 
	C483.547333,874.942200 483.508698,871.283386 483.554321,867.627563 
	C483.612000,863.007996 483.448303,858.430054 478.711334,855.923279 
	C473.414673,853.120483 468.018372,854.272095 462.807251,856.290833 
	C462.042816,856.587036 461.824310,858.292419 461.353210,859.345825 
	C462.324219,859.651062 463.326630,860.287720 464.260345,860.199341 
	C467.044159,859.935547 469.819122,858.944824 472.564087,859.057007 
	C476.380219,859.212891 478.625427,861.243713 477.497894,866.109009 
	C474.598846,866.109009 471.675568,865.603455 469.033356,866.248840 
	C466.299805,866.916565 463.839081,868.701294 460.904938,870.688843 
M717.497498,859.432678 
	C719.809937,859.295532 722.358459,858.498718 724.364746,859.216858 
	C726.177002,859.865540 727.396362,862.170532 728.877136,863.745178 
	C727.333435,864.516907 725.863708,865.633545 724.229614,865.984436 
	C721.330200,866.607056 717.985718,866.074158 715.478577,867.327515 
	C713.322754,868.405029 710.840881,871.249207 710.753296,873.403687 
	C710.654419,875.835205 712.475647,879.448792 714.542114,880.586853 
	C717.166565,882.032104 720.914368,881.947693 724.106567,881.678650 
	C726.360596,881.488586 728.451355,879.610229 730.791809,881.734741 
	C730.920471,881.851562 733.810303,879.977539 733.865967,878.946472 
	C734.143494,873.809387 734.124451,868.629395 733.782349,863.492981 
	C733.432068,858.234131 730.565125,855.199341 725.268616,854.735168 
	C722.038208,854.452087 718.637634,854.871582 715.472107,855.633972 
	C713.993530,855.990051 712.890808,857.906921 711.617737,859.116394 
	C713.325745,859.308655 715.033813,859.500854 717.497498,859.432678 
M285.073822,856.410400 
	C284.209381,857.182190 283.260590,857.878845 282.494598,858.738403 
	C278.330902,863.410583 277.845795,871.237610 281.352692,876.327026 
	C284.946899,881.543152 292.358704,883.587097 298.752289,881.125244 
	C304.848511,878.777954 308.235046,873.084778 307.450531,866.502258 
	C306.260529,856.517090 296.510101,851.814148 285.073822,856.410400 
M423.823792,862.388916 
	C425.206787,861.245728 426.485596,859.336670 427.996124,859.131165 
	C430.532349,858.786194 433.211792,859.660217 435.839722,859.742981 
	C436.910706,859.776611 438.004547,859.083191 439.087982,858.720581 
	C438.557404,857.731018 438.087311,855.926392 437.486603,855.881836 
	C432.960907,855.545959 428.212646,854.753601 423.949799,855.799255 
	C421.838501,856.317139 419.382233,860.401733 419.350250,862.901611 
	C419.323029,865.027954 422.217224,867.676697 424.433472,869.200378 
	C426.366333,870.529236 429.269562,870.351685 431.528381,871.335205 
	C432.997284,871.974731 434.079498,873.502380 435.334930,874.632141 
	C433.830658,875.680786 432.363464,877.533142 430.814117,877.604614 
	C427.911072,877.738525 424.972412,876.707886 422.023285,876.444397 
	C420.981354,876.351379 419.865631,877.084351 418.783600,877.440125 
	C419.269409,878.354980 419.523010,879.608459 420.280090,880.127686 
	C424.148590,882.780884 433.643463,882.539001 437.545746,879.863098 
	C441.838745,876.919067 441.874176,871.526489 437.414703,868.744995 
	C435.786560,867.729492 433.641449,867.582764 431.820465,866.826965 
	C429.160736,865.723083 426.580597,864.427307 423.823792,862.388916 
M326.445282,858.551941 
	C328.527313,859.460205 330.553772,860.552856 332.713318,861.203979 
	C333.907166,861.563965 335.323944,861.184570 336.640228,861.138489 
	C336.319885,860.006165 336.328949,858.578857 335.623566,857.791382 
	C332.128265,853.888489 324.404816,853.129089 318.862152,855.942810 
	C313.790955,858.517273 310.915497,864.210876 311.690155,870.144226 
	C312.456024,876.010437 317.032654,880.857910 322.920990,882.039856 
	C328.970123,883.254089 333.960327,881.174988 337.637268,874.843506 
	C335.149933,875.187683 333.350281,874.966248 332.108917,875.695312 
	C328.143616,878.024414 324.214874,878.473511 320.398682,875.856201 
	C317.050049,873.559448 316.047943,870.056885 316.899628,866.147583 
	C317.908661,861.515869 320.943329,859.071045 326.445282,858.551941 
M563.587402,875.782898 
	C570.492493,884.476135 581.488281,884.694641 586.838074,876.198242 
	C585.097717,873.340637 583.501770,874.327271 581.284363,875.952698 
	C577.260803,878.902039 571.718018,878.074097 568.618042,874.530579 
	C565.695740,871.190125 565.797546,864.887085 568.826477,861.636230 
	C571.960266,858.272583 577.608154,857.730591 581.612976,860.438110 
	C582.158508,860.806946 582.572632,861.639771 583.107788,861.697144 
	C584.156006,861.809753 585.246643,861.526978 586.319824,861.407837 
	C586.203003,860.396118 586.463318,858.894287 585.900940,858.461609 
	C583.971497,856.977051 581.896606,855.309937 579.617371,854.725159 
	C574.118469,853.314270 568.895996,854.377380 565.080444,858.877563 
	C560.935242,863.766846 560.247253,869.305176 563.587402,875.782898 
M626.396362,881.990845 
	C627.894775,881.971802 629.462891,882.221436 630.871460,881.856018 
	C632.206116,881.509827 633.373352,880.518738 634.614258,879.811279 
	C633.417480,879.021240 632.272583,877.663452 631.014099,877.548462 
	C627.378906,877.216187 623.682861,877.163696 620.039062,877.414490 
	C615.838074,877.703552 614.568298,875.975525 614.692505,871.915588 
	C614.926575,864.264526 614.802368,856.597107 614.580566,848.943665 
	C614.549561,847.875427 613.121765,846.847717 612.340576,845.801208 
	C611.304749,846.578430 609.381104,847.339844 609.367004,848.135193 
	C609.169556,859.231812 609.233154,870.333130 609.233154,881.994324 
	C615.177185,881.994324 620.301147,881.994324 626.396362,881.990845 
M691.544983,855.504089 
	C691.464661,863.305664 691.297668,871.108459 691.409180,878.907288 
	C691.423828,879.930176 692.865662,880.932617 693.646545,881.944580 
	C694.484192,880.841248 695.930908,879.797668 696.046082,878.623474 
	C696.401794,874.997742 696.107483,871.313538 696.332153,867.668396 
	C696.588989,863.500061 698.368286,860.172180 702.849731,859.414307 
	C706.521545,858.793457 706.499207,856.921021 705.411011,854.046997 
	C704.363647,854.115662 703.492981,853.987244 702.766357,854.252808 
	C699.795654,855.338684 696.902039,857.144104 693.840698,854.370728 
	C693.590576,854.144104 692.647461,854.682495 691.544983,855.504089 
M743.502441,866.521057 
	C743.502441,871.472107 743.502441,876.423218 743.502441,881.225952 
	C746.924133,882.563843 748.522095,881.791199 748.524414,878.515076 
	C748.526428,875.694946 748.496216,872.874146 748.546631,870.054810 
	C748.691467,861.966064 750.045837,860.310486 758.094360,858.525513 
	C758.094360,857.193115 758.094360,855.804077 758.094360,853.460693 
	C754.651489,854.652527 751.800842,855.639282 749.747620,856.350037 
	C747.866638,855.538635 746.506409,854.951843 745.146179,854.365051 
	C744.585022,855.767456 743.704712,857.132690 743.535950,858.580750 
	C743.269043,860.871094 743.479065,863.217041 743.502441,866.521057 
M410.524994,860.511047 
	C410.540009,856.679138 410.725830,852.835327 410.460846,849.022888 
	C410.386139,847.948120 408.990387,846.965149 408.200562,845.940063 
	C407.280487,847.012878 405.580841,848.072266 405.562012,849.160645 
	C405.392120,858.986816 405.433533,868.820068 405.670105,878.645020 
	C405.696960,879.759460 407.307739,880.835815 408.184082,881.929810 
	C409.014618,880.786499 410.518951,879.667542 410.561279,878.495667 
	C410.765564,872.840820 410.576202,867.171753 410.524994,860.511047 
M256.227753,849.237671 
	C255.256149,848.076355 254.284546,846.915039 253.312881,845.753723 
	C252.453415,846.699585 250.861923,847.633728 250.846466,848.593262 
	C250.670303,859.536194 250.734482,870.483032 250.734482,881.729309 
	C259.563171,881.729309 267.736694,881.729309 275.910217,881.729309 
	C276.185822,881.206055 276.461426,880.682800 276.737061,880.159546 
	C275.418549,879.223938 274.182922,877.669189 272.764618,877.479370 
	C269.661133,877.064026 266.464905,877.336975 263.306580,877.336365 
	C256.291992,877.335083 256.273346,877.337097 256.246033,870.538696 
	C256.218658,863.722656 256.233643,856.906555 256.227753,849.237671 
M379.895874,876.251160 
	C379.870819,866.921387 379.956146,857.588623 379.706085,848.264832 
	C379.666901,846.804138 378.104156,845.384338 377.245880,843.945618 
	C376.499512,845.340759 375.135498,846.723083 375.106232,848.133118 
	C374.905518,857.792175 374.887665,867.458984 375.070282,877.118347 
	C375.100311,878.707092 376.207916,881.475708 377.158691,881.632751 
	C380.692474,882.216248 379.611511,879.114807 379.895874,876.251160 
M554.160889,872.769409 
	C554.151062,867.794556 554.289429,862.811768 554.026367,857.850342 
	C553.961365,856.623474 552.593201,855.465698 551.824036,854.276123 
	C550.916077,855.505859 549.262207,856.713196 549.224548,857.969116 
	C549.020874,864.760132 549.248901,871.563171 549.263000,878.362122 
	C549.270447,881.945496 550.906860,882.571411 554.179016,881.200500 
	C554.179016,878.619690 554.179016,876.146545 554.160889,872.769409 
M549.020325,848.347351 
	C550.760803,848.321899 552.544983,848.486450 554.203674,848.105042 
	C554.521484,848.031982 554.861572,845.329529 554.272217,844.697937 
	C553.457825,843.825378 551.131592,843.039795 550.593567,843.513245 
	C549.525940,844.452698 549.238403,846.278687 549.020325,848.347351 
M643.430298,843.022583 
	C642.320740,844.165100 641.211243,845.307678 640.101685,846.450195 
	C641.075928,847.388367 641.974609,848.960815 643.045410,849.088318 
	C644.140442,849.218811 645.404114,847.932373 646.593994,847.266174 
	C645.787476,845.888977 644.981018,844.511841 643.430298,843.022583 
z"/>
<path fill="#FDFEFE" opacity="1.000000" stroke="none" 
	d="
M146.531342,1.000000 
	C140.296921,2.202038 133.546829,3.188648 126.898018,4.639392 
	C59.343788,19.379423 11.396606,72.029198 2.258299,141.363510 
	C1.957045,143.649200 1.425302,145.904510 1.000499,148.586990 
	C1.000000,99.740166 1.000000,50.480328 1.000000,1.000000 
	C49.354004,1.000000 97.708344,1.000000 146.531342,1.000000 
z"/>
<path fill="#FDFEFE" opacity="1.000000" stroke="none" 
	d="
M0.999995,877.468628 
	C4.546241,892.318237 6.275058,908.350586 11.962748,922.827454 
	C33.198692,976.879517 72.991913,1009.856567 129.828964,1022.118164 
	C133.702194,1022.953735 137.608429,1023.636292 141.749664,1024.695068 
	C95.071243,1025.000000 48.142487,1025.000000 1.000000,1025.000000 
	C1.000000,975.979309 1.000000,926.958313 0.999995,877.468628 
z"/>
<path fill="#FDFEFE" opacity="1.000000" stroke="none" 
	d="
M1025.000000,146.531342 
	C1023.449890,138.690094 1022.306274,130.279938 1020.285217,122.086166 
	C1004.471497,57.973125 953.080750,11.823689 887.125427,2.261820 
	C885.319275,1.999970 883.535156,1.585507 881.370361,1.121103 
	C928.927490,1.000000 976.854980,1.000000 1025.000000,1.000000 
	C1025.000000,49.354012 1025.000000,97.708344 1025.000000,146.531342 
z"/>
<path fill="#FDFEFE" opacity="1.000000" stroke="none" 
	d="
M882.468628,1025.000000 
	C894.399109,1021.983948 907.040344,1019.711975 919.139954,1015.775330 
	C936.784180,1010.034790 952.853333,1001.030823 967.338989,988.248047 
	C975.779297,982.172791 983.082764,975.844238 988.032776,967.215393 
	C994.070984,958.547852 1000.733582,950.242126 1006.010376,941.133423 
	C1015.424805,924.882446 1020.836182,907.128174 1023.227844,888.471375 
	C1023.643127,885.232056 1024.399902,882.036560 1024.999512,878.410400 
	C1025.000000,926.925964 1025.000000,975.851990 1025.000000,1025.000000 
	C977.645996,1025.000000 930.291687,1025.000000 882.468628,1025.000000 
z"/>
<path fill="#FCFEFE" opacity="1.000000" stroke="none" 
	d="
M565.004944,484.999420 
	C565.332764,484.966309 565.609497,484.829712 566.255249,484.301361 
	C567.456848,483.346527 568.238342,482.679932 569.019836,482.013367 
	C569.019836,482.013367 569.000000,481.998535 569.293579,481.936096 
	C570.181030,481.365112 570.774963,480.856537 571.368958,480.348022 
	C571.368958,480.348022 571.239563,480.318878 571.600769,480.253113 
	C573.353210,479.162170 574.744385,478.137054 576.135620,477.111908 
	C576.135620,477.111908 576.059204,477.063080 576.416931,477.015717 
	C579.993958,474.864960 583.213257,472.761566 586.432556,470.658142 
	C586.432556,470.658142 586.576477,470.713989 586.925781,470.523560 
	C594.674011,466.284058 602.072937,462.234955 609.471924,458.185852 
	C609.471924,458.185852 609.770569,458.184143 610.236572,458.058594 
	C612.351929,457.034485 614.001221,456.135925 615.650513,455.237366 
	C615.980530,455.251434 616.290405,455.179138 617.130005,454.831665 
	C650.640076,439.874603 685.182861,431.116241 721.031860,427.152039 
	C725.424011,426.666351 728.007690,427.545258 730.159668,431.676575 
	C733.294983,437.695801 737.255859,443.285095 740.864746,449.057678 
	C741.367981,449.937500 741.871216,450.817322 742.678101,452.215881 
	C743.961365,454.211517 744.940979,455.688477 745.920593,457.165405 
	C746.596252,458.617676 747.271912,460.069946 748.161743,461.982544 
	C744.069885,461.982544 740.468811,462.059967 736.871765,461.970734 
	C694.159546,460.911041 652.514832,466.595795 612.590576,482.307617 
	C574.220947,497.407562 541.456665,520.419373 515.422424,552.646118 
	C514.800903,553.415466 514.086426,554.109619 512.930481,555.365662 
	C487.220276,523.403381 455.467560,499.699432 417.076904,483.855927 
	C398.579742,476.059448 380.095978,470.642181 360.971497,467.427002 
	C360.532898,467.326935 360.094299,467.226898 358.945679,466.999084 
	C348.480042,465.699524 338.724457,464.527710 328.968872,463.355896 
	C327.585236,463.245300 326.201599,463.134674 323.996277,462.950714 
	C308.412994,462.877350 293.651337,462.877350 278.065613,462.877350 
	C279.198212,460.081268 279.801270,458.592407 280.404327,457.103577 
	C280.404327,457.103577 280.582611,457.014191 280.801483,456.661865 
	C286.321472,447.648834 291.708740,439.039032 296.872009,430.296906 
	C298.452850,427.620361 300.271637,426.645874 303.353546,427.138824 
	C309.436340,428.111755 315.662842,428.350616 321.659149,429.669525 
	C341.145813,433.955688 360.555450,438.592346 379.994720,443.094086 
	C379.994720,443.094086 380.158234,443.256989 380.549622,443.490234 
	C388.532227,446.712006 396.447327,449.076416 403.650024,452.813721 
	C420.774231,461.699127 437.561310,471.234253 454.484619,480.506866 
	C454.484619,480.506866 454.521057,480.526001 454.744049,480.775574 
	C459.139343,484.181000 463.311646,487.336823 468.565674,491.310852 
	C468.565674,488.242828 468.568085,486.482056 468.565247,484.721283 
	C468.546021,472.745728 468.512756,460.770142 468.508026,448.794586 
	C468.491913,407.877472 468.461975,366.960327 468.518890,326.043304 
	C468.523682,322.608063 468.033936,320.738434 463.833374,320.278320 
	C455.773743,319.395447 451.905518,314.484467 451.804443,306.444824 
	C451.781464,304.616058 451.837738,302.786255 451.857544,300.956940 
	C451.857544,300.956940 451.956543,300.951904 452.424835,300.887512 
	C478.325043,300.811218 503.757050,300.832123 529.188904,300.774780 
	C543.806458,300.741821 558.423828,300.582031 573.041260,300.479340 
	C573.248657,300.574219 573.456055,300.669128 574.013550,301.311462 
	C574.804749,307.958374 574.141296,313.706665 569.201660,318.095428 
	C569.201660,318.095428 569.097839,318.074005 568.716675,318.208313 
	C566.608582,318.936676 564.889587,320.005127 563.153137,320.034424 
	C558.258423,320.117157 557.491333,322.552124 557.507385,326.989288 
	C557.698975,379.953339 557.667175,432.918213 557.714050,485.882843 
	C557.715210,487.220459 557.946472,488.557861 558.151184,490.767426 
	C560.972290,488.393219 562.988647,486.696320 565.004944,484.999420 
z"/>
<path fill="#F8FCFC" opacity="1.000000" stroke="none" 
	d="
M256.815643,446.705261 
	C244.801620,467.629089 232.746323,488.529327 220.786819,509.484253 
	C211.459854,525.826538 202.249130,542.235229 192.996414,558.619812 
	C192.177963,560.069031 191.326141,561.513550 190.669266,563.037537 
	C187.942581,569.363770 191.510239,575.455566 198.336807,576.066467 
	C200.652664,576.273804 202.997330,576.187744 205.328842,576.187561 
	C291.450623,576.181641 377.572632,576.248047 463.693817,576.022705 
	C471.216705,576.003052 475.947174,577.937500 480.431763,584.550659 
	C495.741486,607.126953 532.397156,606.157043 546.809204,583.040466 
	C550.095642,577.769104 553.735229,576.039429 559.709961,576.051941 
	C646.497681,576.233582 733.285828,576.212402 820.073914,576.236206 
	C822.239197,576.236816 824.407898,576.268555 826.569092,576.163452 
	C835.090088,575.749268 838.842224,569.579712 834.772827,562.146301 
	C827.657410,549.149048 820.279541,536.294983 812.968628,523.405396 
	C798.510315,497.914307 784.022583,472.439880 769.795105,446.633575 
	C772.540344,446.247345 775.048401,446.313843 777.532776,446.101990 
	C786.545776,445.333374 792.473206,449.032166 796.785950,457.170685 
	C804.420532,471.577606 812.879700,485.547729 821.002869,499.695374 
	C836.253784,526.256897 851.557068,552.788513 866.737671,579.390198 
	C871.260803,587.316406 866.816101,595.213379 857.795654,595.671387 
	C856.299500,595.747375 854.797668,595.723755 853.298462,595.724548 
	C758.335510,595.774475 663.372498,595.836975 568.409546,595.810059 
	C564.974731,595.809082 562.691284,596.680298 560.408264,599.498840 
	C536.485596,629.032776 488.632965,628.585693 464.921143,598.913696 
	C463.548187,597.195618 460.574738,595.870728 458.339172,595.860413 
	C423.187103,595.697815 388.033844,595.792542 352.880890,595.805603 
	C291.904541,595.828247 230.928192,595.842163 169.951843,595.842957 
	C158.987946,595.843079 154.362625,587.932556 159.736053,578.447083 
	C162.277802,573.960266 164.822067,569.474670 167.395325,565.005859 
	C188.735321,527.946228 210.102448,490.902161 231.399323,453.817749 
	C233.805527,449.627808 237.067947,446.614838 241.902008,446.345032 
	C246.851089,446.068756 251.842667,446.553558 256.815643,446.705261 
z"/>
<path fill="#408583" opacity="1.000000" stroke="none" 
	d="
M256.943115,446.321899 
	C251.842667,446.553558 246.851089,446.068756 241.902008,446.345032 
	C237.067947,446.614838 233.805527,449.627808 231.399323,453.817749 
	C210.102448,490.902161 188.735321,527.946228 167.395325,565.005859 
	C164.822067,569.474670 162.277802,573.960266 159.736053,578.447083 
	C154.362625,587.932556 158.987946,595.843079 169.951843,595.842957 
	C230.928192,595.842163 291.904541,595.828247 352.880890,595.805603 
	C388.033844,595.792542 423.187103,595.697815 458.339172,595.860413 
	C460.574738,595.870728 463.548187,597.195618 464.921143,598.913696 
	C488.632965,628.585693 536.485596,629.032776 560.408264,599.498840 
	C562.691284,596.680298 564.974731,595.809082 568.409546,595.810059 
	C663.372498,595.836975 758.335510,595.774475 853.298462,595.724548 
	C854.797668,595.723755 856.299500,595.747375 857.795654,595.671387 
	C866.816101,595.213379 871.260803,587.316406 866.737671,579.390198 
	C851.557068,552.788513 836.253784,526.256897 821.002869,499.695374 
	C812.879700,485.547729 804.420532,471.577606 796.785950,457.170685 
	C792.473206,449.032166 786.545776,445.333374 777.532776,446.101990 
	C775.048401,446.313843 772.540344,446.247345 769.593933,446.384918 
	C766.803406,442.283813 764.462097,438.106384 762.256897,434.171692 
	C762.714783,433.414795 762.891052,432.889099 763.049866,432.894318 
	C773.270935,433.230377 783.624817,432.734406 793.665710,434.275238 
	C801.038818,435.406647 805.392639,441.964142 809.068665,448.330566 
	C823.895996,474.009552 838.742554,499.677521 853.644775,525.313110 
	C862.264221,540.140747 870.958374,554.925537 879.707703,569.676941 
	C884.034912,576.972717 886.358337,584.519592 883.966980,593.036804 
	C880.528381,605.284607 871.493530,612.007874 857.909180,612.011719 
	C777.575928,612.034546 697.242737,612.012329 616.909485,612.011963 
	C604.242920,612.011963 591.574890,612.158691 578.910583,611.998779 
	C574.925842,611.948547 572.075195,613.276123 569.261169,616.095520 
	C539.777283,645.636108 487.471252,646.157288 457.852783,617.109192 
	C454.054047,613.383606 450.167542,611.992493 445.004303,611.997498 
	C353.504517,612.085754 262.004608,612.060425 170.504761,612.001953 
	C166.703186,611.999512 162.715744,612.072449 159.133102,611.023438 
	C144.222946,606.658081 136.596405,589.438293 143.687256,575.112915 
	C148.922150,564.537048 155.388199,554.570679 161.304977,544.332275 
	C179.892395,512.168640 198.574539,480.059113 217.005997,447.806335 
	C222.211411,438.697449 229.275696,433.065979 239.989197,432.698181 
	C246.308807,432.481232 252.631577,432.263275 258.953522,432.244446 
	C262.370453,432.234253 263.472473,433.792694 261.616669,437.040649 
	C259.966125,439.929382 258.575806,442.966766 256.943115,446.321899 
z"/>
<path fill="#FBFEFE" opacity="1.000000" stroke="none" 
	d="
M228.504944,531.401489 
	C235.973022,517.995056 243.165268,504.847168 250.621918,491.850952 
	C251.626984,490.099243 253.821930,488.188660 255.702164,487.902130 
	C329.087799,476.719421 398.865906,485.465210 462.608673,526.233765 
	C480.092041,537.415771 495.815063,550.772949 509.356018,566.592651 
	C510.423523,567.839783 511.615753,568.980164 513.026123,570.459900 
	C514.130066,569.448730 515.155640,568.690735 515.961243,567.745361 
	C546.864685,531.476196 586.115051,508.409058 631.401917,495.047638 
	C676.299805,481.800964 721.925232,480.558807 767.994141,487.294250 
	C771.950134,487.872620 774.418884,489.540161 776.357178,493.191376 
	C784.009094,507.605927 792.018494,521.830627 799.879028,536.134705 
	C800.248413,536.806824 800.461975,537.564575 800.803284,538.420776 
	C696.480957,506.037445 599.190369,513.155762 513.110413,586.637756 
	C427.104156,513.317383 329.617004,506.078369 224.774094,538.405945 
	C226.058258,535.974731 227.185211,533.841187 228.504944,531.401489 
z"/>
<path fill="#FDFEFE" opacity="1.000000" stroke="none" 
	d="
M549.979553,195.052551 
	C550.858459,195.921219 551.737305,196.789886 553.044678,198.082428 
	C555.299377,200.030243 557.125549,201.554184 558.951782,203.078110 
	C558.951782,203.078110 558.983948,203.010910 559.105225,203.328690 
	C561.449463,205.806290 563.672363,207.966110 565.895325,210.125916 
	C565.895325,210.125916 565.945496,210.053284 566.000366,210.355637 
	C566.630249,211.199265 567.205261,211.740540 567.780334,212.281799 
	C567.780334,212.281799 567.788086,212.210495 567.865295,212.533142 
	C569.216858,214.438217 570.491211,216.020645 571.765625,217.603088 
	C571.765625,217.603073 571.799866,217.854294 571.978760,218.236694 
	C572.708496,219.254578 573.259460,219.890076 573.810425,220.525574 
	C573.810425,220.525558 573.820190,220.802002 573.973450,221.258972 
	C581.610474,235.024155 581.539001,248.853531 576.973877,262.992859 
	C576.708984,263.484467 576.444092,263.976044 575.916260,264.998047 
	C573.409119,269.333771 571.164795,273.139099 568.920532,276.944427 
	C568.920532,276.944427 568.989563,276.986725 568.709351,277.116211 
	C568.134399,277.767151 567.839661,278.288605 567.544922,278.810089 
	C567.544922,278.810089 567.683838,278.742279 567.363159,278.856812 
	C564.585754,281.268555 563.027527,284.375153 558.655945,284.347382 
	C528.159302,284.153595 497.660889,284.259735 467.163422,284.155487 
	C465.494232,284.149780 463.328217,283.611847 462.235840,282.496582 
	C444.274567,264.158478 440.323059,238.196487 453.833405,218.627777 
	C457.684998,213.049088 462.565338,208.180649 466.973938,202.986526 
	C467.896729,202.201645 468.819550,201.416748 470.209106,200.250336 
	C485.528809,186.935303 501.569702,175.241058 512.854919,158.458267 
	C514.561218,160.311279 515.788269,161.643875 517.015381,162.976486 
	C517.015381,162.976486 516.997559,162.998947 517.102661,163.320084 
	C523.971436,170.590668 530.735046,177.540131 537.498718,184.489594 
	C537.498718,184.489594 537.638184,184.327957 537.764282,184.693695 
	C541.920105,188.390488 545.949829,191.721512 549.979553,195.052551 
z"/>
<path fill="#408787" opacity="1.000000" stroke="none" 
	d="
M352.000000,812.000366 
	C502.776550,812.004456 653.053101,812.008240 803.329651,812.013611 
	C804.828979,812.013672 806.329956,812.084412 807.827209,812.033813 
	C811.560303,811.907654 812.119690,814.201050 812.123840,817.248230 
	C812.128052,820.301636 811.057068,821.947876 807.786743,821.920837 
	C801.123352,821.865845 794.458862,821.940247 787.794861,821.940308 
	C599.032837,821.941162 410.270782,821.939331 221.508728,821.937500 
	C220.342514,821.937500 219.169617,821.849426 218.011307,821.943604 
	C214.361481,822.240234 212.984177,820.614990 212.978302,816.966309 
	C212.972366,813.276062 214.449448,811.975403 218.050186,811.989807 
	C238.208847,812.070557 258.368042,812.014465 278.527039,812.009766 
	C302.851349,812.004089 327.175690,812.003113 352.000000,812.000366 
z"/>
<path fill="#F8FDFC" opacity="1.000000" stroke="none" 
	d="
M470.247528,780.312134 
	C464.267181,782.222778 458.639496,785.147522 452.894623,785.399414 
	C437.299774,786.083069 421.655273,785.633972 405.444977,785.633972 
	C405.335999,784.060974 405.130707,782.473022 405.130249,780.885132 
	C405.123077,757.256775 405.202118,733.628113 405.092041,710.000366 
	C405.075775,706.512207 405.723175,704.918640 409.705811,705.007324 
	C422.013641,705.281494 434.337921,704.927002 446.639374,705.325317 
	C451.552521,705.484436 456.541656,706.566101 461.284302,707.952637 
	C468.318085,710.008850 473.131165,714.685547 474.460846,722.149414 
	C475.852722,729.962646 473.761749,736.640137 467.278656,741.634949 
	C466.535278,742.207703 465.893555,742.912476 465.165192,743.592957 
	C481.294525,755.276550 483.288696,769.356445 470.247528,780.312134 
M423.720551,769.217346 
	C425.168549,770.129150 426.575500,771.740967 428.071808,771.828735 
	C433.867554,772.168640 439.696259,772.171326 445.503387,771.994324 
	C448.289825,771.909424 451.139740,771.422852 453.810455,770.618530 
	C457.637573,769.465942 459.954498,766.744385 460.171021,762.597961 
	C460.395752,758.295532 458.436798,755.168152 454.527283,753.525085 
	C452.576843,752.705444 450.374054,752.150208 448.269318,752.095459 
	C441.297546,751.914307 434.317047,752.094788 427.342896,751.968750 
	C424.513580,751.917603 423.482910,753.083984 423.563934,755.810059 
	C423.687286,759.959656 423.631561,764.114563 423.720551,769.217346 
M449.036469,720.117493 
	C445.256287,719.792236 441.477112,719.202209 437.695770,719.188416 
	C422.820099,719.134094 422.820007,719.201416 423.686035,734.170898 
	C423.705170,734.501831 423.573120,734.953125 423.742249,735.145386 
	C424.687866,736.220459 425.694031,738.113159 426.698669,738.125183 
	C433.648712,738.208313 440.632751,738.218079 447.546112,737.591797 
	C451.876678,737.199463 455.504181,734.915710 456.019348,729.913452 
	C456.511108,725.138550 454.275299,721.984924 449.036469,720.117493 
z"/>
<path fill="#F9FDFD" opacity="1.000000" stroke="none" 
	d="
M645.934814,711.013794 
	C656.627258,721.031006 655.780029,732.415649 643.583191,743.891785 
	C645.288391,744.970032 646.979004,745.944824 648.570923,747.060486 
	C661.402283,756.053467 660.140442,775.531494 645.820923,781.831238 
	C639.914368,784.429626 633.019592,785.519531 626.503418,785.836182 
	C614.049316,786.441345 601.542908,785.892395 589.061462,786.060730 
	C585.335205,786.111023 583.836670,785.248169 583.863159,781.107117 
	C584.014526,757.472534 583.939758,733.835327 583.748352,710.200684 
	C583.717041,706.344299 584.778748,704.924805 588.794006,705.046875 
	C603.255249,705.486267 617.746765,705.261658 632.180054,706.096802 
	C636.743835,706.360901 641.161133,709.156860 645.934814,711.013794 
M609.605957,751.817139 
	C602.196289,751.846252 602.196228,751.846252 602.228760,759.415039 
	C602.230225,759.746765 602.232727,760.078430 602.234314,760.410156 
	C602.288696,771.863708 602.289673,772.001282 613.745789,771.914246 
	C619.682007,771.869141 625.672058,771.622803 631.528198,770.740295 
	C635.807800,770.095337 638.645508,767.025146 638.690430,762.412415 
	C638.735779,757.753418 636.281555,754.492126 631.823181,753.155029 
	C629.316040,752.403198 626.632019,752.043213 624.008423,751.921692 
	C619.539368,751.714661 615.055115,751.834778 609.605957,751.817139 
M604.093018,719.343079 
	C603.446106,720.679871 602.347839,721.981689 602.240967,723.360291 
	C601.971985,726.831055 602.302002,730.345154 602.105774,733.825745 
	C601.917969,737.155945 603.388550,738.224182 606.525940,738.121765 
	C610.843689,737.980713 615.175232,738.241394 619.491394,738.079529 
	C622.293457,737.974487 625.139160,737.672180 627.857483,737.013428 
	C631.993103,736.011108 634.557312,733.251892 634.677124,728.883484 
	C634.797302,724.501343 632.372620,721.642944 628.263062,720.472229 
	C625.737854,719.752991 623.068970,719.292419 620.448425,719.206421 
	C615.301208,719.037292 610.142761,719.210571 604.093018,719.343079 
z"/>
<path fill="#F8FDFC" opacity="1.000000" stroke="none" 
	d="
M499.482422,751.383911 
	C505.929932,736.915466 512.108887,722.740356 518.610107,708.714600 
	C519.352844,707.112183 521.854431,705.425110 523.617676,705.338013 
	C537.747131,704.639709 537.770874,704.746521 543.514404,717.538635 
	C553.050293,738.777100 562.562134,760.026306 572.076355,781.274475 
	C572.607422,782.460510 573.068420,783.677917 573.963013,785.857971 
	C567.681641,785.857971 561.973083,786.006531 556.287476,785.711548 
	C555.341370,785.662476 553.909363,783.786743 553.693054,782.577820 
	C551.314514,769.282043 542.853271,766.249817 530.729919,767.973145 
	C525.021729,768.784668 519.090271,767.905640 513.285461,768.237610 
	C511.746185,768.325623 509.658112,769.724915 508.936035,771.105042 
	C506.940979,774.918030 505.681183,779.109558 503.810425,782.997314 
	C503.212341,784.240295 501.659973,785.774536 500.462280,785.848511 
	C495.352295,786.164001 490.211609,785.982727 484.021240,785.982727 
	C489.355347,774.028870 494.332367,762.875244 499.482422,751.383911 
M520.922729,754.598022 
	C527.613953,754.598022 534.305115,754.598022 542.027283,754.598022 
	C537.485352,743.654907 533.522400,734.106873 528.954041,723.100281 
	C524.593262,733.736023 520.804077,742.846924 517.253723,752.049988 
	C517.088379,752.478699 519.056519,753.730591 520.922729,754.598022 
z"/>
<path fill="#F8FDFC" opacity="1.000000" stroke="none" 
	d="
M690.303833,756.246460 
	C680.027588,739.321289 669.927002,722.762695 659.239197,705.241272 
	C665.936890,705.241272 671.521301,705.010864 677.060425,705.409485 
	C678.382446,705.504578 679.845154,707.516357 680.746155,708.957397 
	C686.216614,717.706848 691.530457,726.554138 696.929321,735.348633 
	C697.942200,736.998535 699.103149,738.557556 700.671265,740.855103 
	C705.227356,733.380310 709.355835,726.595276 713.498474,719.818787 
	C714.539734,718.115417 715.621826,716.436890 716.692688,714.751770 
	C723.355835,704.267151 726.766357,702.941345 740.050049,706.019226 
	C739.381714,707.375671 738.862671,708.680481 738.138916,709.859680 
	C729.345886,724.186951 720.407043,738.426941 711.811462,752.871277 
	C710.223816,755.539246 709.400208,758.986145 709.251892,762.122131 
	C708.891113,769.749878 709.134399,777.406311 709.134399,785.858948 
	C703.522034,785.858948 698.252991,786.041382 693.023804,785.666321 
	C692.220764,785.608704 691.047485,783.004639 690.989563,781.540955 
	C690.660706,773.237915 690.618958,764.923523 690.303833,756.246460 
z"/>
<path fill="#F9FDFD" opacity="1.000000" stroke="none" 
	d="
M324.000000,785.958984 
	C314.877655,785.958618 306.255310,785.958618 297.325378,785.958618 
	C297.138885,783.949036 296.890350,782.508362 296.888580,781.067383 
	C296.859619,757.581482 296.981293,734.094421 296.753967,710.610657 
	C296.709747,706.042419 298.264496,705.032349 302.505402,705.101013 
	C315.037598,705.304199 315.037506,705.140686 315.055023,717.721069 
	C315.077271,733.711304 315.231384,749.703003 315.044189,765.690796 
	C314.994720,769.912476 316.456512,771.105713 320.508453,771.027222 
	C330.664398,770.830444 340.829224,771.130859 350.987610,771.003845 
	C354.510681,770.959839 356.014862,771.805115 355.944763,775.747314 
	C355.764557,785.876038 355.958313,785.885254 345.987183,785.917725 
	C338.824829,785.941040 331.662384,785.946228 324.000000,785.958984 
z"/>
<path fill="#F9FDFD" opacity="1.000000" stroke="none" 
	d="
M375.067383,785.899475 
	C372.444397,785.900085 370.295837,785.900085 367.707153,785.900085 
	C367.527435,784.140930 367.258270,782.707886 367.252869,781.273865 
	C367.163818,757.636719 367.202362,733.998474 366.957275,710.363159 
	C366.913269,706.122742 368.333252,705.042053 372.382507,705.071777 
	C385.149200,705.165588 385.151031,705.015564 385.193787,717.872192 
	C385.261841,738.346802 385.329315,758.821472 385.395386,779.296082 
	C385.401733,781.261292 385.396210,783.226501 385.396210,785.898865 
	C381.738007,785.898865 378.639923,785.898865 375.067383,785.899475 
z"/>
<path fill="#69B3B1" opacity="1.000000" stroke="none" 
	d="
M466.616852,203.020325 
	C462.565338,208.180649 457.684998,213.049088 453.833405,218.627777 
	C440.323059,238.196487 444.274567,264.158478 462.235840,282.496582 
	C463.328217,283.611847 465.494232,284.149780 467.163422,284.155487 
	C497.660889,284.259735 528.159302,284.153595 558.655945,284.347382 
	C563.027527,284.375153 564.585754,281.268555 567.327698,278.788147 
	C567.666016,283.893188 564.808350,286.020813 559.779785,285.988403 
	C551.974976,285.938141 544.164062,285.833740 536.368835,286.116180 
	C534.670349,286.177734 533.059998,287.843964 531.350220,288.645538 
	C529.527527,289.500061 527.673462,290.731964 525.765442,290.870911 
	C521.259216,291.199097 516.712891,290.976257 512.182739,290.976257 
	C512.107727,291.629517 512.032715,292.282776 511.957733,292.936005 
	C513.658630,293.294586 515.344482,293.848816 517.062744,293.981415 
	C534.233093,295.306366 551.412109,296.521576 568.577209,297.909119 
	C570.037354,298.027191 571.415039,299.164520 572.936157,300.153839 
	C558.423828,300.582031 543.806458,300.741821 529.188904,300.774780 
	C503.757050,300.832123 478.325043,300.811218 452.421997,300.838013 
	C453.097717,299.778473 454.185211,297.847473 455.400726,297.763184 
	C466.464661,296.995911 477.558136,296.662323 488.627014,295.953644 
	C492.798767,295.686523 496.928864,294.768677 501.077942,294.147491 
	C501.105133,293.426575 501.132324,292.705688 501.159546,291.984772 
	C499.286407,291.653748 497.425232,291.164124 495.537842,291.021973 
	C490.251282,290.623749 484.661133,292.248596 480.444153,286.790405 
	C479.360352,285.387634 475.306885,285.630676 472.797882,286.093781 
	C463.711151,287.771088 458.233734,282.823273 453.953522,276.056824 
	C447.652161,266.095215 443.467773,255.444885 443.935791,243.271835 
	C444.250580,235.084549 446.874054,227.879410 450.277252,220.501068 
	C452.824890,214.977509 456.795532,211.070847 460.606903,206.838638 
	C462.078033,205.205063 464.351715,204.294220 466.616852,203.020325 
z"/>
<path fill="#AAD7D6" opacity="1.000000" stroke="none" 
	d="
M987.816772,966.943359 
	C983.082764,975.844238 975.779297,982.172791 967.513672,987.953430 
	C962.004272,979.526367 955.675232,972.306091 945.101440,969.161865 
	C956.978638,964.735413 964.637390,957.029724 969.077332,945.175415 
	C972.507996,955.116272 978.805969,962.021240 987.816772,966.943359 
z"/>
<path fill="#E8F7F8" opacity="1.000000" stroke="none" 
	d="
M534.630981,856.237244 
	C536.364929,859.330933 538.629761,862.105103 539.019836,865.121704 
	C539.694702,870.340698 539.207092,875.710022 539.207092,881.166565 
	C536.100952,882.479187 534.254761,882.180603 534.241394,878.455872 
	C534.227112,874.464172 534.296021,870.467102 534.111023,866.482422 
	C533.880676,861.520264 531.198547,858.913635 526.680054,858.947266 
	C522.321594,858.979797 519.335327,861.778259 519.053467,866.474304 
	C518.824585,870.287598 519.160156,874.141724 518.806091,877.936768 
	C518.675903,879.332214 517.286194,880.610107 516.470947,881.941650 
	C515.607788,880.679749 514.131714,879.479187 513.997986,878.144226 
	C513.618103,874.352417 513.930359,870.497070 513.703003,866.682739 
	C513.405762,861.696045 510.706268,858.972168 506.377045,858.917419 
	C501.827423,858.859863 498.738708,861.731445 498.437195,866.709961 
	C498.206360,870.521545 498.607391,874.379517 498.244720,878.170654 
	C498.118958,879.485352 496.543091,880.661316 495.629517,881.900635 
	C494.821960,880.738098 493.353485,879.596436 493.315979,878.409546 
	C493.100677,871.597473 493.231354,864.774658 493.231110,857.955444 
	C493.230988,854.436584 494.594788,853.371399 497.845367,855.203735 
	C498.677826,855.673035 499.995331,856.195984 500.685394,855.860901 
	C506.884460,852.851196 512.295898,854.186523 517.372009,858.734802 
	C522.506348,854.502258 528.022766,852.567932 534.630981,856.237244 
z"/>
<path fill="#69B3B1" opacity="1.000000" stroke="none" 
	d="
M451.550262,301.165436 
	C451.837738,302.786255 451.781464,304.616058 451.804443,306.444824 
	C451.905518,314.484467 455.773743,319.395447 463.833374,320.278320 
	C468.033936,320.738434 468.523682,322.608063 468.518890,326.043304 
	C468.461975,366.960327 468.491913,407.877472 468.508026,448.794586 
	C468.512756,460.770142 468.546021,472.745728 468.565247,484.721283 
	C468.568085,486.482056 468.565674,488.242828 468.565674,491.310852 
	C463.311646,487.336823 459.139343,484.181000 454.763855,480.769958 
	C456.994385,481.430847 459.505890,482.184265 461.843506,483.301483 
	C465.278961,484.943481 466.827515,484.066376 466.735504,480.285492 
	C466.489990,470.189575 466.097656,460.093964 466.054047,449.996979 
	C465.951385,426.238861 465.920197,402.479431 466.055756,378.721619 
	C466.126801,366.272919 466.641602,353.827179 466.892517,341.378815 
	C466.995575,336.265320 467.171570,331.130371 466.788330,326.044830 
	C466.681671,324.629608 464.927460,322.595154 463.524506,322.165253 
	C459.833954,321.034515 455.920929,320.629944 451.242981,319.781311 
	C451.242981,313.897491 451.242981,307.635712 451.550262,301.165436 
z"/>
<path fill="#E8F7F8" opacity="1.000000" stroke="none" 
	d="
M657.785583,881.783936 
	C656.916626,880.600586 656.041809,879.476562 656.023804,878.338989 
	C655.863037,868.194580 655.766418,858.046570 655.901306,847.902954 
	C655.919678,846.520630 657.316895,845.156616 658.075623,843.784119 
	C658.969238,845.205627 660.405212,846.544128 660.638000,848.066711 
	C661.057556,850.809814 660.756531,853.663086 660.756531,855.719604 
	C666.399109,855.719604 671.555847,855.123657 676.455994,855.986084 
	C678.704407,856.381775 680.948181,859.345581 682.320862,861.662170 
	C685.456055,866.953491 684.310364,874.204102 680.244385,878.326721 
	C675.487366,883.149902 669.366211,883.537415 662.137817,879.557678 
	C660.767334,880.346375 659.472229,881.091736 657.785583,881.783936 
M676.465149,874.897644 
	C680.683044,867.663025 678.497253,860.075439 671.751892,858.956482 
	C667.448547,858.242615 663.652222,859.355591 661.804077,863.716492 
	C659.952332,868.085693 660.481750,872.271484 664.173584,875.561401 
	C668.042847,879.009338 672.035767,878.460022 676.465149,874.897644 
z"/>
<path fill="#E8F7F8" opacity="1.000000" stroke="none" 
	d="
M347.172668,866.778687 
	C350.194458,866.412537 352.861725,866.352783 355.455139,865.884033 
	C357.009583,865.603149 358.448517,864.683105 359.939392,864.050293 
	C358.554596,862.399658 357.419434,859.755920 355.726654,859.330444 
	C353.170563,858.687866 350.227966,859.733948 347.444702,859.783203 
	C345.947815,859.809692 344.440674,859.254456 342.938141,858.961670 
	C343.908997,857.860962 344.750641,855.987732 345.874176,855.799805 
	C349.734711,855.154114 353.735168,854.615906 357.604401,854.947083 
	C361.874817,855.312683 364.613922,858.409851 364.869171,862.626587 
	C365.247375,868.874268 364.967010,875.161804 364.967010,881.084595 
	C359.658691,881.419678 354.696777,882.024292 349.744537,881.953369 
	C345.775269,881.896545 342.664886,879.803650 341.874786,875.607239 
	C341.098785,871.486023 342.810333,868.489868 347.172668,866.778687 
M350.095703,878.119507 
	C357.974854,878.452759 360.391937,876.452881 359.432007,869.838135 
	C356.924194,869.838135 354.239868,869.429443 351.765045,869.973572 
	C349.939240,870.375000 347.750305,871.692200 346.955933,873.235840 
	C346.493591,874.134277 348.461884,876.283508 350.095703,878.119507 
z"/>
<path fill="#E8F7F8" opacity="1.000000" stroke="none" 
	d="
M774.046631,889.054810 
	C770.381409,892.587708 766.455017,893.058044 762.311462,891.076477 
	C761.445251,890.662170 761.060547,889.240906 760.453918,888.283691 
	C761.499329,887.799927 762.799011,886.658936 763.545410,886.947693 
	C766.555908,888.112610 768.951904,887.912231 771.156738,885.346313 
	C773.672852,882.418152 772.150757,879.762024 770.924500,877.031433 
	C767.604675,869.639099 764.274780,862.251221 760.903564,854.760864 
	C764.092896,853.315918 765.851929,854.185547 767.095154,857.032227 
	C769.676147,862.941711 772.439331,868.771545 775.399963,875.228027 
	C779.099609,867.841736 782.420044,861.115845 785.913635,854.481201 
	C786.120117,854.089050 787.719604,854.430359 790.338440,854.430359 
	C784.723206,866.457092 779.508789,877.625305 774.046631,889.054810 
z"/>
<path fill="#E8F7F8" opacity="1.000000" stroke="none" 
	d="
M461.081970,870.343140 
	C463.839081,868.701294 466.299805,866.916565 469.033356,866.248840 
	C471.675568,865.603455 474.598846,866.109009 477.497894,866.109009 
	C478.625427,861.243713 476.380219,859.212891 472.564087,859.057007 
	C469.819122,858.944824 467.044159,859.935547 464.260345,860.199341 
	C463.326630,860.287720 462.324219,859.651062 461.353210,859.345825 
	C461.824310,858.292419 462.042816,856.587036 462.807251,856.290833 
	C468.018372,854.272095 473.414673,853.120483 478.711334,855.923279 
	C483.448303,858.430054 483.612000,863.007996 483.554321,867.627563 
	C483.508698,871.283386 483.547333,874.942200 483.643585,878.597168 
	C483.725128,881.693359 482.230621,882.199219 479.520355,881.613647 
	C477.858978,881.254700 476.051758,881.636292 474.338715,881.437805 
	C470.381073,880.979187 466.035645,881.215210 462.612000,879.574402 
	C459.436279,878.052429 459.297577,874.104736 461.081970,870.343140 
M474.419891,869.723877 
	C472.596344,869.816162 470.541351,869.416138 469.012299,870.134949 
	C467.381012,870.901733 466.246765,872.725769 464.895569,874.088257 
	C466.333618,875.448669 468.038849,878.139893 469.158661,877.915039 
	C472.279236,877.288574 475.192322,875.515503 478.033630,873.921143 
	C478.186737,873.835205 476.956268,871.229675 476.297943,869.830872 
	C476.228149,869.682617 475.671326,869.763550 474.419891,869.723877 
z"/>
<path fill="#E8F7F8" opacity="1.000000" stroke="none" 
	d="
M717.119629,859.562866 
	C715.033813,859.500854 713.325745,859.308655 711.617737,859.116394 
	C712.890808,857.906921 713.993530,855.990051 715.472107,855.633972 
	C718.637634,854.871582 722.038208,854.452087 725.268616,854.735168 
	C730.565125,855.199341 733.432068,858.234131 733.782349,863.492981 
	C734.124451,868.629395 734.143494,873.809387 733.865967,878.946472 
	C733.810303,879.977539 730.920471,881.851562 730.791809,881.734741 
	C728.451355,879.610229 726.360596,881.488586 724.106567,881.678650 
	C720.914368,881.947693 717.166565,882.032104 714.542114,880.586853 
	C712.475647,879.448792 710.654419,875.835205 710.753296,873.403687 
	C710.840881,871.249207 713.322754,868.405029 715.478577,867.327515 
	C717.985718,866.074158 721.330200,866.607056 724.229614,865.984436 
	C725.863708,865.633545 727.333435,864.516907 728.877136,863.745117 
	C727.396362,862.170532 726.177002,859.865540 724.364746,859.216858 
	C722.358459,858.498718 719.809937,859.295532 717.119629,859.562866 
M728.475708,870.584961 
	C725.243469,870.461853 721.961914,869.971375 718.802979,870.395020 
	C717.526123,870.566284 715.483215,872.879150 715.634521,873.958618 
	C715.847961,875.480469 717.522949,877.492432 719.018494,878.011475 
	C723.859619,879.691711 727.921875,876.695374 728.475708,870.584961 
z"/>
<path fill="#E8F7F8" opacity="1.000000" stroke="none" 
	d="
M285.398621,856.216431 
	C296.510101,851.814148 306.260529,856.517090 307.450531,866.502258 
	C308.235046,873.084778 304.848511,878.777954 298.752289,881.125244 
	C292.358704,883.587097 284.946899,881.543152 281.352692,876.327026 
	C277.845795,871.237610 278.330902,863.410583 282.494598,858.738403 
	C283.260590,857.878845 284.209381,857.182190 285.398621,856.216431 
M290.380981,877.353088 
	C294.714172,878.473450 298.397095,877.444336 300.777191,873.571350 
	C302.934479,870.060974 302.955627,866.287292 300.726410,862.718018 
	C298.628784,859.359436 295.387695,858.382080 291.654572,858.908142 
	C287.561646,859.484863 285.005493,861.982361 284.291321,865.960510 
	C283.416168,870.835022 284.888062,874.824097 290.380981,877.353088 
z"/>
<path fill="#69B3B1" opacity="1.000000" stroke="none" 
	d="
M564.626709,485.027191 
	C562.988647,486.696320 560.972290,488.393219 558.151184,490.767426 
	C557.946472,488.557861 557.715210,487.220459 557.714050,485.882843 
	C557.667175,432.918213 557.698975,379.953339 557.507385,326.989288 
	C557.491333,322.552124 558.258423,320.117157 563.153137,320.034424 
	C564.889587,320.005127 566.608582,318.936676 568.706421,318.260315 
	C567.226746,319.379425 565.493042,321.303101 563.500122,321.625732 
	C559.809570,322.223206 558.923523,324.084473 558.963562,327.410950 
	C559.077820,336.908600 559.000549,346.408600 559.000732,355.907654 
	C559.001404,389.904297 559.000488,423.900909 559.006104,457.897552 
	C559.007385,465.683258 559.192810,473.473267 558.983032,481.252930 
	C558.867249,485.546112 560.867981,486.041992 564.626709,485.027191 
z"/>
<path fill="#E8F7F8" opacity="1.000000" stroke="none" 
	d="
M423.895142,862.801147 
	C426.580597,864.427307 429.160736,865.723083 431.820465,866.826965 
	C433.641449,867.582764 435.786560,867.729492 437.414703,868.744995 
	C441.874176,871.526489 441.838745,876.919067 437.545746,879.863098 
	C433.643463,882.539001 424.148590,882.780884 420.280090,880.127686 
	C419.523010,879.608459 419.269409,878.354980 418.783600,877.440186 
	C419.865631,877.084351 420.981354,876.351379 422.023285,876.444397 
	C424.972412,876.707886 427.911072,877.738525 430.814117,877.604614 
	C432.363464,877.533142 433.830658,875.680786 435.334961,874.632141 
	C434.079498,873.502380 432.997284,871.974731 431.528381,871.335205 
	C429.269562,870.351685 426.366333,870.529236 424.433472,869.200378 
	C422.217224,867.676697 419.323029,865.027954 419.350250,862.901611 
	C419.382233,860.401733 421.838501,856.317139 423.949799,855.799255 
	C428.212646,854.753601 432.960907,855.545959 437.486603,855.881836 
	C438.087311,855.926392 438.557404,857.731018 439.087982,858.720581 
	C438.004547,859.083191 436.910706,859.776611 435.839722,859.742981 
	C433.211792,859.660217 430.532349,858.786194 427.996124,859.131165 
	C426.485596,859.336670 425.206787,861.245728 423.895142,862.801147 
z"/>
<path fill="#E8F7F8" opacity="1.000000" stroke="none" 
	d="
M326.034180,858.579468 
	C320.943329,859.071045 317.908661,861.515869 316.899628,866.147583 
	C316.047943,870.056885 317.050049,873.559448 320.398682,875.856201 
	C324.214874,878.473511 328.143616,878.024414 332.108917,875.695312 
	C333.350281,874.966248 335.149933,875.187683 337.637268,874.843506 
	C333.960327,881.174988 328.970123,883.254089 322.920990,882.039856 
	C317.032654,880.857910 312.456024,876.010437 311.690155,870.144226 
	C310.915497,864.210876 313.790955,858.517273 318.862152,855.942810 
	C324.404816,853.129089 332.128265,853.888489 335.623566,857.791382 
	C336.328949,858.578857 336.319885,860.006165 336.640228,861.138428 
	C335.323944,861.184570 333.907166,861.563965 332.713318,861.203979 
	C330.553772,860.552856 328.527313,859.460205 326.034180,858.579468 
z"/>
<path fill="#E8F7F8" opacity="1.000000" stroke="none" 
	d="
M563.394287,875.461365 
	C560.247253,869.305176 560.935242,863.766846 565.080444,858.877563 
	C568.895996,854.377380 574.118469,853.314270 579.617371,854.725159 
	C581.896606,855.309937 583.971497,856.977051 585.900940,858.461609 
	C586.463318,858.894287 586.203003,860.396118 586.319824,861.407837 
	C585.246643,861.526978 584.156006,861.809753 583.107788,861.697144 
	C582.572632,861.639771 582.158508,860.806946 581.612976,860.438110 
	C577.608154,857.730591 571.960266,858.272583 568.826477,861.636230 
	C565.797546,864.887085 565.695740,871.190125 568.618042,874.530579 
	C571.718018,878.074097 577.260803,878.902039 581.284363,875.952698 
	C583.501770,874.327271 585.097717,873.340637 586.838074,876.198242 
	C581.488281,884.694641 570.492493,884.476135 563.394287,875.461365 
z"/>
<path fill="#E3F4F4" opacity="1.000000" stroke="none" 
	d="
M625.910767,881.992554 
	C620.301147,881.994324 615.177185,881.994324 609.233154,881.994324 
	C609.233154,870.333130 609.169556,859.231812 609.367004,848.135193 
	C609.381104,847.339844 611.304749,846.578430 612.340576,845.801208 
	C613.121765,846.847717 614.549561,847.875427 614.580566,848.943665 
	C614.802368,856.597107 614.926575,864.264526 614.692505,871.915588 
	C614.568298,875.975525 615.838074,877.703552 620.039062,877.414490 
	C623.682861,877.163696 627.378906,877.216187 631.014099,877.548462 
	C632.272583,877.663452 633.417480,879.021240 634.614258,879.811279 
	C633.373352,880.518738 632.206116,881.509827 630.871460,881.856018 
	C629.462891,882.221436 627.894775,881.971802 625.910767,881.992554 
z"/>
<path fill="#69B3B1" opacity="1.000000" stroke="none" 
	d="
M741.018311,448.792419 
	C737.255859,443.285095 733.294983,437.695801 730.159668,431.676575 
	C728.007690,427.545258 725.424011,426.666351 721.031860,427.152039 
	C685.182861,431.116241 650.640076,439.874603 617.327515,454.693665 
	C619.390442,453.099976 621.639771,451.105194 624.248657,449.869385 
	C638.506714,443.115417 653.703186,439.116333 668.858459,435.013550 
	C674.295166,433.541779 679.676208,431.852600 685.143616,430.511230 
	C687.827026,429.852905 690.926147,430.384216 693.359497,429.302643 
	C701.879272,425.515747 710.807495,425.969360 719.733582,425.942993 
	C720.549255,425.940613 721.616882,425.954224 722.139038,425.484283 
	C726.073853,421.942993 728.232483,424.486877 730.163879,427.730316 
	C733.803833,433.843170 737.416077,439.973083 740.957031,446.143433 
	C741.317749,446.772125 741.113770,447.724854 741.018311,448.792419 
z"/>
<path fill="#69B3B1" opacity="1.000000" stroke="none" 
	d="
M379.837372,442.784180 
	C360.555450,438.592346 341.145813,433.955688 321.659149,429.669525 
	C315.662842,428.350616 309.436340,428.111755 303.353546,427.138824 
	C300.271637,426.645874 298.452850,427.620361 296.872009,430.296906 
	C291.708740,439.039032 286.321472,447.648834 280.782776,456.563904 
	C280.945801,454.793030 280.854889,452.484863 281.830200,450.790405 
	C286.620148,442.468567 291.861542,434.404480 296.571533,426.039948 
	C298.127197,423.277222 299.421234,422.900909 302.018768,424.304474 
	C303.578033,425.147003 305.402832,425.666504 307.168152,425.929718 
	C314.503357,427.023499 321.837952,428.531006 329.216187,428.835999 
	C341.914795,429.360931 353.656738,434.367035 366.135529,435.976013 
	C370.851257,436.584076 375.176666,440.219055 379.837372,442.784180 
z"/>
<path fill="#E3F4F4" opacity="1.000000" stroke="none" 
	d="
M691.785645,855.184692 
	C692.647461,854.682495 693.590576,854.144104 693.840698,854.370728 
	C696.902039,857.144104 699.795654,855.338684 702.766357,854.252808 
	C703.492981,853.987244 704.363647,854.115662 705.411011,854.046997 
	C706.499207,856.921021 706.521545,858.793457 702.849731,859.414307 
	C698.368286,860.172180 696.588989,863.500061 696.332153,867.668396 
	C696.107483,871.313538 696.401794,874.997742 696.046082,878.623474 
	C695.930908,879.797668 694.484192,880.841248 693.646484,881.944580 
	C692.865662,880.932617 691.423828,879.930176 691.409180,878.907288 
	C691.297668,871.108459 691.464661,863.305664 691.785645,855.184692 
z"/>
<path fill="#E8F7F8" opacity="1.000000" stroke="none" 
	d="
M743.494873,866.030273 
	C743.479065,863.217041 743.269043,860.871094 743.535950,858.580750 
	C743.704712,857.132690 744.585022,855.767456 745.146118,854.365051 
	C746.506409,854.951843 747.866638,855.538635 749.747620,856.350037 
	C751.800842,855.639282 754.651489,854.652527 758.094360,853.460693 
	C758.094360,855.804077 758.094360,857.193115 758.094360,858.525513 
	C750.045837,860.310486 748.691467,861.966064 748.546631,870.054810 
	C748.496216,872.874146 748.526428,875.694946 748.524414,878.515076 
	C748.522095,881.791199 746.924133,882.563843 743.502441,881.225952 
	C743.502441,876.423218 743.502441,871.472107 743.494873,866.030273 
z"/>
<path fill="#E8F7F8" opacity="1.000000" stroke="none" 
	d="
M410.525757,861.009399 
	C410.576202,867.171753 410.765564,872.840820 410.561279,878.495667 
	C410.518951,879.667542 409.014618,880.786499 408.184082,881.929810 
	C407.307739,880.835815 405.696960,879.759460 405.670105,878.645020 
	C405.433533,868.820068 405.392120,858.986816 405.562012,849.160645 
	C405.580841,848.072266 407.280487,847.012878 408.200562,845.940063 
	C408.990387,846.965149 410.386139,847.948120 410.460846,849.022888 
	C410.725830,852.835327 410.540009,856.679138 410.525757,861.009399 
z"/>
<path fill="#69B3B1" opacity="1.000000" stroke="none" 
	d="
M454.506958,480.140930 
	C437.561310,471.234253 420.774231,461.699127 403.650024,452.813721 
	C396.447327,449.076416 388.532227,446.712006 380.662140,443.464600 
	C387.118011,442.732300 393.490906,443.159332 398.747742,448.385620 
	C400.283569,449.912567 402.917480,450.309570 405.008179,451.308075 
	C416.480347,456.786987 427.894836,462.390808 439.453705,467.679382 
	C441.158295,468.459259 443.526978,467.787720 444.697876,468.808838 
	C447.234985,471.445190 449.803802,474.052094 452.291656,476.734100 
	C453.142029,477.650818 453.789307,478.755920 454.506958,480.140930 
z"/>
<path fill="#D4F1F1" opacity="1.000000" stroke="none" 
	d="
M256.228882,849.664062 
	C256.233643,856.906555 256.218658,863.722656 256.246033,870.538696 
	C256.273346,877.337097 256.291992,877.335083 263.306580,877.336365 
	C266.464905,877.336975 269.661133,877.064026 272.764618,877.479370 
	C274.182922,877.669189 275.418549,879.223938 276.737061,880.159546 
	C276.461426,880.682800 276.185822,881.206055 275.910217,881.729309 
	C267.736694,881.729309 259.563171,881.729309 250.734482,881.729309 
	C250.734482,870.483032 250.670303,859.536194 250.846466,848.593262 
	C250.861923,847.633728 252.453415,846.699585 253.312897,845.753723 
	C254.284546,846.915039 255.256149,848.076355 256.228882,849.664062 
M259.611542,881.040344 
	C264.270630,881.040344 268.929688,881.040344 273.588776,881.040344 
	C273.586121,880.346863 273.583466,879.653442 273.580811,878.959961 
	C269.422760,878.959961 265.254089,878.773682 261.109497,879.009827 
	C256.530670,879.270691 254.876572,877.275757 255.001465,872.836548 
	C255.192810,866.035461 255.094727,859.223938 254.993744,852.418701 
	C254.970459,850.849121 254.437714,849.287048 254.139420,847.721558 
	C253.620331,847.751160 253.101257,847.780823 252.582169,847.810425 
	C252.382019,849.492004 252.023438,851.172241 252.009247,852.855408 
	C251.949036,859.993530 251.980087,867.132507 251.998917,874.271179 
	C252.016235,880.835571 252.087830,880.896179 259.611542,881.040344 
z"/>
<path fill="#E8F7F8" opacity="1.000000" stroke="none" 
	d="
M379.894714,876.714417 
	C379.611511,879.114807 380.692474,882.216248 377.158691,881.632751 
	C376.207916,881.475708 375.100311,878.707092 375.070282,877.118347 
	C374.887665,867.458984 374.905518,857.792175 375.106232,848.133118 
	C375.135498,846.723083 376.499512,845.340759 377.245880,843.945618 
	C378.104156,845.384338 379.666901,846.804138 379.706085,848.264832 
	C379.956146,857.588623 379.870819,866.921387 379.894714,876.714417 
z"/>
<path fill="#69B3B1" opacity="1.000000" stroke="none" 
	d="
M517.014282,162.577667 
	C515.788269,161.643875 514.561218,160.311279 512.854919,158.458267 
	C501.569702,175.241058 485.528809,186.935303 470.355713,199.982391 
	C474.137451,195.378830 475.920410,189.465515 482.621338,185.950500 
	C490.463196,181.836990 496.448395,174.030716 502.901001,167.492752 
	C505.733398,164.622955 507.583740,160.806686 510.184967,157.673340 
	C511.078278,156.597321 512.898926,156.291138 514.295898,155.633240 
	C515.201660,157.815094 516.107422,159.996964 517.014282,162.577667 
z"/>
<path fill="#F9FDFD" opacity="1.000000" stroke="none" 
	d="
M451.741974,845.022095 
	C451.780334,853.378540 451.818695,861.735046 451.640625,870.893799 
	C451.558716,874.129517 451.693268,876.563049 451.827820,878.996521 
	C451.850189,879.422546 451.872559,879.848511 451.455322,880.595581 
	C449.794098,880.903748 448.572418,880.890930 447.350769,880.878052 
	C447.315338,869.885559 447.279938,858.893066 447.433289,847.166626 
	C447.758026,845.637512 447.893982,844.842407 448.029938,844.047241 
	C448.773529,843.974670 449.517151,843.902039 450.714050,844.113281 
	C451.312683,844.647888 451.504242,844.856262 451.741974,845.022095 
z"/>
<path fill="#E8F7F8" opacity="1.000000" stroke="none" 
	d="
M554.169922,873.221436 
	C554.179016,876.146545 554.179016,878.619690 554.179016,881.200500 
	C550.906860,882.571411 549.270447,881.945496 549.263000,878.362122 
	C549.248901,871.563171 549.020874,864.760132 549.224548,857.969116 
	C549.262207,856.713196 550.916077,855.505859 551.824097,854.276123 
	C552.593201,855.465698 553.961365,856.623474 554.026367,857.850342 
	C554.289429,862.811768 554.151062,867.794556 554.169922,873.221436 
z"/>
<path fill="#FBFEFE" opacity="1.000000" stroke="none" 
	d="
M645.699219,874.989990 
	C645.732483,876.671204 645.765747,878.352356 645.356445,880.442688 
	C643.734680,880.858582 642.555359,880.865356 641.376099,880.872070 
	C641.260315,872.895081 641.144531,864.918091 641.242188,856.332153 
	C641.684082,855.360107 641.912537,854.997070 642.141052,854.634094 
	C642.527893,854.560547 642.914673,854.487000 643.713013,854.782043 
	C644.672668,857.429382 645.220764,859.708069 645.768921,861.986755 
	C645.801392,862.748413 645.833862,863.510071 645.643921,864.999878 
	C645.513977,868.815369 645.606628,871.902649 645.699219,874.989990 
z"/>
<path fill="#69B3B1" opacity="1.000000" stroke="none" 
	d="
M361.155823,467.715210 
	C380.095978,470.642181 398.579742,476.059448 416.719604,483.801819 
	C415.264618,483.953491 413.444061,484.214050 411.839539,483.741425 
	C396.460815,479.211121 381.113892,474.572510 365.773254,469.914154 
	C364.243256,469.449524 362.815430,468.648407 361.155823,467.715210 
z"/>
<path fill="#69B3B1" opacity="1.000000" stroke="none" 
	d="
M280.035858,457.129242 
	C279.801270,458.592407 279.198212,460.081268 278.065613,462.877350 
	C293.651337,462.877350 308.412994,462.877350 323.579651,462.989014 
	C322.200287,463.392334 320.417480,463.924988 318.631317,463.936554 
	C306.813202,464.013153 294.993896,464.032593 283.176147,463.933228 
	C280.782288,463.913116 278.393311,463.306671 276.002106,462.970520 
	C275.767853,462.481384 275.533630,461.992279 275.299377,461.503143 
	C276.755402,460.053741 278.211395,458.604309 280.035858,457.129242 
z"/>
<path fill="#69B3B1" opacity="1.000000" stroke="none" 
	d="
M577.326233,262.891174 
	C581.539001,248.853531 581.610474,235.024155 574.069214,221.358704 
	C581.119019,225.447830 580.887634,233.187241 581.687744,239.967163 
	C582.411926,246.103943 581.386536,252.487457 580.719971,258.718048 
	C580.565002,260.167084 578.736816,261.437103 577.326233,262.891174 
z"/>
<path fill="#69B3B1" opacity="1.000000" stroke="none" 
	d="
M329.190491,463.634521 
	C338.724457,464.527710 348.480042,465.699524 358.606750,467.018250 
	C354.531128,469.232178 350.358002,468.986084 345.681702,467.107941 
	C341.831421,465.561615 337.311157,465.708435 333.102997,465.013123 
	C331.846405,464.805511 330.640991,464.288452 329.190491,463.634521 
z"/>
<path fill="#69B3B1" opacity="1.000000" stroke="none" 
	d="
M537.501831,184.136932 
	C530.735046,177.540131 523.971436,170.590668 517.114990,163.314026 
	C519.597839,165.415253 522.261780,167.757736 524.729858,170.291031 
	C529.051575,174.727051 533.253052,179.280228 537.501831,184.136932 
z"/>
<path fill="#69B3B1" opacity="1.000000" stroke="none" 
	d="
M609.044067,458.155884 
	C602.072937,462.234955 594.674011,466.284058 586.957397,470.453186 
	C587.322632,469.380280 587.709595,467.677216 588.738281,467.080627 
	C593.824524,464.130920 599.038818,461.389954 604.307312,458.775574 
	C605.546021,458.160858 607.169617,458.321808 609.044067,458.155884 
z"/>
<path fill="#E3F4F4" opacity="1.000000" stroke="none" 
	d="
M548.824402,848.042847 
	C549.238403,846.278687 549.525940,844.452698 550.593567,843.513245 
	C551.131592,843.039795 553.457825,843.825378 554.272217,844.697937 
	C554.861572,845.329529 554.521484,848.031982 554.203674,848.105042 
	C552.544983,848.486450 550.760803,848.321899 548.824402,848.042847 
z"/>
<path fill="#E3F4F4" opacity="1.000000" stroke="none" 
	d="
M643.802368,843.078613 
	C644.981018,844.511841 645.787476,845.888977 646.593994,847.266174 
	C645.404114,847.932373 644.140442,849.218811 643.045410,849.088318 
	C641.974609,848.960815 641.075928,847.388367 640.101685,846.450195 
	C641.211243,845.307678 642.320740,844.165100 643.802368,843.078613 
z"/>
<path fill="#69B3B1" opacity="1.000000" stroke="none" 
	d="
M549.909058,194.691071 
	C545.949829,191.721512 541.920105,188.390488 537.713684,184.787689 
	C542.494141,186.713364 548.458130,187.648727 549.909058,194.691071 
z"/>
<path fill="#69B3B1" opacity="1.000000" stroke="none" 
	d="
M569.552246,318.044250 
	C574.141296,313.706665 574.804749,307.958374 574.342896,301.404053 
	C577.846313,306.721375 575.679810,315.076874 569.552246,318.044250 
z"/>
<path fill="#69B3B1" opacity="1.000000" stroke="none" 
	d="
M586.027161,470.554077 
	C583.213257,472.761566 579.993958,474.864960 576.436401,477.056671 
	C576.941162,471.596802 580.828430,470.378937 586.027161,470.554077 
z"/>
<path fill="#69B3B1" opacity="1.000000" stroke="none" 
	d="
M569.252747,276.859375 
	C571.164795,273.139099 573.409119,269.333771 575.887817,265.280579 
	C573.943115,268.946564 571.764038,272.860443 569.252747,276.859375 
z"/>
<path fill="#69B3B1" opacity="1.000000" stroke="none" 
	d="
M565.883911,209.758087 
	C563.672363,207.966110 561.449463,205.806290 559.075378,203.350952 
	C562.819092,203.435455 565.057190,205.632584 565.883911,209.758087 
z"/>
<path fill="#69B3B1" opacity="1.000000" stroke="none" 
	d="
M745.947998,456.791809 
	C744.940979,455.688477 743.961365,454.211517 742.924561,452.400208 
	C748.619568,450.148743 745.397217,454.640503 745.947998,456.791809 
z"/>
<path fill="#69B3B1" opacity="1.000000" stroke="none" 
	d="
M558.874634,202.740952 
	C557.125549,201.554184 555.299377,200.030243 553.324585,198.219757 
	C555.049927,199.423401 556.923706,200.913589 558.874634,202.740952 
z"/>
<path fill="#69B3B1" opacity="1.000000" stroke="none" 
	d="
M571.781738,217.203674 
	C570.491211,216.020645 569.216858,214.438217 567.829834,212.538300 
	C569.077332,213.748642 570.437622,215.276443 571.781738,217.203674 
z"/>
<path fill="#D4F1F1" opacity="1.000000" stroke="none" 
	d="
M645.868774,861.571777 
	C645.220764,859.708069 644.672668,857.429382 644.008057,854.818359 
	C647.833313,855.697815 645.439819,858.882324 645.868774,861.571777 
z"/>
<path fill="#D4F1F1" opacity="1.000000" stroke="none" 
	d="
M645.801880,874.546631 
	C645.606628,871.902649 645.513977,868.815369 645.588623,865.377930 
	C645.805420,868.052979 645.854919,871.078125 645.801880,874.546631 
z"/>
<path fill="#69B3B1" opacity="1.000000" stroke="none" 
	d="
M615.249878,455.217499 
	C614.001221,456.135925 612.351929,457.034485 610.353333,457.965515 
	C611.619141,457.064545 613.234192,456.131104 615.249878,455.217499 
z"/>
<path fill="#69B3B1" opacity="1.000000" stroke="none" 
	d="
M575.763672,477.116455 
	C574.744385,478.137054 573.353210,479.162170 571.652649,480.294403 
	C572.692810,479.308014 574.042236,478.214508 575.763672,477.116455 
z"/>
<path fill="#D4F1F1" opacity="1.000000" stroke="none" 
	d="
M451.926086,878.561523 
	C451.693268,876.563049 451.558716,874.129517 451.586609,871.361206 
	C451.840820,873.393066 451.932587,875.759827 451.926086,878.561523 
z"/>
<path fill="#69B3B1" opacity="1.000000" stroke="none" 
	d="
M568.688843,482.052795 
	C568.238342,482.679932 567.456848,483.346527 566.374023,484.098083 
	C566.834473,483.486084 567.596130,482.789154 568.688843,482.052795 
z"/>
<path fill="#D4F1F1" opacity="1.000000" stroke="none" 
	d="
M447.450745,881.206116 
	C448.572418,880.890930 449.794098,880.903748 451.382690,880.908203 
	C450.350006,881.111267 448.950378,881.322693 447.450745,881.206116 
z"/>
<path fill="#D4F1F1" opacity="1.000000" stroke="none" 
	d="
M641.515015,881.163208 
	C642.555359,880.865356 643.734680,880.858582 645.267883,880.853760 
	C644.299194,881.055298 642.976562,881.254761 641.515015,881.163208 
z"/>
<path fill="#69B3B1" opacity="1.000000" stroke="none" 
	d="
M573.756348,220.198166 
	C573.259460,219.890076 572.708496,219.254578 572.081787,218.310547 
	C572.571350,218.624939 573.136780,219.247849 573.756348,220.198166 
z"/>
<path fill="#69B3B1" opacity="1.000000" stroke="none" 
	d="
M567.716919,211.973465 
	C567.205261,211.740540 566.630249,211.199265 565.959717,210.372894 
	C566.460632,210.613571 567.057068,211.139343 567.716919,211.973465 
z"/>
<path fill="#69B3B1" opacity="1.000000" stroke="none" 
	d="
M571.055969,480.378784 
	C570.774963,480.856537 570.181030,481.365112 569.299194,481.946655 
	C569.588501,481.483002 570.165771,480.946289 571.055969,480.378784 
z"/>
<path fill="#D4F1F1" opacity="1.000000" stroke="none" 
	d="
M447.734863,844.208740 
	C447.893982,844.842407 447.758026,845.637512 447.472351,846.697266 
	C447.361664,846.098022 447.400726,845.234192 447.734863,844.208740 
z"/>
<path fill="#69B3B1" opacity="1.000000" stroke="none" 
	d="
M567.798828,278.639465 
	C567.839661,278.288605 568.134399,277.767151 568.685242,277.083679 
	C568.645142,277.437408 568.348938,277.953125 567.798828,278.639465 
z"/>
<path fill="#D4F1F1" opacity="1.000000" stroke="none" 
	d="
M641.881409,854.648865 
	C641.912537,854.997070 641.684082,855.360107 641.292480,855.866455 
	C641.293518,855.561035 641.457642,855.112366 641.881409,854.648865 
z"/>
<path fill="#D4F1F1" opacity="1.000000" stroke="none" 
	d="
M451.758972,844.772217 
	C451.504242,844.856262 451.312683,844.647888 451.080200,844.201904 
	C451.254028,844.178589 451.515015,844.350525 451.758972,844.772217 
z"/>
<path fill="#5EAFAC" opacity="1.000000" stroke="none" 
	d="
M423.686218,768.742310 
	C423.631561,764.114563 423.687286,759.959656 423.563934,755.810059 
	C423.482910,753.083984 424.513580,751.917603 427.342896,751.968750 
	C434.317047,752.094788 441.297546,751.914307 448.269318,752.095459 
	C450.374054,752.150208 452.576843,752.705444 454.527283,753.525085 
	C458.436798,755.168152 460.395752,758.295532 460.171021,762.597961 
	C459.954498,766.744385 457.637573,769.465942 453.810455,770.618530 
	C451.139740,771.422852 448.289825,771.909424 445.503387,771.994324 
	C439.696259,772.171326 433.867554,772.168640 428.071808,771.828735 
	C426.575500,771.740967 425.168549,770.129150 423.686218,768.742310 
z"/>
<path fill="#5EAFAC" opacity="1.000000" stroke="none" 
	d="
M449.415344,720.246460 
	C454.275299,721.984924 456.511108,725.138550 456.019348,729.913452 
	C455.504181,734.915710 451.876678,737.199463 447.546112,737.591797 
	C440.632751,738.218079 433.648712,738.208313 426.698669,738.125183 
	C425.694031,738.113159 424.687866,736.220459 423.742249,735.145386 
	C423.573120,734.953125 423.705170,734.501831 423.686035,734.170898 
	C422.820007,719.201416 422.820099,719.134094 437.695770,719.188416 
	C441.477112,719.202209 445.256287,719.792236 449.415344,720.246460 
z"/>
<path fill="#5EAFAC" opacity="1.000000" stroke="none" 
	d="
M610.091614,751.817261 
	C615.055115,751.834778 619.539368,751.714661 624.008423,751.921692 
	C626.632019,752.043213 629.316040,752.403198 631.823181,753.155029 
	C636.281555,754.492126 638.735779,757.753418 638.690430,762.412415 
	C638.645508,767.025146 635.807800,770.095337 631.528198,770.740295 
	C625.672058,771.622803 619.682007,771.869141 613.745789,771.914246 
	C602.289673,772.001282 602.288696,771.863708 602.234314,760.410156 
	C602.232727,760.078430 602.230225,759.746765 602.228760,759.415039 
	C602.196228,751.846252 602.196289,751.846252 610.091614,751.817261 
z"/>
<path fill="#61B1AF" opacity="1.000000" stroke="none" 
	d="
M604.541016,719.292603 
	C610.142761,719.210571 615.301208,719.037292 620.448425,719.206421 
	C623.068970,719.292419 625.737854,719.752991 628.263062,720.472229 
	C632.372620,721.642944 634.797302,724.501343 634.677124,728.883484 
	C634.557312,733.251892 631.993103,736.011108 627.857483,737.013428 
	C625.139160,737.672180 622.293457,737.974487 619.491394,738.079529 
	C615.175232,738.241394 610.843689,737.980713 606.525940,738.121765 
	C603.388550,738.224182 601.917969,737.155945 602.105774,733.825745 
	C602.302002,730.345154 601.971985,726.831055 602.240967,723.360291 
	C602.347839,721.981689 603.446106,720.679871 604.541016,719.292603 
z"/>
<path fill="#5EAFAC" opacity="1.000000" stroke="none" 
	d="
M520.476929,754.598511 
	C519.056519,753.730591 517.088379,752.478699 517.253723,752.049988 
	C520.804077,742.846924 524.593262,733.736023 528.954041,723.100281 
	C533.522400,734.106873 537.485352,743.654907 542.027283,754.598022 
	C534.305115,754.598022 527.613953,754.598022 520.476929,754.598511 
z"/>
<path fill="#61B1AF" opacity="1.000000" stroke="none" 
	d="
M676.195801,875.173950 
	C672.035767,878.460022 668.042847,879.009338 664.173584,875.561401 
	C660.481750,872.271484 659.952332,868.085693 661.804077,863.716492 
	C663.652222,859.355591 667.448547,858.242615 671.751892,858.956482 
	C678.497253,860.075439 680.683044,867.663025 676.195801,875.173950 
z"/>
<path fill="#69B3B1" opacity="1.000000" stroke="none" 
	d="
M349.716125,877.994751 
	C348.461884,876.283508 346.493591,874.134277 346.955933,873.235840 
	C347.750305,871.692200 349.939240,870.375000 351.765045,869.973572 
	C354.239868,869.429443 356.924194,869.838135 359.432007,869.838135 
	C360.391937,876.452881 357.974854,878.452759 349.716125,877.994751 
z"/>
<path fill="#61B1AF" opacity="1.000000" stroke="none" 
	d="
M474.880188,869.731018 
	C475.671326,869.763550 476.228149,869.682617 476.297943,869.830872 
	C476.956268,871.229675 478.186737,873.835205 478.033630,873.921143 
	C475.192322,875.515503 472.279236,877.288574 469.158661,877.915039 
	C468.038849,878.139893 466.333618,875.448669 464.895569,874.088257 
	C466.246765,872.725769 467.381012,870.901733 469.012299,870.134949 
	C470.541351,869.416138 472.596344,869.816162 474.880188,869.731018 
z"/>
<path fill="#69B3B1" opacity="1.000000" stroke="none" 
	d="
M728.590454,870.980835 
	C727.921875,876.695374 723.859619,879.691711 719.018494,878.011475 
	C717.522949,877.492432 715.847961,875.480469 715.634521,873.958618 
	C715.483215,872.879150 717.526123,870.566284 718.802979,870.395020 
	C721.961914,869.971375 725.243469,870.461853 728.590454,870.980835 
z"/>
<path fill="#61B1AF" opacity="1.000000" stroke="none" 
	d="
M290.014191,877.232300 
	C284.888062,874.824097 283.416168,870.835022 284.291321,865.960510 
	C285.005493,861.982361 287.561646,859.484863 291.654572,858.908142 
	C295.387695,858.382080 298.628784,859.359436 300.726410,862.718018 
	C302.955627,866.287292 302.934479,870.060974 300.777191,873.571350 
	C298.397095,877.444336 294.714172,878.473450 290.014191,877.232300 
z"/>
<path fill="#F9FDFD" opacity="1.000000" stroke="none" 
	d="
M259.133301,881.040894 
	C252.087830,880.896179 252.016235,880.835571 251.998917,874.271179 
	C251.980087,867.132507 251.949036,859.993530 252.009247,852.855408 
	C252.023438,851.172241 252.382019,849.492004 252.582169,847.810425 
	C253.101257,847.780823 253.620331,847.751160 254.139420,847.721558 
	C254.437714,849.287048 254.970459,850.849121 254.993744,852.418701 
	C255.094727,859.223938 255.192810,866.035461 255.001465,872.836548 
	C254.876572,877.275757 256.530670,879.270691 261.109497,879.009827 
	C265.254089,878.773682 269.422760,878.959961 273.580811,878.959961 
	C273.583466,879.653442 273.586121,880.346863 273.588776,881.040344 
	C268.929688,881.040344 264.270630,881.040344 259.133301,881.040894 
z"/>
</svg>